<svg transform="scale(1)" version="1.1" id="_x30_195_x5F_404_x5F_Page_x5F_Not_x5F_Found" xmlns="http://www.w3.org/2000/svg" xmlns:xlink="http://www.w3.org/1999/xlink" x="0px" y="0px" width="500px" height="500px" viewBox="0 0 500 500" xml:space="preserve" class="show_show__wrapper__graphic__5Waiy "><title>React</title><style type="text/css">
	.st0{fill:#000001;}
	.st1{fill:#e0e0e0;}
	.st2{fill:#8B08B7;}
	.st3{fill:#FFFFFF;}
	.st4{fill:#FFB0CC;}
</style><g id="computer"><g id="colors"><polygon class="st0" points="71.6,281.2 177.3,427.23 459.14,427.51 460.38,423.45 193.7,423.45 179.33,423.45 177.9,422 
			75.28,280.68 42.27,110.58 39.24,110.52 		"></polygon><polygon class="st1" points="179.2,423.36 460.49,423.36 355.46,281.03 322.7,110.36 42.29,110.36 75.4,280.91 		"></polygon><polygon class="st2" points="157.01,359.89 392.8,359.89 342.08,293.97 105.82,293.97 		"></polygon><path class="st2" d="M271.96,408.27h73.71c4.02,0,6.31-4.59,3.89-7.8l-18.4-24.42c-0.92-1.22-2.36-1.94-3.89-1.94h-73.51
			c-4.01,0-6.3,4.57-3.9,7.78l18.19,24.42C268.99,407.55,270.43,408.27,271.96,408.27z"></path><polygon class="st3" points="46.15,128.65 50.77,128.65 325.99,128.65 355.15,280.37 75.17,280.35 		"></polygon><path class="st3" d="M87.25,277.14H337.3c6.42,0,11.26-5.84,10.07-12.14l-23.43-124.3c-0.91-4.84-5.14-8.35-10.07-8.35H62.9
			c-6.45,0-11.29,5.89-10.06,12.22l24.34,124.29C78.14,273.67,82.35,277.14,87.25,277.14z"></path><path class="st2" d="M53.74,147.86c1.1-0.04,2.19-0.07,3.29-0.11l268.16-0.11c0,0-1.76-9.18-1.64-8.96
			c-1.45-1.11-2.39-2.77-3.75-3.98c-0.71-0.63-1.53-1.14-2.41-1.51c-1.12-0.47-2.33-0.73-3.54-0.76c0,0-250.52-0.13-250.23-0.06
			c-3.5-0.35-7.13,1.27-9.2,4.11C52.33,139.32,51.88,143.27,53.74,147.86z"></path></g><g id="line-1"><path class="st0" d="M460.49,423.86H179.21c-0.16,0-0.31-0.08-0.4-0.21L75,281.21c-0.04-0.06-0.07-0.13-0.09-0.2L41.8,110.46
			c-0.03-0.15,0.01-0.3,0.1-0.41s0.24-0.18,0.39-0.18h280.4c0.24,0,0.45,0.17,0.49,0.41l32.75,170.56l104.95,142.24
			c0.11,0.15,0.13,0.35,0.04,0.52C460.85,423.75,460.67,423.86,460.49,423.86z M179.46,422.86H459.5L355.06,281.33
			c-0.04-0.06-0.07-0.13-0.09-0.2l-32.69-170.27H42.9l32.97,169.85L179.46,422.86z"></path><path class="st0" d="M354.76,281.06H75.65c-0.28,0-0.5-0.22-0.5-0.5s0.22-0.5,0.5-0.5h279.11c0.28,0,0.5,0.22,0.5,0.5
			S355.04,281.06,354.76,281.06z"></path><path class="st0" d="M325.45,129.09H46.54c-0.28,0-0.5-0.22-0.5-0.5s0.22-0.5,0.5-0.5h278.9c0.28,0,0.5,0.22,0.5,0.5
			S325.72,129.09,325.45,129.09z"></path><path class="st0" d="M392.79,360.39H157c-0.15,0-0.3-0.07-0.4-0.19l-51.18-65.92c-0.12-0.15-0.14-0.36-0.05-0.53
			c0.08-0.17,0.26-0.28,0.45-0.28h236.26c0.16,0,0.3,0.07,0.4,0.2l50.71,65.92c0.12,0.15,0.14,0.35,0.05,0.53
			S392.99,360.39,392.79,360.39z M157.25,359.39h234.53l-49.94-64.92H106.85L157.25,359.39z"></path><path class="st0" d="M350.49,310.64H121.67c-0.28,0-0.5-0.22-0.5-0.5s0.22-0.5,0.5-0.5h228.81c0.28,0,0.5,0.22,0.5,0.5
			S350.76,310.64,350.49,310.64z"></path><path class="st0" d="M363.96,327.27h-229.6c-0.28,0-0.5-0.22-0.5-0.5s0.22-0.5,0.5-0.5h229.6c0.28,0,0.5,0.22,0.5,0.5
			S364.23,327.27,363.96,327.27z"></path><path class="st0" d="M376.47,344.23H147.5c-0.28,0-0.5-0.22-0.5-0.5s0.22-0.5,0.5-0.5h228.97c0.28,0,0.5,0.22,0.5,0.5
			S376.75,344.23,376.47,344.23z"></path><path class="st0" d="M363.17,357.7c-0.15,0-0.3-0.07-0.39-0.19l-47.86-61.48c-0.17-0.22-0.13-0.53,0.09-0.7
			c0.22-0.17,0.53-0.13,0.7,0.09l47.86,61.48c0.17,0.22,0.13,0.53-0.09,0.7C363.38,357.67,363.27,357.7,363.17,357.7z"></path><path class="st0" d="M332.42,358.33c-0.15,0-0.3-0.07-0.4-0.19l-48.81-62.91c-0.17-0.22-0.13-0.53,0.09-0.7
			c0.21-0.17,0.53-0.13,0.7,0.09l48.81,62.91c0.17,0.22,0.13,0.53-0.09,0.7C332.64,358.3,332.53,358.33,332.42,358.33z"></path><path class="st0" d="M292.64,343.91c-0.15,0-0.3-0.07-0.4-0.2l-36.76-48.17c-0.17-0.22-0.12-0.53,0.09-0.7s0.53-0.13,0.7,0.09
			l36.76,48.17c0.17,0.22,0.12,0.53-0.09,0.7C292.86,343.88,292.75,343.91,292.64,343.91z"></path><path class="st0" d="M263.8,343.44c-0.15,0-0.29-0.07-0.39-0.19l-37.39-47.7c-0.17-0.22-0.13-0.53,0.08-0.7
			c0.22-0.17,0.53-0.13,0.7,0.08l37.39,47.7c0.17,0.22,0.13,0.53-0.08,0.7C264.02,343.41,263.91,343.44,263.8,343.44z"></path><path class="st0" d="M234.66,343.91c-0.15,0-0.31-0.07-0.4-0.2l-35.34-48.17c-0.16-0.22-0.12-0.54,0.11-0.7
			c0.22-0.16,0.54-0.12,0.7,0.11l35.34,48.17c0.16,0.22,0.12,0.54-0.11,0.7C234.86,343.88,234.76,343.91,234.66,343.91z"></path><path class="st0" d="M217.39,358.81c-0.15,0-0.3-0.07-0.4-0.2l-47.38-63.07c-0.17-0.22-0.12-0.54,0.1-0.7
			c0.22-0.17,0.53-0.12,0.7,0.1l47.38,63.07c0.17,0.22,0.12,0.54-0.1,0.7C217.6,358.78,217.49,358.81,217.39,358.81z"></path><path class="st0" d="M186.65,358.49c-0.15,0-0.3-0.07-0.4-0.2l-48.02-62.43c-0.17-0.22-0.13-0.53,0.09-0.7
			c0.22-0.17,0.53-0.13,0.7,0.09l48.02,62.43c0.17,0.22,0.13,0.53-0.09,0.7C186.86,358.46,186.75,358.49,186.65,358.49z"></path><path class="st0" d="M345.67,408.77h-73.71c-1.68,0-3.29-0.81-4.31-2.16l-18.19-24.42c-1.22-1.64-1.42-3.79-0.5-5.62
			c0.92-1.83,2.76-2.96,4.8-2.96h73.51c1.68,0,3.28,0.8,4.29,2.14l18.4,24.42c1.23,1.64,1.43,3.79,0.52,5.63
			C349.57,407.63,347.73,408.77,345.67,408.77z M253.76,374.61c-1.69,0-3.15,0.9-3.91,2.41c-0.76,1.51-0.6,3.22,0.41,4.57
			l18.19,24.42c0.83,1.1,2.14,1.76,3.51,1.76h73.71c1.7,0,3.16-0.91,3.91-2.42c0.75-1.51,0.6-3.23-0.42-4.58l-18.4-24.42
			c-0.82-1.09-2.13-1.74-3.49-1.74H253.76z"></path><path class="st0" d="M337.3,277.64H87.25c-5.11,0-9.56-3.65-10.56-8.68L52.35,144.67c-0.62-3.17,0.21-6.42,2.26-8.91
			c2.05-2.48,5.07-3.91,8.29-3.91h250.97c5.17,0,9.61,3.68,10.56,8.76l23.43,124.3c0.59,3.15-0.24,6.37-2.29,8.84
			C343.53,276.22,340.51,277.64,337.3,277.64z M62.9,132.85c-2.92,0-5.66,1.29-7.52,3.55c-1.86,2.26-2.61,5.2-2.05,8.08
			l24.34,124.29c0.91,4.56,4.94,7.88,9.58,7.88H337.3c2.91,0,5.65-1.29,7.51-3.53c1.86-2.24,2.61-5.16,2.07-8.02l-23.43-124.3
			c-0.87-4.6-4.89-7.94-9.58-7.94H62.9z"></path><path class="st0" d="M324.99,148.26H53.94c-0.28,0-0.5-0.22-0.5-0.5s0.22-0.5,0.5-0.5h271.05c0.28,0,0.5,0.22,0.5,0.5
			S325.26,148.26,324.99,148.26z"></path><path class="st0" d="M63.79,145.65c-0.7,0-1.44-0.31-2.15-0.92c-0.91-0.77-1.69-1.94-2.2-3.3c-0.51-1.36-0.69-2.76-0.5-3.94
			c0.2-1.28,0.81-2.17,1.7-2.51c1.77-0.66,4.03,1.13,5.13,4.08c0.51,1.36,0.69,2.76,0.5,3.94c-0.2,1.28-0.81,2.17-1.7,2.51
			C64.31,145.6,64.05,145.65,63.79,145.65z M61.41,135.84c-0.15,0-0.3,0.02-0.43,0.08l0,0c-0.54,0.2-0.92,0.82-1.06,1.73
			c-0.16,1.01,0,2.23,0.45,3.43c0.45,1.2,1.13,2.23,1.91,2.89c0.7,0.59,1.39,0.81,1.93,0.61c0.54-0.2,0.92-0.82,1.06-1.73
			c0.16-1.01,0-2.23-0.45-3.43C64.05,137.34,62.58,135.84,61.41,135.84z M60.8,135.45L60.8,135.45L60.8,135.45z"></path><path class="st0" d="M73.6,145.65c-0.7,0-1.44-0.31-2.15-0.92c-0.91-0.77-1.69-1.94-2.2-3.3c-1.1-2.95-0.58-5.78,1.2-6.45l0,0
			c1.77-0.66,4.03,1.13,5.13,4.08c0.51,1.36,0.69,2.76,0.5,3.94c-0.2,1.28-0.81,2.17-1.7,2.51C74.13,145.6,73.87,145.65,73.6,145.65
			z M70.8,135.92L70.8,135.92c-1.21,0.45-1.49,2.81-0.61,5.16c0.45,1.2,1.13,2.23,1.91,2.89c0.7,0.59,1.39,0.81,1.93,0.61
			c0.54-0.2,0.92-0.82,1.06-1.73c0.16-1.01,0-2.23-0.45-3.43C73.77,137.07,72.01,135.47,70.8,135.92z"></path><path class="st0" d="M83.6,145.65c-0.7,0-1.44-0.31-2.15-0.92c-0.91-0.77-1.69-1.94-2.2-3.3c-1.1-2.95-0.57-5.78,1.2-6.45l0,0
			c1.77-0.66,4.03,1.13,5.13,4.08c0.51,1.36,0.69,2.76,0.5,3.94c-0.2,1.28-0.8,2.17-1.7,2.51C84.13,145.6,83.87,145.65,83.6,145.65z
			 M80.8,135.92L80.8,135.92c-1.21,0.45-1.49,2.81-0.61,5.16c0.45,1.2,1.13,2.23,1.91,2.89c0.7,0.59,1.39,0.81,1.94,0.61
			c0.54-0.2,0.92-0.82,1.06-1.73c0.16-1.01,0-2.23-0.45-3.43C83.77,137.07,82.01,135.47,80.8,135.92z"></path><path class="st0" d="M186,122.98c-1.72,0-3.12-1.4-3.12-3.12s1.4-3.12,3.12-3.12s3.12,1.4,3.12,3.12S187.72,122.98,186,122.98z
			 M186,117.74c-1.17,0-2.12,0.95-2.12,2.12s0.95,2.12,2.12,2.12s2.12-0.95,2.12-2.12S187.16,117.74,186,117.74z"></path><path class="st0" d="M459.17,427.86H177.15c-0.16,0-0.31-0.08-0.41-0.21L71.29,281.74c-0.04-0.06-0.07-0.13-0.09-0.2l-32.55-171
			c-0.03-0.15,0.01-0.3,0.11-0.41c0.1-0.11,0.24-0.18,0.39-0.18h4.03c0.28,0,0.5,0.22,0.5,0.5s-0.22,0.5-0.5,0.5h-3.43l32.42,170.3
			l105.25,145.61h281.41l1.24-3.46c0.09-0.26,0.38-0.39,0.64-0.3c0.26,0.09,0.39,0.38,0.3,0.64l-1.36,3.79
			C459.57,427.73,459.39,427.86,459.17,427.86z"></path></g><g id="line-2"><path class="st4" d="M184.68,215.04c-0.36,0-0.71-0.13-1-0.38l-35.59-31.82c-0.62-0.55-0.67-1.5-0.12-2.12
			c0.55-0.62,1.5-0.67,2.12-0.12l35.59,31.82c0.62,0.55,0.67,1.5,0.12,2.12C185.51,214.87,185.1,215.04,184.68,215.04z"></path><path class="st4" d="M149.91,218.35c-0.33,0-0.66-0.11-0.94-0.33c-0.64-0.52-0.75-1.46-0.22-2.11l30.19-37.38
			c0.52-0.65,1.47-0.75,2.11-0.22c0.64,0.52,0.75,1.46,0.22,2.11l-30.19,37.38C150.79,218.16,150.35,218.35,149.91,218.35z"></path><path class="st4" d="M257.75,216.55c-0.39,0-0.78-0.15-1.07-0.45l-34.51-35.4c-0.58-0.59-0.57-1.54,0.03-2.12
			c0.59-0.58,1.54-0.57,2.12,0.03l34.51,35.4c0.58,0.59,0.57,1.54-0.03,2.12C258.51,216.41,258.13,216.55,257.75,216.55z"></path><path class="st4" d="M225.75,214.4c-0.3,0-0.61-0.09-0.88-0.29c-0.67-0.49-0.82-1.42-0.33-2.09l26.96-37.21
			c0.49-0.67,1.43-0.82,2.09-0.33c0.67,0.49,0.82,1.42,0.33,2.09l-26.96,37.21C226.68,214.19,226.22,214.4,225.75,214.4z"></path><path class="st4" d="M167.66,247.35c-0.45,0-0.89-0.2-1.18-0.58c-0.51-0.65-0.39-1.6,0.26-2.11
			c11.33-8.84,25.49-13.94,39.86-14.36c14.37-0.42,28.8,3.84,40.64,12c0.68,0.47,0.85,1.4,0.38,2.09c-0.47,0.68-1.4,0.85-2.09,0.38
			c-11.32-7.8-25.12-11.88-38.84-11.48c-13.74,0.4-27.27,5.27-38.1,13.72C168.3,247.25,167.98,247.35,167.66,247.35z"></path></g></g><g id="notice"><g id="colors_1_"><path class="st4" d="M279.39,174.23h181.47L440.61,72.49H337.27l15.63,85.05C352.9,157.54,280.46,173.88,279.39,174.23z"></path><polygon class="st4" points="303.32,190.24 444.1,190.24 460.7,277.43 371.14,277.43 371.14,278.48 357.18,206.05 		"></polygon></g><g id="line"><path class="st2" d="M363.92,111.15c-0.41,0-0.8-0.26-0.94-0.66c-2.36-6.63-4.34-14.08-5.41-20.45c-0.04-0.22,0-0.44,0.1-0.63
			c1.37-2.63,4.33-4.33,7.25-4.23c1.34,0.05,2.37,0.51,2.96,1.33c0.34,0.47,0.53,1.06,0.58,1.79c0.14,1.92-0.68,3.89-2.5,6.01
			c-0.4,0.46-0.81,0.9-1.23,1.34c-0.94,0.99-1.82,1.93-2.44,3.02c-0.15,0.27-0.41,0.44-0.7,0.49c0.94,3.59,2.05,7.23,3.27,10.65
			c0.18,0.52-0.09,1.09-0.61,1.28C364.14,111.13,364.03,111.15,363.92,111.15z M359.59,90.05c0.38,2.19,0.87,4.51,1.44,6.87
			c0.67-0.97,1.47-1.82,2.25-2.64c0.39-0.42,0.79-0.84,1.17-1.27c1.43-1.67,2.12-3.21,2.02-4.56c-0.03-0.43-0.13-0.65-0.2-0.76
			c-0.22-0.3-0.73-0.48-1.42-0.51C362.75,87.1,360.66,88.27,359.59,90.05z"></path><path class="st2" d="M373.58,107.79c-1.24,0-2.47-0.84-3.07-2.12c-0.52-1.12-0.53-2.35-0.46-3.41c0.12-1.83,0.44-3.26,1.03-4.51
			c0.77-1.64,2-2.87,3.46-3.47c0.51-0.21,1.09,0.03,1.3,0.55c0.21,0.51-0.04,1.1-0.55,1.3c-1,0.41-1.85,1.29-2.41,2.47
			c-0.48,1.01-0.75,2.21-0.85,3.78c-0.05,0.85-0.05,1.73,0.28,2.44c0.28,0.6,0.86,1.01,1.33,0.96c0.3-0.03,0.63-0.21,1.01-0.41
			c0.41-0.22,0.88-0.48,1.44-0.59c0.54-0.11,1.07,0.23,1.19,0.77s-0.23,1.07-0.77,1.19c-0.27,0.06-0.58,0.22-0.9,0.4
			c-0.5,0.27-1.06,0.57-1.76,0.64C373.76,107.78,373.67,107.79,373.58,107.79z"></path><path class="st2" d="M385.79,103.82c-0.61,0-1.23-0.18-1.77-0.53c-0.85-0.56-1.47-1.5-1.75-2.67c-0.45-1.86,0.03-3.94,1.26-5.42
			c1.23-1.48,3.17-2.32,5.11-2.2c0.55,0.03,0.97,0.51,0.94,1.06c-0.04,0.55-0.49,0.98-1.06,0.94c-1.3-0.08-2.62,0.49-3.45,1.48
			c-0.83,1-1.16,2.41-0.86,3.67c0.09,0.39,0.34,1.1,0.91,1.47c0.38,0.25,0.91,0.27,1.18,0.05c0.43-0.35,1.06-0.28,1.41,0.15
			c0.35,0.43,0.28,1.06-0.15,1.41C387.07,103.62,386.44,103.82,385.79,103.82z"></path><path class="st2" d="M379.33,107.14c-0.04,0-0.09,0-0.13-0.01c-1-0.13-1.95-0.79-2.55-1.77c-0.49-0.79-0.72-1.69-0.89-2.47
			c-0.58-2.54-0.92-5.2-1-7.91c-0.02-0.55,0.42-1.01,0.97-1.03c0.55-0.01,1.01,0.42,1.03,0.97c0.08,2.58,0.4,5.11,0.95,7.53
			c0.15,0.66,0.32,1.34,0.65,1.87c0.28,0.46,0.71,0.78,1.11,0.83c0.55,0.07,0.93,0.57,0.86,1.12
			C380.25,106.77,379.82,107.14,379.33,107.14z"></path><path class="st2" d="M386.86,111.87c-0.27,0-0.55-0.03-0.82-0.1c-0.54-0.13-0.86-0.68-0.73-1.21c0.13-0.54,0.68-0.86,1.21-0.73
			c0.91,0.23,1.91-0.54,2.33-1.39c0.54-1.12,0.5-2.48,0.38-3.67c-0.1-1.12-0.28-2.26-0.45-3.37c-0.37-2.41-0.76-4.91-0.47-7.43
			c0.06-0.55,0.56-0.94,1.11-0.88c0.55,0.06,0.94,0.56,0.88,1.11c-0.26,2.26,0.09,4.51,0.46,6.9c0.18,1.14,0.36,2.31,0.47,3.48
			c0.13,1.38,0.19,3.16-0.58,4.74C389.99,110.66,388.52,111.87,386.86,111.87z"></path><path class="st2" d="M398.77,103.59c-0.18,0-0.35-0.01-0.53-0.03c-1.97-0.24-3.69-1.96-4.1-4.09c-0.33-1.68,0.08-3.6,1.18-5.41
			c0.96-1.6,2.2-2.46,3.61-2.42c0.62,0.01,1.19,0.24,1.61,0.43c0.35,0.17,0.7,0.36,1,0.69c0.68,0.77,0.73,1.97,0.12,2.92
			c-0.49,0.76-1.25,1.18-1.86,1.46c-1.12,0.51-2.3,0.81-3.5,0.9c-0.09,0.01-0.17,0-0.25-0.01c-0.02,0.36,0,0.72,0.07,1.05
			c0.25,1.29,1.27,2.36,2.37,2.49c0.61,0.07,1.28-0.1,1.86-0.28c1.23-0.38,2.44-0.91,3.59-1.57c0.48-0.27,1.09-0.11,1.37,0.37
			s0.11,1.09-0.37,1.37c-1.28,0.73-2.62,1.32-3.99,1.75C400.29,103.4,399.56,103.59,398.77,103.59z M398.84,93.64
			c-0.86,0-1.6,1.11-1.8,1.46c-0.19,0.31-0.34,0.61-0.48,0.92c0.82-0.1,1.63-0.33,2.4-0.68c0.33-0.15,0.8-0.4,1.01-0.73
			c0.13-0.21,0.12-0.44,0.07-0.5c-0.07-0.08-0.27-0.17-0.36-0.21c-0.23-0.11-0.54-0.24-0.81-0.24
			C398.86,93.64,398.85,93.64,398.84,93.64z"></path><path class="st2" d="M385.54,131.52c-0.03,0-0.06,0-0.09,0c-0.55-0.05-0.95-0.54-0.9-1.09c0.44-4.71,1.11-10.3,2.72-16.09
			c0.11-0.41,0.47-0.7,0.9-0.73c0.44-0.03,0.82,0.22,0.99,0.61c1.56,3.7,3.12,7.4,4.68,11.11c0.15,0.36,0.3,0.71,0.46,1.06
			c0.43-3.52,0.88-6.93,1.33-10.19c0.14-1.03,0.3-2.2,0.83-3.28c0.24-0.5,0.84-0.7,1.34-0.46c0.5,0.24,0.7,0.84,0.46,1.34
			c-0.39,0.8-0.52,1.75-0.65,2.68c-0.57,4.1-1.13,8.45-1.66,12.93c-0.05,0.39-0.31,0.71-0.68,0.83c-0.37,0.12-0.78,0.02-1.04-0.27
			c-1.09-1.18-1.66-2.53-2.22-3.84c-1.18-2.81-2.36-5.6-3.53-8.39c-1.05,4.55-1.55,8.85-1.93,12.87
			C386.48,131.13,386.05,131.52,385.54,131.52z"></path><path class="st2" d="M403.74,128.13c-0.86,0-1.74-0.38-2.39-1.07c-0.62-0.65-1.03-1.54-1.21-2.62c-0.42-2.42,0.43-4.89,2.18-6.3
			c0,0,0,0,0,0c1.08-0.86,2.08-0.91,2.74-0.8c1.55,0.26,2.49,1.57,2.74,1.97c0.72,1.13,0.9,2.61,0.5,4.06
			c-0.3,1.1-0.92,2.18-1.89,3.29c-0.45,0.52-1.08,1.15-1.97,1.38C404.21,128.1,403.98,128.13,403.74,128.13z M403.57,119.7
			c-1.17,0.94-1.75,2.71-1.46,4.4c0.12,0.69,0.35,1.22,0.69,1.58c0.32,0.34,0.79,0.51,1.12,0.42c0.36-0.1,0.71-0.46,0.97-0.76
			c0.77-0.88,1.25-1.7,1.47-2.51c0.25-0.89,0.15-1.81-0.26-2.46c-0.29-0.46-0.83-0.97-1.38-1.06
			C404.36,119.25,403.98,119.38,403.57,119.7z"></path><path class="st2" d="M414.99,126.17c-0.28,0-0.57-0.04-0.86-0.15c-0.76-0.26-1.4-0.95-1.69-1.84c-0.22-0.7-0.22-1.4-0.2-2
			c0.1-3.08,0.72-6.07,1.46-9.38c0.12-0.54,0.66-0.88,1.19-0.76c0.54,0.12,0.88,0.66,0.76,1.19c-0.72,3.21-1.32,6.1-1.42,9.01
			c-0.02,0.46-0.02,0.93,0.1,1.32c0.09,0.28,0.27,0.51,0.44,0.57c0.36,0.13,1.02-0.2,1.38-0.37c0.49-0.24,1.1-0.04,1.34,0.46
			s0.04,1.09-0.46,1.34C416.55,125.8,415.81,126.17,414.99,126.17z"></path><path class="st2" d="M419.25,117.3c0,0-0.01,0-0.02,0l-9.65-0.15c-0.55-0.01-0.99-0.46-0.98-1.02c0.01-0.55,0.51-1,1.02-0.98
			l9.65,0.15c0.55,0.01,0.99,0.46,0.98,1.02C420.25,116.86,419.8,117.3,419.25,117.3z"></path><path class="st2" d="M369.1,142.34c-0.46,0-0.88-0.33-0.98-0.8c-0.11-0.54,0.24-1.07,0.78-1.18c4.83-0.99,9.72-2.21,14.52-3.6
			c0.54-0.15,1.09,0.15,1.24,0.68c0.15,0.53-0.15,1.08-0.68,1.24c-4.86,1.41-9.79,2.63-14.68,3.64
			C369.24,142.33,369.17,142.34,369.1,142.34z"></path><path class="st2" d="M369.06,157.54c-0.03,0-0.06,0-0.09,0c-0.55-0.05-0.96-0.54-0.91-1.09c0.48-5.33,1.22-10.61,2.19-15.72
			c0.1-0.54,0.63-0.9,1.17-0.79s0.9,0.63,0.79,1.17c-0.97,5.04-1.69,10.26-2.17,15.52C370,157.15,369.57,157.54,369.06,157.54z"></path><path class="st2" d="M369.85,148.99c-0.46,0-0.88-0.32-0.98-0.8c-0.11-0.54,0.23-1.07,0.77-1.18c2.55-0.53,5.1-0.88,7.58-1.04
			c0.55-0.05,1.03,0.38,1.06,0.93c0.04,0.55-0.38,1.03-0.93,1.06c-2.39,0.15-4.84,0.49-7.3,1
			C369.99,148.98,369.92,148.99,369.85,148.99z"></path><path class="st2" d="M382.1,158.21c-0.96,0-1.84-0.4-2.36-1.1c-0.67-0.91-0.59-2.03-0.47-2.8c0.28-1.86,0.91-3.39,1.86-4.54
			c1.22-1.48,3.03-2.31,4.73-2.14l0,0c1.13,0.11,2.02,0.65,2.56,1.57c0.8,1.37,0.62,3.24,0.1,4.4c-0.8,1.81-2.5,2.98-3.71,3.69
			c-0.65,0.38-1.41,0.79-2.3,0.89C382.37,158.2,382.24,158.21,382.1,158.21z M385.43,149.6c-0.98,0-2.01,0.53-2.75,1.43
			c-0.72,0.87-1.2,2.07-1.42,3.57c-0.1,0.65-0.07,1.08,0.1,1.31c0.16,0.21,0.54,0.33,0.93,0.28c0.51-0.06,1.05-0.36,1.52-0.63
			c0.97-0.57,2.33-1.49,2.9-2.78c0.31-0.71,0.4-1.89,0-2.58c-0.21-0.36-0.53-0.54-1.02-0.59c0,0,0,0,0,0
			C385.6,149.61,385.51,149.6,385.43,149.6z"></path><path class="st2" d="M392.85,158.13c-0.19,0-0.37-0.01-0.55-0.04c-0.69-0.11-1.24-0.4-1.61-0.83c-0.65-0.75-0.61-1.75-0.59-2.23
			c0.09-2.5,0.62-4.96,1.56-7.3c0.21-0.51,0.79-0.76,1.3-0.55c0.51,0.21,0.76,0.79,0.55,1.3c-0.86,2.13-1.33,4.35-1.42,6.62
			c-0.01,0.17-0.02,0.69,0.11,0.85c0.04,0.05,0.17,0.12,0.4,0.15c0.57,0.09,1.26-0.14,1.85-0.6c0.53-0.41,1-1,1.54-1.9
			c0.68-1.16,1.25-2.4,1.75-3.86c0.09-0.31,0.2-0.62,0.3-0.93c0.18-0.51,0.73-0.79,1.26-0.62c0.52,0.17,0.8,0.73,0.64,1.25
			c-0.1,0.32-0.2,0.62-0.3,0.92c-0.64,2.12-0.96,4.31-0.95,6.54c0,0.55-0.44,1-1,1c0,0,0,0,0,0c-0.55,0-1-0.44-1-1
			c0-0.27,0-0.55,0.01-0.82c-0.29,0.35-0.63,0.69-1.01,1C394.83,157.76,393.82,158.13,392.85,158.13z"></path><path class="st2" d="M411.05,156.42c-0.02,0-0.05,0-0.07,0c-0.64-0.05-1.52-0.11-2.2-0.73c-0.66-0.61-0.83-1.45-0.89-2.03
			c-0.11-0.87-0.09-1.74-0.08-2.58c0.02-1.11,0.04-2.16-0.22-3.13c-0.15-0.57-0.51-1.2-0.94-1.24c-0.36-0.04-0.83,0.38-1.24,1.06
			c-1.31,2.21-1.62,5.02-1.9,7.5c-0.06,0.55-0.53,0.95-1.1,0.88c-0.55-0.06-0.94-0.56-0.88-1.1c0.3-2.68,0.63-5.72,2.16-8.3
			c0.85-1.43,1.97-2.15,3.15-2.04c1.47,0.14,2.35,1.49,2.68,2.71c0.34,1.25,0.31,2.49,0.29,3.69c-0.01,0.81-0.03,1.57,0.06,2.31
			c0.05,0.41,0.13,0.67,0.26,0.79c0.16,0.15,0.64,0.18,0.99,0.21c0.55,0.04,0.97,0.52,0.93,1.07
			C412,156.02,411.57,156.42,411.05,156.42z"></path><path class="st2" d="M416.85,155.94c-0.22,0-0.45-0.02-0.69-0.1c-1.05-0.33-1.67-1.43-1.63-2.87c0.06-1.89,0.9-3.83,2.57-5.93
			c0.58-0.73,1.3-1.55,2.27-2.12c1.15-0.67,2.42-0.83,3.51-0.42c0.52,0.19,0.78,0.77,0.59,1.29c-0.19,0.52-0.77,0.78-1.29,0.59
			c-0.51-0.19-1.18-0.09-1.79,0.27c-0.68,0.4-1.23,1.02-1.71,1.64c-1.39,1.75-2.09,3.31-2.13,4.75c-0.01,0.53,0.15,0.88,0.24,0.91
			c0.07,0.02,0.31-0.01,0.45-0.03c1.41-0.22,2.8-0.59,4.13-1.1c0.52-0.2,1.09,0.06,1.29,0.57c0.2,0.52-0.06,1.09-0.57,1.29
			c-1.46,0.56-3,0.97-4.57,1.22C417.31,155.91,417.09,155.94,416.85,155.94z"></path><path class="st2" d="M423.8,155.61c-0.09,0-0.18-0.01-0.27-0.04c-0.97-0.27-1.77-1.09-2.13-2.19c-0.28-0.85-0.28-1.71-0.26-2.52
			c0.13-5.78,1.05-11.53,2.73-17.08c0.16-0.53,0.72-0.83,1.25-0.67c0.53,0.16,0.83,0.72,0.67,1.25c-1.63,5.38-2.52,10.95-2.65,16.55
			c-0.02,0.66-0.02,1.3,0.16,1.85c0.15,0.45,0.45,0.8,0.77,0.89c0.53,0.15,0.84,0.7,0.69,1.23
			C424.63,155.32,424.23,155.61,423.8,155.61z"></path><path class="st2" d="M435.67,147.69c-0.06,0-0.13-0.01-0.2-0.02c-0.54-0.11-0.89-0.63-0.79-1.18c1.06-5.35,2.42-10.71,4.04-15.93
			c0.16-0.53,0.72-0.82,1.25-0.66c0.53,0.16,0.82,0.72,0.66,1.25c-1.6,5.16-2.94,10.45-3.98,15.73
			C436.55,147.36,436.13,147.69,435.67,147.69z"></path><path class="st2" d="M434.49,156.48c-0.02,0-0.03,0-0.05,0c-0.55-0.02-0.98-0.49-0.95-1.04c0.05-1.04,0.3-2.08,0.75-3
			c0.24-0.5,0.84-0.7,1.33-0.47c0.5,0.24,0.71,0.84,0.47,1.33c-0.33,0.68-0.52,1.45-0.55,2.22
			C435.46,156.06,435.02,156.48,434.49,156.48z"></path><path class="st2" d="M387.29,243.84c-0.07,0-0.13-0.01-0.2-0.02c-0.54-0.11-0.89-0.64-0.78-1.18l1.11-5.46h-11.39
			c-0.4,0-0.77-0.24-0.92-0.61c-0.16-0.37-0.07-0.8,0.21-1.09l15.92-16.22c0.31-0.32,0.79-0.39,1.18-0.18
			c0.39,0.21,0.6,0.65,0.51,1.08l-3.06,15.02h3.36c0.55,0,1,0.45,1,1s-0.45,1-1,1h-3.77l-1.19,5.86
			C388.17,243.51,387.75,243.84,387.29,243.84z M378.41,235.18h9.42l2.47-12.11L378.41,235.18z"></path><path class="st2" d="M432.29,243.84c-0.07,0-0.13-0.01-0.2-0.02c-0.54-0.11-0.89-0.64-0.78-1.18l1.11-5.46h-11.39
			c-0.4,0-0.77-0.24-0.92-0.61c-0.16-0.37-0.07-0.8,0.21-1.09l15.92-16.22c0.31-0.32,0.79-0.39,1.18-0.18
			c0.39,0.21,0.6,0.65,0.51,1.08l-3.06,15.02h3.36c0.55,0,1,0.45,1,1s-0.45,1-1,1h-3.77l-1.19,5.86
			C433.17,243.51,432.75,243.84,432.29,243.84z M423.41,235.18h9.42l2.47-12.11L423.41,235.18z"></path><path class="st2" d="M404.42,244.2c-0.75,0-1.46-0.16-2.12-0.48c-1.94-0.96-3.04-3.2-3.1-6.3c-0.06-2.87,0.79-6.21,2.37-9.4l0,0
			c3.42-6.9,9.11-10.82,12.94-8.92c1.94,0.96,3.04,3.2,3.1,6.3c0.06,2.87-0.79,6.21-2.37,9.4c-1.58,3.19-3.73,5.88-6.05,7.57
			C407.54,243.58,405.9,244.2,404.42,244.2z M403.37,228.9L403.37,228.9c-1.44,2.91-2.21,5.92-2.16,8.47
			c0.04,2.29,0.77,3.95,1.99,4.55c1.22,0.6,2.98,0.18,4.82-1.17c2.06-1.51,3.99-3.94,5.44-6.84c1.44-2.91,2.21-5.92,2.16-8.47
			c-0.04-2.29-0.77-3.95-1.99-4.55C410.89,219.53,406.2,223.2,403.37,228.9z"></path></g></g></svg>