<svg xmlns="http://www.w3.org/2000/svg" viewBox="0 0 500 500"><g id="freepik--background-complete--inject-65"><path d="M458.24,283.08H309.55V64.82H458.24Zm-144.69-4H454.24V68.82H313.55Z" style="fill:#ebebeb"></path><rect x="381.84" y="69.87" width="4" height="211.21" style="fill:#ebebeb"></rect><rect x="305.92" y="72.91" width="155.95" height="5.57" style="fill:#ebebeb"></rect><rect x="305.92" y="79.18" width="155.95" height="5.57" style="fill:#ebebeb"></rect><rect x="305.92" y="85.44" width="155.95" height="5.57" style="fill:#ebebeb"></rect><rect x="305.92" y="91.71" width="155.95" height="5.57" style="fill:#ebebeb"></rect><rect x="305.92" y="97.98" width="155.95" height="5.57" style="fill:#ebebeb"></rect><rect x="305.92" y="104.24" width="155.95" height="5.57" style="fill:#ebebeb"></rect><rect x="305.92" y="110.51" width="155.95" height="5.57" style="fill:#ebebeb"></rect><rect x="305.92" y="116.77" width="155.95" height="5.57" style="fill:#ebebeb"></rect><rect x="305.92" y="123.04" width="155.95" height="5.57" style="fill:#ebebeb"></rect><rect x="448.99" y="71.78" width="1" height="128.39" style="fill:#263238"></rect><polygon points="451.26 204.82 447.71 204.82 448.61 199.73 450.38 199.73 451.26 204.82" style="fill:#263238"></polygon><rect x="452.59" y="71.78" width="1" height="175.73" style="fill:#263238"></rect><polygon points="454.87 251.26 451.32 251.26 452.21 246.16 453.98 246.16 454.87 251.26" style="fill:#263238"></polygon><rect x="299.71" y="64.04" width="168.36" height="11.65" style="fill:#dbdbdb"></rect><rect x="53.79" y="64.09" width="81.91" height="99.36" style="fill:#ebebeb"></rect><rect x="63.15" y="73.15" width="63.19" height="81.22" style="fill:#fff"></rect><rect x="63.15" y="73.15" width="2.47" height="81.22" style="fill:#dbdbdb"></rect><rect x="135.7" y="64.09" width="2.47" height="99.36" style="fill:#dbdbdb"></rect><rect x="84.32" y="84.35" width="14.9" height="44.39" style="fill:#dbdbdb"></rect><path d="M118.05,136.83H77.32V114.08h40.73Zm-39.73-1h38.73V115.08H78.32Z" style="fill:#ebebeb"></path><rect x="159.15" y="169.07" width="81.91" height="99.36" style="fill:#ebebeb"></rect><rect x="168.51" y="178.14" width="63.19" height="81.22" style="fill:#fff"></rect><rect x="168.51" y="178.14" width="2.47" height="81.22" style="fill:#dbdbdb"></rect><rect x="241.07" y="169.07" width="2.47" height="99.36" style="fill:#dbdbdb"></rect><rect x="193.99" y="199.13" width="12.77" height="32.28" style="fill:#ebebeb"></rect><path d="M220.7,241.5H185.4V218.25h35.3Zm-34.3-1h33.3V219.25H186.4Z" style="fill:#dbdbdb"></path></g><g id="freepik--Desk--inject-65"><polygon points="30.76 422.76 85.57 422.52 140.38 422.43 250 422.27 359.62 422.43 414.43 422.52 469.24 422.76 414.43 423.01 359.62 423.1 250 423.26 140.38 423.1 85.57 423.01 30.76 422.76" style="fill:#263238"></polygon></g><g id="freepik--Gears--inject-65"><path d="M472.38,322.39l-5.64-9.48.2,0-3.06,1.82A2.84,2.84,0,0,1,462,315a2.8,2.8,0,0,1-.88-.35l-.77-.43-.77-.43a2.84,2.84,0,0,1-.76-.58,2.87,2.87,0,0,1-.78-1.75l0-3.56.29.29-11,.08.37-.37,0,3.57A3.07,3.07,0,0,1,446.1,314l-.76.44-.75.44a2.93,2.93,0,0,1-.95.39,3,3,0,0,1-2-.23l-3.1-1.77.6-.16-5.48,9.56-.17-.64,3.09,1.79a3,3,0,0,1,1.23,1.65,3,3,0,0,1,.14,1l0,.88,0,.87a3.25,3.25,0,0,1-.14,1,3,3,0,0,1-1.23,1.66l-3.09,1.8.19-.68,5.48,9.56-.65-.17,3.11-1.77a3,3,0,0,1,2-.24,3.37,3.37,0,0,1,1,.4l.75.44.75.43a3,3,0,0,1,.82.64,3.06,3.06,0,0,1,.81,1.87v3.57l-.44-.44,11,0-.39.39,0-3.57a3,3,0,0,1,.8-1.81,2.85,2.85,0,0,1,.79-.6l.76-.44.77-.43a3,3,0,0,1,.92-.37,2.91,2.91,0,0,1,1.94.24l3.07,1.79-.4.11,5.61-9.49.06.25-3-1.82a2.73,2.73,0,0,1-1.06-1.48,5.7,5.7,0,0,1-.07-1.79,5.37,5.37,0,0,1,.12-1.78,2.62,2.62,0,0,1,1.07-1.42Zm0,0-3,1.81a2.55,2.55,0,0,0-1,1.38,5.3,5.3,0,0,0-.07,1.74,5.8,5.8,0,0,0,.11,1.73,2.43,2.43,0,0,0,1,1.31l3.08,1.73.16.09-.1.16-5.41,9.6-.14.26-.26-.15-3.07-1.73a2.24,2.24,0,0,0-1.51-.16,2.11,2.11,0,0,0-.71.3l-.77.45-.77.46a2.16,2.16,0,0,0-.61.47,2.26,2.26,0,0,0-.58,1.37l0,3.52v.4h-.4l-11,0h-.44v-.44l0-3.51a2.17,2.17,0,0,0-.57-1.32,2.12,2.12,0,0,0-.59-.44l-.78-.45-.77-.45a2.15,2.15,0,0,0-2.1-.11l-3,1.76-.41.24-.24-.41-5.53-9.54-.25-.43.43-.25,3.05-1.76a2.05,2.05,0,0,0,.84-1.12,2.5,2.5,0,0,0,.1-.72l0-.9,0-.9a2.19,2.19,0,0,0-.09-.72,2.06,2.06,0,0,0-.84-1.14l-3-1.77-.4-.23.23-.41,5.53-9.53.22-.38.38.22,3,1.76a2.17,2.17,0,0,0,1.44.17,2.09,2.09,0,0,0,.69-.28l.78-.45.78-.44a2.42,2.42,0,0,0,.6-.45,2.21,2.21,0,0,0,.59-1.34l0-3.52v-.38h.37l11,.08h.3v.29l0,3.52a2.3,2.3,0,0,0,.62,1.44,2.36,2.36,0,0,0,.63.5l.76.45.77.46a2.27,2.27,0,0,0,.75.32,2.36,2.36,0,0,0,1.59-.16l3.09-1.72.12-.07.07.12Z" style="fill:#263238"></path><path d="M461.84,327.32A9.28,9.28,0,0,1,446.12,334a9.28,9.28,0,0,1,6.69-16,9.27,9.27,0,0,1,9,9.28Zm0,0a8.76,8.76,0,0,0-9-8.78,8.78,8.78,0,1,0,9,8.78Z" style="fill:#263238"></path><path d="M74.15,271.4l-5.63-9.47.19.05-3.06,1.81a2.85,2.85,0,0,1-2.74-.12l-.77-.43-.76-.43a2.74,2.74,0,0,1-.77-.58,2.87,2.87,0,0,1-.78-1.75l0-3.56.29.29-11,.08.37-.37,0,3.57a3,3,0,0,1-.79,1.85,3.19,3.19,0,0,1-.8.62l-.76.44-.75.44a2.93,2.93,0,0,1-1,.39,3,3,0,0,1-2-.22l-3.1-1.78.6-.16-5.48,9.56-.17-.63,3.09,1.78a3.07,3.07,0,0,1,1.23,1.65,3,3,0,0,1,.14,1l0,.87,0,.88a3.32,3.32,0,0,1-.14,1,3.09,3.09,0,0,1-1.23,1.66l-3.09,1.8.19-.68,5.48,9.56-.65-.18,3.11-1.77a3,3,0,0,1,2-.23,3.08,3.08,0,0,1,1,.39l.75.44.75.44a2.81,2.81,0,0,1,.82.63,3,3,0,0,1,.81,1.87v3.57l-.44-.43,11,0-.39.39,0-3.56a3,3,0,0,1,.8-1.82,3.3,3.3,0,0,1,.79-.6l.76-.43.77-.44a3,3,0,0,1,2.86-.13l3.07,1.8-.4.11,5.61-9.5.06.25-3-1.81a2.73,2.73,0,0,1-1.06-1.48,5.77,5.77,0,0,1-.07-1.8,5.39,5.39,0,0,1,.12-1.78,2.6,2.6,0,0,1,1.07-1.41Zm0,0-3,1.81a2.55,2.55,0,0,0-1,1.38,5.33,5.33,0,0,0-.07,1.74,5.8,5.8,0,0,0,.11,1.73,2.49,2.49,0,0,0,1,1.32l3.08,1.73.16.09-.1.16L68.89,291l-.14.25-.26-.14-3.07-1.74a2.3,2.3,0,0,0-1.51-.16,2.34,2.34,0,0,0-.71.3l-.77.45-.77.46a2.16,2.16,0,0,0-.61.47,2.29,2.29,0,0,0-.58,1.38l0,3.51v.4h-.4l-11,0h-.44v-.45l0-3.51a2.12,2.12,0,0,0-.57-1.31,2.37,2.37,0,0,0-.59-.45l-.78-.45-.77-.45a2.1,2.1,0,0,0-.68-.27,2.16,2.16,0,0,0-1.42.16l-3,1.76-.41.24-.24-.41-5.53-9.53-.25-.44.43-.25,3.05-1.75a2.08,2.08,0,0,0,.84-1.13,2.5,2.5,0,0,0,.1-.72l0-.9,0-.9a2.19,2.19,0,0,0-.09-.72,2.14,2.14,0,0,0-.84-1.14l-3-1.77-.4-.23.23-.4,5.53-9.53.22-.39.38.22,3,1.77a2.23,2.23,0,0,0,1.44.16,2.09,2.09,0,0,0,.69-.28l.78-.45.78-.44a2.42,2.42,0,0,0,.6-.45,2.16,2.16,0,0,0,.59-1.34l0-3.52v-.37h.37l11,.08h.3v.29l0,3.53a2.32,2.32,0,0,0,.62,1.44,2.54,2.54,0,0,0,.63.49l.76.46.77.45a2.27,2.27,0,0,0,.75.32,2.3,2.3,0,0,0,1.59-.16l3.09-1.72.12-.07.07.12Z" style="fill:#263238"></path><path d="M63.61,276.33A9.29,9.29,0,1,1,61,269.9,9.31,9.31,0,0,1,63.61,276.33Zm0,0a8.78,8.78,0,0,0-17.56,0,8.78,8.78,0,1,0,17.56,0Z" style="fill:#263238"></path><path d="M67.48,216.72a4.89,4.89,0,0,1,3.58,3.64c.12.48.25,1,.4,1.45s.31,1,.47,1.45a4.83,4.83,0,0,1-1,5l-4.3,4.58,14.9,14,4.33-4.6A4.83,4.83,0,0,1,90.81,241a28.44,28.44,0,0,0,2.9.69A4.9,4.9,0,0,1,97.58,245l1.81,6L119,245.09l-1.81-6a4.92,4.92,0,0,1,1.36-4.95c.72-.7,1.4-1.42,2-2.18a4.83,4.83,0,0,1,4.79-1.66l6.16,1.44,4.66-19.91L130,210.4a4.81,4.81,0,0,1-3.54-3.54q-.19-.77-.42-1.53c-.15-.51-.32-1-.5-1.51a4.78,4.78,0,0,1,1-4.93l4.3-4.57-14.9-14-4.28,4.57a4.81,4.81,0,0,1-4.84,1.33,26.5,26.5,0,0,0-3.17-.74,4.77,4.77,0,0,1-3.72-3.35l-1.81-6L78.57,182l1.81,6A4.91,4.91,0,0,1,79,193a28,28,0,0,0-2,2.18,4.86,4.86,0,0,1-4.81,1.66L66,195.39l-4.67,19.9Zm24.39-18.43a16.75,16.75,0,1,1-9.63,18A16.77,16.77,0,0,1,91.87,198.29Z" style="fill:#455a64"></path></g><g id="freepik--Calendar--inject-65"><polygon points="467.95 422.69 400.78 422.69 389.04 373.94 456.21 373.94 467.95 422.69" style="fill:#a6a6a6"></polygon><polygon points="377.11 422.69 444.28 422.69 456.01 373.94 388.84 373.94 377.11 422.69" style="fill:#dbdbdb"></polygon><polygon points="446.27 383.1 444.78 389.33 444.69 389.71 443.14 396.18 443.05 396.56 441.5 403.02 441.4 403.4 439.85 409.87 439.76 410.25 438.24 416.59 388.93 416.59 390.44 410.25 390.54 409.87 392.09 403.4 392.18 403.02 393.73 396.56 393.83 396.18 395.38 389.71 395.47 389.33 396.96 383.1 446.27 383.1" style="fill:#fff"></polygon><polygon points="404.19 383.1 402.69 389.33 402.6 389.71 401.05 396.18 400.96 396.56 399.41 403.02 399.32 403.4 397.76 409.87 397.67 410.25 396.15 416.59 395.76 416.59 397.28 410.25 397.37 409.87 398.92 403.4 399.01 403.02 400.56 396.56 400.65 396.18 402.21 389.71 402.3 389.33 403.79 383.1 404.19 383.1" style="fill:#ebebeb"></polygon><polygon points="411.21 383.1 409.71 389.33 409.62 389.71 408.07 396.18 407.98 396.56 406.43 403.02 406.34 403.4 404.79 409.87 404.69 410.25 403.18 416.59 402.78 416.59 404.3 410.25 404.4 409.87 405.94 403.4 406.04 403.02 407.59 396.56 407.68 396.18 409.23 389.71 409.32 389.33 410.81 383.1 411.21 383.1" style="fill:#ebebeb"></polygon><polygon points="418.24 383.1 416.74 389.33 416.65 389.71 415.1 396.18 415.01 396.56 413.46 403.02 413.37 403.4 411.81 409.87 411.72 410.25 410.2 416.59 409.81 416.59 411.33 410.25 411.42 409.87 412.97 403.4 413.06 403.02 414.61 396.56 414.71 396.18 416.26 389.71 416.35 389.33 417.84 383.1 418.24 383.1" style="fill:#ebebeb"></polygon><polygon points="425.26 383.1 423.77 389.33 423.67 389.71 422.13 396.18 422.03 396.56 420.48 403.02 420.39 403.4 418.84 409.87 418.75 410.25 417.23 416.59 416.83 416.59 418.36 410.25 418.45 409.87 420 403.4 420.09 403.02 421.64 396.56 421.73 396.18 423.28 389.71 423.38 389.33 424.87 383.1 425.26 383.1" style="fill:#ebebeb"></polygon><polygon points="432.29 383.1 430.79 389.33 430.7 389.71 429.15 396.18 429.06 396.56 427.51 403.02 427.42 403.4 425.87 409.87 425.78 410.25 424.26 416.59 423.86 416.59 425.38 410.25 425.48 409.87 427.02 403.4 427.12 403.02 428.67 396.56 428.76 396.18 430.31 389.71 430.4 389.33 431.89 383.1 432.29 383.1" style="fill:#ebebeb"></polygon><polygon points="439.31 383.1 437.82 389.33 437.73 389.71 436.18 396.18 436.09 396.56 434.54 403.02 434.44 403.4 432.89 409.87 432.8 410.25 431.28 416.59 430.89 416.59 432.41 410.25 432.5 409.87 434.05 403.4 434.14 403.02 435.69 396.56 435.78 396.18 437.33 389.71 437.43 389.33 438.92 383.1 439.31 383.1" style="fill:#ebebeb"></polygon><polygon points="444.78 389.33 444.69 389.71 395.38 389.71 395.47 389.33 444.78 389.33" style="fill:#ebebeb"></polygon><polygon points="443.14 396.18 443.05 396.56 393.73 396.56 393.83 396.18 443.14 396.18" style="fill:#ebebeb"></polygon><polygon points="441.5 403.02 441.4 403.4 392.09 403.4 392.18 403.02 441.5 403.02" style="fill:#ebebeb"></polygon><polygon points="439.85 409.87 439.76 410.25 390.44 410.25 390.54 409.87 439.85 409.87" style="fill:#ebebeb"></polygon><path d="M431.3,396.83a10.94,10.94,0,0,0-2.41,1.79,4.2,4.2,0,0,0-1.4,2.49,1.65,1.65,0,0,0,.32,1.26A2.3,2.3,0,0,0,429,403a6.37,6.37,0,0,0,2.88-.07,6.57,6.57,0,0,0,2.62-1.22,3.48,3.48,0,0,0,.9-1.09,2.24,2.24,0,0,0,.29-1.32,1.72,1.72,0,0,0-.73-1.12,3.6,3.6,0,0,0-1.33-.57,6.18,6.18,0,0,0-3,0,5.84,5.84,0,0,1,3-.28,4,4,0,0,1,1.46.55,2.06,2.06,0,0,1,.93,1.32,2.48,2.48,0,0,1-.29,1.59,3.88,3.88,0,0,1-1,1.24,7.11,7.11,0,0,1-5.91,1.38,2.72,2.72,0,0,1-1.4-.82,1.71,1.71,0,0,1-.36-.77,2.82,2.82,0,0,1,0-.82,4.53,4.53,0,0,1,1.61-2.62A10.33,10.33,0,0,1,431.3,396.83Z" style="fill:#8A09B5"></path><polygon points="402.64 384.83 397.41 384.83 397.55 384.2 402.79 384.2 402.64 384.83" style="fill:#c7c7c7"></polygon><polygon points="400.23 385.93 397.15 385.93 397.3 385.29 400.38 385.29 400.23 385.93" style="fill:#c7c7c7"></polygon><polygon points="423.93 404.96 420.74 404.96 420.89 404.32 424.08 404.32 423.93 404.96" style="fill:#c7c7c7"></polygon><polygon points="423.43 407.19 420.24 407.19 420.39 406.55 423.57 406.55 423.43 407.19" style="fill:#c7c7c7"></polygon><polygon points="425.49 406.05 420.49 406.05 420.64 405.41 425.63 405.41 425.49 406.05" style="fill:#c7c7c7"></polygon><polygon points="432.19 400.04 429 400.04 429.14 399.4 432.33 399.4 432.19 400.04" style="fill:#c7c7c7"></polygon><polygon points="433.74 401.13 428.75 401.13 428.89 400.49 433.89 400.49 433.74 401.13" style="fill:#c7c7c7"></polygon><path d="M389.39,388.22l3.07-2.3a1.85,1.85,0,0,0,.71-1,1.18,1.18,0,0,0-.15-.94,1.09,1.09,0,0,0-.93-.46,1.77,1.77,0,0,0-1,.36l-.32.24c-.1.08-.22.07-.26,0a.18.18,0,0,1,.07-.26l.32-.25a2.27,2.27,0,0,1,1.31-.46,1.35,1.35,0,0,1,1.17.59,1.5,1.5,0,0,1,.2,1.19,2.43,2.43,0,0,1-.89,1.32l-2.64,2h2.58a.14.14,0,0,1,.14.19.26.26,0,0,1-.23.19h-3.07a.15.15,0,0,1-.12-.05A.21.21,0,0,1,389.39,388.22Z" style="fill:#a6a6a6"></path><path d="M387.87,395.17a4.43,4.43,0,0,1,1-1.91,2.24,2.24,0,0,1,1.55-.81,1.27,1.27,0,0,1,1.17.81,3.18,3.18,0,0,1,.09,1.91,4.44,4.44,0,0,1-1,1.9,2.23,2.23,0,0,1-1.56.83,1.27,1.27,0,0,1-1.17-.83A3.07,3.07,0,0,1,387.87,395.17Zm.38,0a2.76,2.76,0,0,0,.07,1.69,1,1,0,0,0,.89.65,1.73,1.73,0,0,0,1.19-.65,3.82,3.82,0,0,0,.86-1.69,2.68,2.68,0,0,0-.08-1.69,1,1,0,0,0-.89-.65,1.66,1.66,0,0,0-1.19.65A3.8,3.8,0,0,0,388.25,395.17Z" style="fill:#a6a6a6"></path><path d="M385.07,406.91l3.08-2.3a1.85,1.85,0,0,0,.71-1,1.22,1.22,0,0,0-.15-.94,1.11,1.11,0,0,0-.93-.46,1.77,1.77,0,0,0-1,.36l-.32.24a.17.17,0,0,1-.26,0,.19.19,0,0,1,.07-.26l.32-.25a2.32,2.32,0,0,1,1.32-.46,1.35,1.35,0,0,1,1.17.59,1.45,1.45,0,0,1,.19,1.19,2.37,2.37,0,0,1-.89,1.32l-2.63,2h2.57a.15.15,0,0,1,.15.19.27.27,0,0,1-.23.19h-3.07a.16.16,0,0,1-.13-.05A.22.22,0,0,1,385.07,406.91Z" style="fill:#a6a6a6"></path><path d="M383.55,413.86a4.43,4.43,0,0,1,1-1.91,2.24,2.24,0,0,1,1.56-.81,1.27,1.27,0,0,1,1.17.81,3.18,3.18,0,0,1,.09,1.91,4.46,4.46,0,0,1-1,1.9,2.23,2.23,0,0,1-1.55.83,1.27,1.27,0,0,1-1.17-.83A3.07,3.07,0,0,1,383.55,413.86Zm.38,0a2.84,2.84,0,0,0,.07,1.69,1,1,0,0,0,.9.65,1.73,1.73,0,0,0,1.19-.65,3.92,3.92,0,0,0,.86-1.69,2.83,2.83,0,0,0-.08-1.69,1,1,0,0,0-.89-.65,1.68,1.68,0,0,0-1.2.65A4,4,0,0,0,383.93,413.86Z" style="fill:#a6a6a6"></path><path d="M390.94,377.27a1.75,1.75,0,0,1-1.29-.64,3,3,0,0,1-.34-3c.46-1.53,1.57-2.16,2.44-2,.66.13,1.39.8,1.26,2.28a.41.41,0,0,1-.45.38.42.42,0,0,1-.38-.45c.06-.77-.16-1.3-.59-1.38s-1.16.37-1.48,1.41a2.36,2.36,0,0,0,.18,2.2.89.89,0,0,0,.71.34.42.42,0,0,1,.47.36.42.42,0,0,1-.36.47Z" style="fill:#a6a6a6"></path><path d="M396.12,377.27a1.77,1.77,0,0,1-1.3-.64,3,3,0,0,1-.34-3c.47-1.53,1.58-2.16,2.44-2,.66.13,1.39.8,1.27,2.28a.42.42,0,0,1-.84-.07c.07-.77-.16-1.3-.59-1.38s-1.16.37-1.47,1.41a2.33,2.33,0,0,0,.17,2.2.89.89,0,0,0,.71.34.43.43,0,0,1,.48.36.42.42,0,0,1-.36.47Z" style="fill:#a6a6a6"></path><path d="M401.29,377.27a1.75,1.75,0,0,1-1.29-.64,3,3,0,0,1-.34-3c.46-1.53,1.57-2.16,2.44-2,.66.13,1.39.8,1.26,2.28a.42.42,0,0,1-.45.38.43.43,0,0,1-.39-.45c.07-.77-.16-1.3-.58-1.38s-1.16.37-1.48,1.41a2.39,2.39,0,0,0,.17,2.2.91.91,0,0,0,.72.34.42.42,0,0,1,.47.36.42.42,0,0,1-.36.47Z" style="fill:#a6a6a6"></path><path d="M406.46,377.27a1.77,1.77,0,0,1-1.29-.64,3,3,0,0,1-.34-3c.46-1.53,1.58-2.16,2.44-2,.66.13,1.39.8,1.27,2.28a.42.42,0,0,1-.84-.07c.06-.77-.16-1.3-.59-1.38s-1.16.37-1.47,1.41a2.33,2.33,0,0,0,.17,2.2.89.89,0,0,0,.71.34.43.43,0,0,1,.48.36.42.42,0,0,1-.36.47Z" style="fill:#a6a6a6"></path><path d="M411.64,377.27a1.79,1.79,0,0,1-1.3-.64,3,3,0,0,1-.33-3c.46-1.53,1.57-2.16,2.43-2,.67.13,1.39.8,1.27,2.28a.42.42,0,0,1-.45.38.42.42,0,0,1-.39-.45c.07-.77-.16-1.3-.58-1.38s-1.16.37-1.48,1.41a2.33,2.33,0,0,0,.17,2.2.89.89,0,0,0,.72.34.42.42,0,0,1,.47.36.42.42,0,0,1-.36.47Z" style="fill:#a6a6a6"></path><path d="M416.81,377.27a1.75,1.75,0,0,1-1.29-.64,3,3,0,0,1-.34-3c.46-1.53,1.58-2.16,2.44-2,.66.13,1.39.8,1.26,2.28a.41.41,0,0,1-.45.38.42.42,0,0,1-.38-.45c.06-.77-.16-1.3-.59-1.38s-1.16.37-1.47,1.41a2.33,2.33,0,0,0,.17,2.2.89.89,0,0,0,.71.34.42.42,0,0,1,.47.36.4.4,0,0,1-.35.47Z" style="fill:#a6a6a6"></path><path d="M422,377.27a1.79,1.79,0,0,1-1.3-.64,3,3,0,0,1-.33-3c.46-1.53,1.57-2.16,2.43-2,.66.13,1.39.8,1.27,2.28a.42.42,0,0,1-.84-.07c.07-.77-.16-1.3-.58-1.38s-1.17.37-1.48,1.41a2.33,2.33,0,0,0,.17,2.2.89.89,0,0,0,.71.34.43.43,0,0,1,.48.36.42.42,0,0,1-.36.47Z" style="fill:#a6a6a6"></path><path d="M427.16,377.27a1.75,1.75,0,0,1-1.29-.64,3,3,0,0,1-.34-3c.46-1.53,1.57-2.16,2.44-2,.66.13,1.39.8,1.26,2.28a.42.42,0,1,1-.83-.07c.06-.77-.16-1.3-.59-1.38s-1.16.37-1.48,1.41a2.36,2.36,0,0,0,.18,2.2.89.89,0,0,0,.71.34.42.42,0,0,1,.11.83Z" style="fill:#a6a6a6"></path><path d="M432.34,377.27a1.77,1.77,0,0,1-1.3-.64,3,3,0,0,1-.34-3c.47-1.53,1.58-2.16,2.44-2,.66.13,1.39.8,1.27,2.28a.42.42,0,0,1-.84-.07c.07-.77-.16-1.3-.59-1.38s-1.16.37-1.47,1.41a2.33,2.33,0,0,0,.17,2.2.89.89,0,0,0,.71.34.43.43,0,0,1,.48.36.42.42,0,0,1-.36.47Z" style="fill:#a6a6a6"></path><path d="M437.51,377.27a1.75,1.75,0,0,1-1.29-.64,3,3,0,0,1-.34-3c.46-1.53,1.57-2.16,2.44-2,.66.13,1.39.8,1.26,2.28a.42.42,0,0,1-.45.38.43.43,0,0,1-.39-.45c.07-.77-.16-1.3-.58-1.38s-1.16.37-1.48,1.41a2.39,2.39,0,0,0,.17,2.2.91.91,0,0,0,.72.34.42.42,0,0,1,.47.36.42.42,0,0,1-.36.47Z" style="fill:#a6a6a6"></path><path d="M442.68,377.27a1.77,1.77,0,0,1-1.29-.64,3,3,0,0,1-.34-3c.46-1.53,1.58-2.16,2.44-2,.66.13,1.39.8,1.27,2.28a.42.42,0,0,1-.84-.07c.06-.77-.16-1.3-.59-1.38s-1.16.37-1.47,1.41a2.33,2.33,0,0,0,.17,2.2.89.89,0,0,0,.71.34.43.43,0,0,1,.48.36.42.42,0,0,1-.36.47Z" style="fill:#a6a6a6"></path><path d="M447.86,377.27a1.79,1.79,0,0,1-1.3-.64,3,3,0,0,1-.33-3c.46-1.53,1.57-2.16,2.43-2,.67.13,1.39.8,1.27,2.28a.42.42,0,0,1-.45.38.42.42,0,0,1-.39-.45c.07-.77-.16-1.3-.58-1.38s-1.16.37-1.48,1.41a2.33,2.33,0,0,0,.17,2.2.89.89,0,0,0,.72.34.42.42,0,0,1,.47.36.42.42,0,0,1-.36.47Z" style="fill:#a6a6a6"></path><path d="M453,377.27a1.75,1.75,0,0,1-1.29-.64,3,3,0,0,1-.34-3c.46-1.53,1.58-2.16,2.44-2,.66.13,1.39.8,1.26,2.28a.41.41,0,0,1-.45.38.42.42,0,0,1-.38-.45c.06-.77-.16-1.3-.59-1.38s-1.16.37-1.47,1.41a2.33,2.33,0,0,0,.17,2.2.89.89,0,0,0,.71.34.42.42,0,0,1,.47.36.4.4,0,0,1-.35.47Z" style="fill:#a6a6a6"></path></g><g id="freepik--Device--inject-65"><rect x="238.92" y="423.81" width="6.86" height="4.48" style="fill:#455a64"></rect><rect x="247.82" y="423.52" width="6.86" height="4.48" style="fill:#455a64"></rect><rect x="256.72" y="423.22" width="6.86" height="4.48" style="fill:#455a64"></rect><rect x="265.62" y="422.92" width="6.86" height="4.48" style="fill:#455a64"></rect><rect x="274.51" y="422.63" width="6.86" height="4.48" style="fill:#455a64"></rect><rect x="283.41" y="422.33" width="6.86" height="4.48" style="fill:#455a64"></rect><rect x="292.31" y="422.03" width="6.86" height="4.48" style="fill:#455a64"></rect><rect x="301.21" y="421.74" width="6.86" height="4.48" style="fill:#455a64"></rect><rect x="310.11" y="421.44" width="6.86" height="4.48" style="fill:#455a64"></rect><polygon points="318.65 430.87 237.24 430.87 237.24 425.42 318.65 423.15 318.65 430.87" style="fill:#37474f"></polygon><polygon points="398.11 409.37 263.71 409.37 285.09 309.31 419.48 309.31 398.11 409.37" style="fill:#455a64"></polygon><polygon points="403.08 409.37 268.68 409.37 290.06 309.31 424.45 309.31 403.08 409.37" style="fill:#37474f"></polygon><path d="M358.18,353.55a10.1,10.1,0,0,1-9.62,8.3,6.92,6.92,0,0,1-7-8.3,10.12,10.12,0,0,1,9.63-8.31A6.91,6.91,0,0,1,358.18,353.55Z" style="fill:#263238"></path><polygon points="365.07 435.5 298.97 435.5 298.97 430.37 365.07 428.23 365.07 435.5" style="fill:#455a64"></polygon><polygon points="383.04 435.5 347.55 435.5 326.18 379.43 361.67 379.43 383.04 435.5" style="fill:#455a64"></polygon><polygon points="388.88 435.5 353.39 435.5 332.02 379.43 367.51 379.43 388.88 435.5" style="fill:#263238"></polygon><path d="M234.73,436.87H166.58c-5.82,0,2.6-16.56,23.82-22.92S241.42,430.65,234.73,436.87Z" style="fill:#37474f"></path><path d="M208,436.87a20.68,20.68,0,0,1,.93-5.56,23.6,23.6,0,0,1,2.3-5.19,18.64,18.64,0,0,1,3.61-4.4,16.29,16.29,0,0,1,4.8-3c-.74.6-1.57,1-2.24,1.68l-1,.89-1,1a24.49,24.49,0,0,0-3.31,4.35,32.6,32.6,0,0,0-2.41,4.93A41,41,0,0,0,208,436.87Z" style="fill:#263238"></path><path d="M216.06,421.11a39.42,39.42,0,0,1,5.88,2.4,40.93,40.93,0,0,1,5.48,3.25,24.61,24.61,0,0,1,4.75,4.31,15.09,15.09,0,0,1,1.76,2.7,8,8,0,0,1,.8,3.1A8.92,8.92,0,0,0,233.5,434a14,14,0,0,0-1.91-2.43,32.46,32.46,0,0,0-4.75-4c-1.69-1.23-3.47-2.31-5.27-3.4-.9-.54-1.81-1.05-2.73-1.55S217,421.61,216.06,421.11Z" style="fill:#263238"></path></g><g id="freepik--Line--inject-65"><polygon points="138.7 117.56 141.7 117.56 141.7 117.6 138.7 117.56" style="fill:#263238"></polygon><polygon points="147.76 117.71 153.81 118.03 153.79 118.21 147.75 117.82 147.76 117.71" style="fill:#263238"></polygon><polygon points="159.85 118.53 165.87 119.22 165.83 119.55 159.82 118.79 159.85 118.53" style="fill:#263238"></polygon><polygon points="171.87 120.08 177.85 121.13 177.75 121.61 171.81 120.49 171.87 120.08" style="fill:#263238"></polygon><polygon points="183.78 122.38 189.68 123.82 189.54 124.35 183.66 122.89 183.78 122.38" style="fill:#263238"></polygon><polygon points="195.52 125.43 201.32 127.22 201.13 127.79 195.36 125.98 195.52 125.43" style="fill:#263238"></polygon><polygon points="207.06 129.19 212.74 131.33 212.5 131.93 206.85 129.77 207.06 129.19" style="fill:#263238"></polygon><polygon points="218.34 133.64 223.88 136.12 223.58 136.75 218.07 134.26 218.34 133.64" style="fill:#263238"></polygon><polygon points="229.34 138.77 234.72 141.58 234.36 142.24 229.01 139.41 229.34 138.77" style="fill:#263238"></polygon><polygon points="240.01 144.55 245.2 147.69 244.78 148.37 239.61 145.22 240.01 144.55" style="fill:#263238"></polygon><polygon points="250.31 150.97 255.3 154.41 254.81 155.11 249.84 151.66 250.31 150.97" style="fill:#263238"></polygon><polygon points="260.2 158 264.98 161.74 264.41 162.45 259.66 158.71 260.2 158" style="fill:#263238"></polygon><polygon points="269.65 165.62 274.2 169.63 273.55 170.34 269.04 166.33 269.65 165.62" style="fill:#263238"></polygon><polygon points="278.63 173.78 282.92 178.07 282.21 178.76 277.94 174.49 278.63 173.78" style="fill:#263238"></polygon><polygon points="287.07 182.5 291.09 187.05 290.38 187.66 286.36 183.15 287.07 182.5" style="fill:#263238"></polygon><polygon points="294.97 191.72 298.7 196.5 298 197.03 294.26 192.29 294.97 191.72" style="fill:#263238"></polygon><polygon points="302.29 201.39 305.74 206.39 305.04 206.85 301.59 201.89 302.29 201.39" style="fill:#263238"></polygon><polygon points="309.02 211.48 312.16 216.68 311.48 217.07 308.34 211.91 309.02 211.48" style="fill:#263238"></polygon><polygon points="315.13 221.96 317.94 227.34 317.29 227.67 314.47 222.32 315.13 221.96" style="fill:#263238"></polygon><polygon points="320.59 232.79 323.07 238.33 322.45 238.59 319.95 233.09 320.59 232.79" style="fill:#263238"></polygon><polygon points="325.39 243.93 327.53 249.6 326.94 249.82 324.78 244.17 325.39 243.93" style="fill:#263238"></polygon><polygon points="329.5 255.34 331.29 261.13 330.74 261.3 328.93 255.53 329.5 255.34" style="fill:#263238"></polygon><polygon points="332.9 266.98 334.34 272.87 333.83 272.99 332.37 267.12 332.9 266.98" style="fill:#263238"></polygon><polygon points="335.59 278.8 336.64 284.77 336.23 284.84 335.11 278.9 335.59 278.8" style="fill:#263238"></polygon><polygon points="337.51 290.77 338.2 296.8 337.94 296.82 337.18 290.82 337.51 290.77" style="fill:#263238"></polygon><polygon points="338.7 302.84 339.03 308.89 338.92 308.89 338.52 302.85 338.7 302.84" style="fill:#263238"></polygon><polygon points="339.18 315.04 339.18 318.04 339.14 315.04 339.18 315.04" style="fill:#263238"></polygon></g><g id="freepik--Envelope--inject-65"><polygon points="360.78 304.59 295.55 304.59 295.55 249.41 328.16 228.7 360.78 249.41 360.78 304.59" style="fill:#8A09B5"></polygon><polygon points="360.78 304.59 295.55 304.59 295.55 249.41 328.16 228.7 360.78 249.41 360.78 304.59" style="opacity:0.2"></polygon><polygon points="357.11 295.81 299.23 295.81 299.23 221.52 342.2 221.52 357.11 235.68 357.11 295.81" style="fill:#ebebeb"></polygon><polygon points="342.2 221.52 357.11 235.68 342.2 235.68 342.2 221.52" style="fill:#dbdbdb"></polygon><rect x="304.88" y="233.99" width="32.18" height="1.91" transform="translate(641.93 469.88) rotate(180)" style="fill:#dbdbdb"></rect><rect x="304.88" y="238.8" width="32.18" height="1.91" transform="translate(641.93 479.51) rotate(180)" style="fill:#dbdbdb"></rect><rect x="304.88" y="243.62" width="32.18" height="1.91" transform="translate(641.93 489.14) rotate(180)" style="fill:#dbdbdb"></rect><rect x="304.88" y="248.43" width="47.14" height="1.91" transform="translate(656.9 498.77) rotate(180)" style="fill:#dbdbdb"></rect><rect x="304.88" y="253.25" width="47.14" height="1.91" transform="translate(656.9 508.4) rotate(180)" style="fill:#dbdbdb"></rect><rect x="304.88" y="258.06" width="47.14" height="1.91" transform="translate(656.9 518.03) rotate(180)" style="fill:#dbdbdb"></rect><rect x="304.88" y="262.88" width="47.14" height="1.91" transform="translate(656.9 527.66) rotate(180)" style="fill:#dbdbdb"></rect><rect x="304.88" y="267.69" width="47.14" height="1.91" transform="translate(656.9 537.29) rotate(180)" style="fill:#dbdbdb"></rect><rect x="304.88" y="272.51" width="47.14" height="1.91" transform="translate(656.9 546.92) rotate(180)" style="fill:#dbdbdb"></rect><rect x="304.88" y="277.32" width="47.14" height="1.91" transform="translate(656.9 556.55) rotate(180)" style="fill:#dbdbdb"></rect><rect x="304.88" y="282.14" width="47.14" height="1.91" transform="translate(656.9 566.18) rotate(180)" style="fill:#dbdbdb"></rect><rect x="304.88" y="286.95" width="47.14" height="1.91" transform="translate(656.9 575.81) rotate(180)" style="fill:#dbdbdb"></rect><path d="M360.78,263.22v41.37H295.55V263.22c2.81,1.59,5.56,3.25,8.33,4.88s5.52,3.31,8.27,5q4.58,2.79,9.16,5.66l.09-.06a.46.46,0,0,1-.07.07l6.84,4.28c2.28-1.43,4.56-2.87,6.84-4.28l-.08-.07.1.05c3.05-1.9,6.09-3.79,9.16-5.66q4.11-2.52,8.26-5C355.23,266.47,358,264.81,360.78,263.22Z" style="fill:#8A09B5"></path><path d="M360.78,263.22c-2.63,1.85-5.32,3.63-8,5.45s-5.36,3.56-8.05,5.33-5.63,3.66-8.46,5.47l-.25.18-7.51,4.79-.38.23-.36-.23-7.5-4.8-.27-.17q-4.25-2.72-8.46-5.48c-2.68-1.76-5.37-3.54-8-5.32s-5.34-3.6-8-5.45c2.81,1.59,5.56,3.25,8.33,4.88s5.52,3.31,8.27,5q4.58,2.79,9.16,5.66h0l6.84,4.28c2.28-1.43,4.56-2.87,6.84-4.28l0,0c3.05-1.9,6.09-3.79,9.16-5.66q4.11-2.52,8.26-5C355.23,266.47,358,264.81,360.78,263.22Z" style="fill:#fff"></path><path d="M321.4,278.7a.46.46,0,0,1-.07.07l-1,.87c-1.64,1.38-3.31,2.7-5,4-2.07,1.58-4.2,3.1-6.34,4.61s-4.3,2.95-6.5,4.36-4.43,2.79-6.73,4.06c2-1.74,4-3.35,6.11-4.93s4.22-3.11,6.34-4.62,4.31-2.95,6.51-4.36c1.76-1.13,3.54-2.24,5.36-3.28l1.28-.71Z" style="fill:#fff"></path><path d="M360.63,296.66c-2.31-1.27-4.54-2.65-6.73-4.06s-4.36-2.88-6.52-4.36-4.26-3-6.33-4.61c-1.7-1.29-3.37-2.6-5-4l-1-.88-.08-.07.1.05,1.27.72c1.83,1,3.6,2.15,5.36,3.28,2.21,1.41,4.36,2.88,6.51,4.36s4.26,3,6.33,4.62S358.65,294.92,360.63,296.66Z" style="fill:#fff"></path></g><g id="freepik--Tool--inject-65"><path d="M281,132a13.53,13.53,0,0,1,13.87-3.26l-7.83,7.83,2.75,5.78,5.78,2.75,7.83-7.84A13.53,13.53,0,1,1,281,132Z" style="fill:#8A09B5"></path><path d="M257,194.29a13.52,13.52,0,0,1-13.87,3.25l7.83-7.83-2.75-5.77-5.77-2.75L234.59,189a13.53,13.53,0,1,1,22.4,5.27Z" style="fill:#8A09B5"></path><rect x="262.44" y="139.15" width="12.06" height="49.04" transform="translate(342.58 469.24) rotate(-135)" style="fill:#8A09B5"></rect></g><g id="freepik--Clock--inject-65"><circle cx="152.07" cy="126.6" r="41.92" transform="matrix(0.16, -0.99, 0.99, 0.16, 2.88, 256.58)" style="fill:#8A09B5"></circle><circle cx="153.99" cy="127.53" r="40" style="opacity:0.2"></circle><circle cx="153.99" cy="127.53" r="37.47" transform="translate(14.26 270.55) rotate(-85.3)" style="fill:#fff"></circle><path d="M190.61,119.58c-17.06,10.34-45.11,27.3-60.78,36.6a37.46,37.46,0,0,1-10.24-13.77l51.84-48A37.47,37.47,0,0,1,190.61,119.58Z" style="fill:#ebebeb;opacity:0.5"></path><path d="M191.44,128.84A37.33,37.33,0,0,1,189,141l-46.74,22.1a38.11,38.11,0,0,1-5.9-2.53C150.44,152.43,176.24,137.58,191.44,128.84Z" style="fill:#ebebeb;opacity:0.5"></path><rect x="153.63" y="92.78" width="0.72" height="5.68" style="fill:#c7c7c7"></rect><rect x="137.67" y="97.05" width="0.72" height="5.68" transform="translate(-31.45 82.39) rotate(-30)" style="fill:#c7c7c7"></rect><rect x="125.99" y="108.74" width="0.72" height="5.68" transform="translate(-33.46 165.2) rotate(-60)" style="fill:#c7c7c7"></rect><rect x="119.24" y="127.17" width="5.68" height="0.72" style="fill:#c7c7c7"></rect><rect x="123.51" y="143.13" width="5.68" height="0.72" transform="translate(-54.82 82.42) rotate(-30.01)" style="fill:#c7c7c7"></rect><rect x="135.19" y="154.81" width="5.68" height="0.72" transform="translate(-65.34 197.23) rotate(-60.03)" style="fill:#c7c7c7"></rect><rect x="153.63" y="156.61" width="0.72" height="5.68" style="fill:#c7c7c7"></rect><rect x="169.58" y="152.33" width="0.72" height="5.68" transform="translate(-54.82 105.76) rotate(-30)" style="fill:#c7c7c7"></rect><rect x="181.27" y="140.65" width="0.72" height="5.68" transform="matrix(0.5, -0.87, 0.87, 0.5, -33.46, 229.02)" style="fill:#c7c7c7"></rect><rect x="183.06" y="127.17" width="5.68" height="0.72" style="fill:#c7c7c7"></rect><rect x="178.79" y="111.21" width="5.68" height="0.72" transform="translate(-31.46 105.79) rotate(-30.01)" style="fill:#c7c7c7"></rect><rect x="167.11" y="99.53" width="5.68" height="0.72" transform="translate(-1.49 197.2) rotate(-60.03)" style="fill:#c7c7c7"></rect><polygon points="154.53 95.35 155.77 130.06 152.21 130.02 153.57 95.34 154.53 95.35" style="fill:#455a64"></polygon><polygon points="176.15 115.43 152.8 130.33 151.1 127.21 175.69 114.58 176.15 115.43" style="fill:#263238"></polygon><path d="M155.2,127.53a1.21,1.21,0,1,1-1.21-1.21A1.22,1.22,0,0,1,155.2,127.53Z" style="fill:#8A09B5"></path></g><g id="freepik--speech-bubble--inject-65"><path d="M278.13,239.07a30.28,30.28,0,0,1-50.59,19.15l-15.15,2.22L220,247.35a30.28,30.28,0,1,1,58.16-8.28Z" style="fill:#fff"></path><path d="M278.13,239.07A30.6,30.6,0,0,1,272,254.42a32.71,32.71,0,0,1-2.74,3.15,31.82,31.82,0,0,1-3.2,2.71,29.85,29.85,0,0,1-19.66,6.09,25.79,25.79,0,0,1-4.19-.44,30.5,30.5,0,0,1-15-7.39l.36.11L212.47,261l-1.1.17.56-1,7.53-13.12,0,.52a30.62,30.62,0,0,1,1.87-27,31,31,0,0,1,9.48-10.09,30.53,30.53,0,0,1,12.92-4.85,30.19,30.19,0,0,1,25.37,8.42A30.47,30.47,0,0,1,278.13,239.07Zm0,0a30,30,0,0,0-34.34-32.77,29.85,29.85,0,0,0-12.51,4.94,31.25,31.25,0,0,0-9.06,9.88,30,30,0,0,0-3.84,12.81,30.31,30.31,0,0,0,2.13,13.19l.11.27-.14.25-7.63,13.07-.54-.8,15.16-2.12.21,0,.15.14a29.85,29.85,0,0,0,14.5,7.47,27,27,0,0,0,4.11.5,29.08,29.08,0,0,0,12.23-1.79,27.87,27.87,0,0,0,7.3-3.94,27.24,27.24,0,0,0,5.95-5.79A30.53,30.53,0,0,0,278.13,239.07Z" style="fill:#263238"></path><path d="M264.89,236.84a3.67,3.67,0,1,1-3.67-3.67A3.66,3.66,0,0,1,264.89,236.84Z" style="fill:#263238"></path><path d="M251.75,236.84a3.67,3.67,0,1,1-3.66-3.67A3.66,3.66,0,0,1,251.75,236.84Z" style="fill:#263238"></path><path d="M238.62,236.84a3.67,3.67,0,1,1-3.67-3.67A3.66,3.66,0,0,1,238.62,236.84Z" style="fill:#263238"></path></g></svg>