<?xml version="1.0" encoding="UTF-8" standalone="no"?>
<svg
   viewBox="0 0 500 500"
   version="1.1"
   id="svg419"
   sodipodi:docname="Bookmarks.svg"
   inkscape:version="1.2.2 (732a01da63, 2022-12-09)"
   xmlns:inkscape="http://www.inkscape.org/namespaces/inkscape"
   xmlns:sodipodi="http://sodipodi.sourceforge.net/DTD/sodipodi-0.dtd"
   xmlns="http://www.w3.org/2000/svg"
   xmlns:svg="http://www.w3.org/2000/svg">
  <sodipodi:namedview
     id="namedview421"
     pagecolor="#ffffff"
     bordercolor="#000000"
     borderopacity="0.25"
     inkscape:showpageshadow="2"
     inkscape:pageopacity="0.0"
     inkscape:pagecheckerboard="0"
     inkscape:deskcolor="#d1d1d1"
     showgrid="false"
     inkscape:zoom="1.05"
     inkscape:cx="188.09524"
     inkscape:cy="250.47619"
     inkscape:window-width="1366"
     inkscape:window-height="705"
     inkscape:window-x="-8"
     inkscape:window-y="-8"
     inkscape:window-maximized="1"
     inkscape:current-layer="svg419" />
  <defs
     id="defs32">
    <clipPath
       id="freepik--clip-path--inject-124">
      <path
         d="M427.77,456.09s-1.35.7-5.61.7a16.87,16.87,0,0,1-5.62-.7l-5.35-52.53-4.65-45.68h11.23l4.61,45.23Z"
         style="fill:#999;stroke:#263238;stroke-linecap:round;stroke-linejoin:round"
         id="path2" />
    </clipPath>
    <clipPath
       id="freepik--clip-path-2--inject-124">
      <path
         d="M344.77,357.88l-3,29.32-7,68.89s-1.35.7-5.61.7a16.87,16.87,0,0,1-5.62-.7l7.57-74.35,2.43-23.86Z"
         style="fill:#999;stroke:#263238;stroke-linecap:round;stroke-linejoin:round"
         id="path5" />
    </clipPath>
    <clipPath
       id="freepik--clip-path-3--inject-124">
      <path
         d="M381.27,357.88v98.21s-1.35.7-5.61.7a16.87,16.87,0,0,1-5.62-.7V357.88Z"
         style="fill:#999;stroke:#263238;stroke-linecap:round;stroke-linejoin:round"
         id="path8" />
    </clipPath>
    <clipPath
       id="freepik--clip-path-4--inject-124">
      <path
         d="M423.2,343.72V359.1a2.74,2.74,0,0,1-2.35,2.64,378.56,378.56,0,0,1-90.39,0,2.74,2.74,0,0,1-2.35-2.64V343.72a2.74,2.74,0,0,1,2.35-2.64,379.61,379.61,0,0,1,90.39,0A2.74,2.74,0,0,1,423.2,343.72Z"
         style="fill:#bfbfbf"
         id="path11" />
    </clipPath>
    <clipPath
       id="freepik--clip-path-5--inject-124">
      <path
         d="M414.41,352.31c-3.69,6.33-20.31,5.35-20.31,5.35l-.29,1.21L375.2,437.21l2.36,3-2.36,8.11c-2.46,2.64-24.15-1.39-26.47-4.66l2.11-6.44s1.17-75.53,3-89.57v-.07a10,10,0,0,1,.39-1.91l-37.45,4.65s3.76,70.15,6.93,74.06.39,10.22.39,10.22l2,9.56s-9.82-.69-19.48-1c-2-.06-4-.1-5.86-.11a21.77,21.77,0,0,1-.82-2.66c-.51-1.95,1.44-5.81,1.44-5.81l-1.79-2.33s.94-6.91.94-9.07S276.44,343,278.75,338c7.7-16.79,47.93-27.75,65.85-31.86,5.28-1.22,8.63-1.84,8.63-1.84l57.32,3.64L412,308l4.88.31S418.11,346,414.41,352.31Z"
         style="fill:#BD07BD;stroke:#263238;stroke-linecap:round;stroke-linejoin:round"
         id="path14" />
    </clipPath>
    <clipPath
       id="freepik--clip-path-6--inject-124">
      <path
         d="M435.82,242.91l-3.12,20.8s-17.23,7.57-20.83,13.65l-.85.12-4,.56-2.19-.64a121.6,121.6,0,0,0-16.3-3.57,25.33,25.33,0,0,0-5.76-.22l-11.66-18.17s18-2.49,30.5,1.78l6-.42.22-.19C409.52,255.16,422.08,245.18,435.82,242.91Z"
         style="fill:#BD07BD;stroke:#263238;stroke-linecap:round;stroke-linejoin:round"
         id="path17" />
    </clipPath>
    <clipPath
       id="freepik--clip-path-7--inject-124">
      <rect
         x="198.82"
         y="192.64"
         width="28.03"
         height="20.55"
         transform="translate(-20.88 24.45) rotate(-6.27)"
         style="fill:#BD07BD;stroke:#263238;stroke-linecap:round;stroke-linejoin:round"
         id="rect20" />
    </clipPath>
    <clipPath
       id="freepik--clip-path-8--inject-124">
      <rect
         x="230.11"
         y="189.06"
         width="28.03"
         height="20.55"
         transform="translate(-20.31 27.85) rotate(-6.27)"
         style="fill:#BD07BD;stroke:#263238;stroke-linecap:round;stroke-linejoin:round"
         id="rect23" />
    </clipPath>
    <clipPath
       id="freepik--clip-path-9--inject-124">
      <rect
         x="261.41"
         y="185.48"
         width="28.03"
         height="20.55"
         transform="translate(-19.73 31.25) rotate(-6.27)"
         style="fill:#BD07BD;stroke:#263238;stroke-linecap:round;stroke-linejoin:round"
         id="rect26" />
    </clipPath>
    <clipPath
       id="freepik--clip-path-10--inject-124">
      <rect
         x="192.33"
         y="109"
         width="91.06"
         height="66.75"
         transform="translate(-14.12 26.82) rotate(-6.27)"
         style="fill:#BD07BD;stroke:#263238;stroke-linecap:round;stroke-linejoin:round"
         id="rect29" />
    </clipPath>
  </defs>
  <g
     id="freepik--background-simple--inject-124">
    <path
       d="M58,448.06H269.17c.86-1.36,1.72-2.72,2.6-4.05,22.72-34.59,59.09-59.24,98.83-70.81,17.79-5.18,37.08-8.26,51.38-20.06,14.72-12.13,21.47-31.49,24.4-50.34,3.55-22.83,1.63-48.41-13.86-65.54-18.19-20.12-48.67-22.37-72.37-35.56C319.36,179,303.54,127.31,266.44,99,243,81.11,211.34,74.18,183,78.1c-40.19,5.57-78,32.5-89.36,72a99.81,99.81,0,0,0-3.44,35.41C92.05,209,97.12,232.88,92.34,256c-5.27,25.49-21.86,47-31.77,71.09-12.34,30-14,63.6-8.76,95.58A163.52,163.52,0,0,0,58,448.06Z"
       style="fill:#BD07BD"
       id="path34" />
    <path
       d="M58,448.06H269.17c.86-1.36,1.72-2.72,2.6-4.05,22.72-34.59,59.09-59.24,98.83-70.81,17.79-5.18,37.08-8.26,51.38-20.06,14.72-12.13,21.47-31.49,24.4-50.34,3.55-22.83,1.63-48.41-13.86-65.54-18.19-20.12-48.67-22.37-72.37-35.56C319.36,179,303.54,127.31,266.44,99,243,81.11,211.34,74.18,183,78.1c-40.19,5.57-78,32.5-89.36,72a99.81,99.81,0,0,0-3.44,35.41C92.05,209,97.12,232.88,92.34,256c-5.27,25.49-21.86,47-31.77,71.09-12.34,30-14,63.6-8.76,95.58A163.52,163.52,0,0,0,58,448.06Z"
       style="fill:#fff;opacity:0.7000000000000001"
       id="path36" />
  </g>
  <g
     id="freepik--Window--inject-124">
    <polyline
       points="276.21 123.33 276.21 107.66 433.03 107.66 433.03 264.47 289.83 264.47"
       style="fill:none;stroke:#263238;stroke-linecap:round;stroke-linejoin:round"
       id="polyline39" />
    <line
       x1="276.21"
       y1="264.47"
       x2="276.21"
       y2="131.28"
       style="fill:none;stroke:#263238;stroke-linecap:round;stroke-linejoin:round"
       id="line41" />
    <polyline
       points="283.71 164.9 283.71 115.25 352.33 115.25 352.33 183.87 283.71 183.87 283.71 168.99"
       style="fill:none;stroke:#263238;stroke-linecap:round;stroke-linejoin:round"
       id="polyline43" />
    <polyline
       points="425.53 159.05 425.53 183.87 356.91 183.87 356.91 115.25 425.53 115.25 425.53 151.79"
       style="fill:none;stroke:#263238;stroke-linecap:round;stroke-linejoin:round"
       id="polyline45" />
    <polyline
       points="352.33 188.25 352.33 256.87 283.71 256.87 283.71 188.25 347.26 188.25"
       style="fill:none;stroke:#263238;stroke-linecap:round;stroke-linejoin:round"
       id="polyline47" />
    <polyline
       points="375.53 256.87 356.91 256.87 356.91 188.25 425.53 188.25 425.53 256.87 385.33 256.87"
       style="fill:none;stroke:#263238;stroke-linecap:round;stroke-linejoin:round"
       id="polyline49" />
  </g>
  <g
     id="freepik--Lamp--inject-124">
    <line
       x1="111.3"
       y1="101.51"
       x2="111.3"
       y2="105.42"
       style="fill:none;stroke:#263238;stroke-linecap:round;stroke-linejoin:round"
       id="line52" />
    <line
       x1="111.5"
       y1="76.21"
       x2="111.3"
       y2="99.21"
       style="fill:none;stroke:#263238;stroke-linecap:round;stroke-linejoin:round"
       id="line54" />
    <line
       x1="111.3"
       y1="60.77"
       x2="111.48"
       y2="73.58"
       style="fill:none;stroke:#263238;stroke-linecap:round;stroke-linejoin:round"
       id="line56" />
    <path
       d="M125.15,127.89h4.36c-7.3-27.3-29.12-27.3-36.42,0h19.4"
       style="fill:none;stroke:#263238;stroke-linecap:round;stroke-linejoin:round"
       id="path58" />
    <line
       x1="118.62"
       y1="127.89"
       x2="121.44"
       y2="127.89"
       style="fill:none;stroke:#263238;stroke-linecap:round;stroke-linejoin:round"
       id="line60" />
    <line
       x1="111.3"
       y1="132.94"
       x2="111.3"
       y2="140.26"
       style="fill:none;stroke:#263238;stroke-linecap:round;stroke-linejoin:round"
       id="line62" />
    <line
       x1="120.03"
       y1="132.94"
       x2="122.37"
       y2="138.08"
       style="fill:none;stroke:#263238;stroke-linecap:round;stroke-linejoin:round"
       id="line64" />
    <line
       x1="102.4"
       y1="132.94"
       x2="100.02"
       y2="138.08"
       style="fill:none;stroke:#263238;stroke-linecap:round;stroke-linejoin:round"
       id="line66" />
  </g>
  <g
     id="freepik--Floor--inject-124">
    <line
       x1="34.38"
       y1="448.44"
       x2="460.31"
       y2="448.44"
       style="fill:none;stroke:#263238;stroke-linecap:round;stroke-linejoin:round"
       id="line69" />
  </g>
  <g
     id="freepik--website-2--inject-124">
    <polygon
       points="239.79 263.83 239.79 384.36 223.36 400.78 136.77 400.78 136.77 263.83 239.79 263.83"
       style="fill:#fff;stroke:#263238;stroke-linecap:round;stroke-linejoin:round"
       id="polygon72" />
    <rect
       x="136.77"
       y="263.83"
       width="103.01"
       height="11.67"
       style="fill:#BD07BD;stroke:#263238;stroke-linecap:round;stroke-linejoin:round"
       id="rect74" />
    <polygon
       points="239.86 384.29 223.36 400.78 223.36 384.29 239.86 384.29"
       style="fill:#bfbfbf;stroke:#263238;stroke-linecap:round;stroke-linejoin:round"
       id="polygon76" />
    <path
       d="M188.28,272.3l1.14,3.86s-2.9,1.95-1.14,3.36l1.76,1.41s-1.19,4.13.79,5.22,8.51-.33,10.09-2.77-3.87-4.95-3.87-4.95,1.6-2,.71-2.93-4.06-.53-4.06-.53l-2.17-3.66Z"
       style="fill-opacity:0.7000000000000001;opacity:0.30000000000000004"
       id="path78" />
    <ellipse
       cx="189.42"
       cy="263.03"
       rx="7.34"
       ry="6.88"
       style="fill:#263238"
       id="ellipse80" />
    <path
       d="M196.19,268.82c0,2.76-3,5-6.77,5s-6.77-2.23-6.77-5,3-5,6.77-5S196.19,266.06,196.19,268.82Z"
       style="fill:#263238"
       id="path82" />
    <path
       d="M193.46,267.57a6.12,6.12,0,0,0,1.92-2.24"
       style="fill:none;stroke:#fff;stroke-linecap:round;stroke-linejoin:round"
       id="path84" />
    <path
       d="M183.61,265.63a7,7,0,0,0,5.81,3.19"
       style="fill:none;stroke:#fff;stroke-linecap:round;stroke-linejoin:round"
       id="path86" />
    <rect
       x="142.75"
       y="292.29"
       width="91.06"
       height="55.39"
       style="fill:#263238;stroke:#263238;stroke-linecap:round;stroke-linejoin:round"
       id="rect88" />
    <polygon
       points="176.76 310.22 176.76 333.28 202.07 321.75 176.76 310.22"
       style="fill:#BD07BD;stroke:#263238;stroke-linecap:round;stroke-linejoin:round"
       id="polygon90" />
    <path
       d="M175.61,283.78H143.47a.69.69,0,0,0,0,1.38h32.14a.69.69,0,0,0,0-1.38Z"
       style="fill:#263238"
       id="path92" />
    <path
       d="M232.61,366.78H143.47a.69.69,0,0,0,0,1.38h89.14a.69.69,0,1,0,0-1.38Z"
       style="fill:#263238"
       id="path94" />
    <path
       d="M232.61,372.78H143.47a.69.69,0,0,0,0,1.38h89.14a.69.69,0,1,0,0-1.38Z"
       style="fill:#263238"
       id="path96" />
    <path
       d="M232.61,378.78H143.47a.69.69,0,0,0,0,1.38h89.14a.69.69,0,1,0,0-1.38Z"
       style="fill:#263238"
       id="path98" />
    <path
       d="M212.61,384.78H143.47a.69.69,0,0,0,0,1.38h69.14a.69.69,0,1,0,0-1.38Z"
       style="fill:#263238"
       id="path100" />
    <path
       d="M232.61,360.78H143.47a.69.69,0,0,0,0,1.38h89.14a.69.69,0,1,0,0-1.38Z"
       style="fill:#263238"
       id="path102" />
    <path
       d="M175.61,353.78H143.47a.69.69,0,0,0,0,1.38h32.14a.69.69,0,1,0,0-1.38Z"
       style="fill:#263238"
       id="path104" />
    <rect
       x="142.75"
       y="343.88"
       width="91.06"
       height="3.8"
       style="fill:#bfbfbf;stroke:#263238;stroke-linecap:round;stroke-linejoin:round"
       id="rect106" />
    <rect
       x="142.75"
       y="343.88"
       width="49.61"
       height="3.8"
       style="fill:#BD07BD;stroke:#263238;stroke-linecap:round;stroke-linejoin:round"
       id="rect108" />
  </g>
  <g
     id="freepik--website-1--inject-124">
    <polygon
       points="165.33 164.41 165.33 284.94 148.91 301.36 62.31 301.36 62.31 164.41 165.33 164.41"
       style="fill:#fff;stroke:#263238;stroke-linecap:round;stroke-linejoin:round"
       id="polygon111" />
    <path
       d="M104.89,182.89H69.1a.77.77,0,1,0,0,1.54h35.79a.77.77,0,0,0,0-1.54Z"
       style="fill:#263238"
       id="path113" />
    <path
       d="M126.24,222H94.85a.77.77,0,1,0,0,1.54h31.39a.77.77,0,0,0,0-1.54Z"
       style="fill:#263238"
       id="path115" />
    <path
       d="M126.24,227.32H94.44a.77.77,0,1,0,0,1.54h31.8a.77.77,0,0,0,0-1.54Z"
       style="fill:#263238"
       id="path117" />
    <path
       d="M126.24,232.68H94.44a.77.77,0,1,0,0,1.54h31.8a.77.77,0,0,0,0-1.54Z"
       style="fill:#263238"
       id="path119" />
    <path
       d="M116.11,238.05H94.44a.77.77,0,1,0,0,1.54h21.67a.77.77,0,1,0,0-1.54Z"
       style="fill:#263238"
       id="path121" />
    <path
       d="M126.24,246.77H81.85a.77.77,0,1,0,0,1.54h44.39a.77.77,0,0,0,0-1.54Z"
       style="fill:#263238"
       id="path123" />
    <path
       d="M126.24,252.14H68.44a.77.77,0,1,0,0,1.54h57.8a.77.77,0,0,0,0-1.54Z"
       style="fill:#263238"
       id="path125" />
    <path
       d="M126.24,257.5H68.44a.77.77,0,1,0,0,1.54h57.8a.77.77,0,0,0,0-1.54Z"
       style="fill:#263238"
       id="path127" />
    <path
       d="M126.24,262.87H68.44a.77.77,0,1,0,0,1.54h57.8a.77.77,0,0,0,0-1.54Z"
       style="fill:#263238"
       id="path129" />
    <path
       d="M106.24,268.24H68.44a.77.77,0,0,0,0,1.54h37.8a.77.77,0,0,0,0-1.54Z"
       style="fill:#263238"
       id="path131" />
    <path
       d="M126.24,276.77H81.85a.77.77,0,0,0,0,1.54h44.39a.77.77,0,1,0,0-1.54Z"
       style="fill:#263238"
       id="path133" />
    <path
       d="M126.24,282.14H68.44a.77.77,0,0,0,0,1.54h57.8a.77.77,0,1,0,0-1.54Z"
       style="fill:#263238"
       id="path135" />
    <path
       d="M106.24,287.5H68.44a.77.77,0,1,0,0,1.54h37.8a.77.77,0,0,0,0-1.54Z"
       style="fill:#263238"
       id="path137" />
    <rect
       x="62.32"
       y="164.41"
       width="103.01"
       height="11.67"
       style="fill:#BD07BD;stroke:#263238;stroke-linecap:round;stroke-linejoin:round"
       id="rect139" />
    <path
       d="M113.82,172.88l1.14,3.86s-2.9,1.95-1.14,3.36l1.76,1.41s-1.18,4.13.8,5.22,8.5-.33,10.08-2.77-3.87-5-3.87-5,1.6-2,.71-2.93-4.06-.53-4.06-.53l-2.17-3.66Z"
       style="fill-opacity:0.7000000000000001;opacity:0.30000000000000004"
       id="path141" />
    <path
       d="M122.31,163.61a7.36,7.36,0,1,1-7.35-6.88A7.13,7.13,0,0,1,122.31,163.61Z"
       style="fill:#263238"
       id="path143" />
    <ellipse
       cx="114.96"
       cy="169.4"
       rx="6.77"
       ry="4.99"
       style="fill:#263238"
       id="ellipse145" />
    <path
       d="M119,168.14a6.26,6.26,0,0,0,1.92-2.23"
       style="fill:none;stroke:#fff;stroke-linecap:round;stroke-linejoin:round"
       id="path147" />
    <path
       d="M109.16,166.2a6.93,6.93,0,0,0,5.8,3.2"
       style="fill:none;stroke:#fff;stroke-linecap:round;stroke-linejoin:round"
       id="path149" />
    <line
       x1="134.12"
       y1="179.49"
       x2="134.12"
       y2="298.28"
       style="fill:none;stroke:#263238;stroke-linecap:round;stroke-linejoin:round"
       id="line151" />
    <path
       d="M159,182.89H139.61a.77.77,0,0,0,0,1.54H159a.77.77,0,1,0,0-1.54Z"
       style="fill:#263238"
       id="path153" />
    <path
       d="M159,190.89H139.61a.77.77,0,0,0,0,1.54H159a.77.77,0,1,0,0-1.54Z"
       style="fill:#263238"
       id="path155" />
    <path
       d="M159,198.84H139.61a.77.77,0,1,0,0,1.54H159a.77.77,0,1,0,0-1.54Z"
       style="fill:#263238"
       id="path157" />
    <path
       d="M159,206.79H139.61a.77.77,0,0,0,0,1.54H159a.77.77,0,1,0,0-1.54Z"
       style="fill:#263238"
       id="path159" />
    <path
       d="M159,214.74H139.61a.77.77,0,1,0,0,1.54H159a.77.77,0,0,0,0-1.54Z"
       style="fill:#263238"
       id="path161" />
    <path
       d="M159,222.69H139.61a.77.77,0,1,0,0,1.54H159a.77.77,0,1,0,0-1.54Z"
       style="fill:#263238"
       id="path163" />
    <path
       d="M159,230.64H139.61a.77.77,0,0,0,0,1.54H159a.77.77,0,1,0,0-1.54Z"
       style="fill:#263238"
       id="path165" />
    <path
       d="M159,238.59H139.61a.77.77,0,1,0,0,1.54H159a.77.77,0,1,0,0-1.54Z"
       style="fill:#263238"
       id="path167" />
    <path
       d="M159,246.54H139.61a.77.77,0,0,0,0,1.54H159a.77.77,0,1,0,0-1.54Z"
       style="fill:#263238"
       id="path169" />
    <path
       d="M159,254.49H139.61a.77.77,0,1,0,0,1.54H159a.77.77,0,0,0,0-1.54Z"
       style="fill:#263238"
       id="path171" />
    <path
       d="M159,262.44H139.61a.77.77,0,0,0,0,1.54H159a.77.77,0,0,0,0-1.54Z"
       style="fill:#263238"
       id="path173" />
    <path
       d="M159,270.39H139.61a.77.77,0,1,0,0,1.54H159a.77.77,0,0,0,0-1.54Z"
       style="fill:#263238"
       id="path175" />
    <path
       d="M159,278.34H139.61a.77.77,0,1,0,0,1.54H159a.77.77,0,0,0,0-1.54Z"
       style="fill:#263238"
       id="path177" />
    <path
       d="M159,286.29H139.61a.78.78,0,0,0,0,1.55H159a.78.78,0,0,0,0-1.55Z"
       style="fill:#263238"
       id="path179" />
    <polygon
       points="165.4 284.87 148.91 301.36 148.91 284.87 165.4 284.87"
       style="fill:#bfbfbf;stroke:#263238;stroke-linecap:round;stroke-linejoin:round"
       id="polygon181" />
    <rect
       x="67.97"
       y="189.77"
       width="60.35"
       height="25.74"
       style="fill:#757575;stroke:#263238;stroke-linecap:round;stroke-linejoin:round"
       id="rect183" />
    <polygon
       points="67.97 205.42 69.86 202.64 70.91 203.37 73.02 199.61 74.78 204.1 75.92 203.37 78.17 208.33 80.54 202.64 81.72 203.97 85.02 195.4 87.28 201.86 88.45 201.86 90.3 205.81 91.94 202.64 93.72 207.56 98.14 198.3 100.58 203.37 101.37 201.86 102.17 202.64 105.66 193.81 110.6 207.51 113.25 202.92 113.82 205.02 116.28 200.38 118.25 203.97 119.97 201.07 122.31 205.29 125.9 196.98 127.01 198.84 128.32 195.24 128.32 215.51 67.97 215.51 67.97 205.42"
       style="fill:#999;stroke:#263238;stroke-linecap:round;stroke-linejoin:round"
       id="polygon185" />
    <path
       d="M88.85,230.54v.08A9.83,9.83,0,0,1,79,240.36a9.68,9.68,0,0,1-5.72-1.85A9.82,9.82,0,0,1,79,220.71a9.88,9.88,0,0,1,8,4.08,9.9,9.9,0,0,1,1.86,5.75Z"
       style="fill:#fff;stroke:#263238;stroke-linecap:round;stroke-linejoin:round"
       id="path187" />
    <path
       d="M88.85,230.54A9.83,9.83,0,0,1,79,240.36a9.68,9.68,0,0,1-5.72-1.85l5.72-8,9.45-2.69A9.5,9.5,0,0,1,88.85,230.54Z"
       style="fill:#bfbfbf;stroke:#263238;stroke-miterlimit:10"
       id="path189" />
    <path
       d="M88.85,230.54v.08L79,230.54,83.89,222a9.74,9.74,0,0,1,4.58,5.84A9.5,9.5,0,0,1,88.85,230.54Z"
       style="fill:#999;stroke:#263238;stroke-linecap:round;stroke-linejoin:round"
       id="path191" />
    <path
       d="M87,224.79v0l-8,5.73v-9.83a9.88,9.88,0,0,1,8,4.08Z"
       style="fill:#757575;stroke:#263238;stroke-linecap:round;stroke-linejoin:round"
       id="path193" />
  </g>
  <g
     id="freepik--Character--inject-124">
    <path
       d="M427.77,456.09s-1.35.7-5.61.7a16.87,16.87,0,0,1-5.62-.7l-5.35-52.53-4.65-45.68h11.23l4.61,45.23Z"
       style="fill:#999"
       id="path196" />
    <g
       style="clip-path:url(#freepik--clip-path--inject-124)"
       clip-path="url(#freepik--clip-path--inject-124)"
       id="g200">
      <path
         d="M422.38,403.11q-5.69.47-11.19.45l-4.65-45.68h11.23Z"
         style="fill-opacity:0.7000000000000001;opacity:0.30000000000000004"
         id="path198" />
    </g>
    <path
       d="M427.77,456.09s-1.35.7-5.61.7a16.87,16.87,0,0,1-5.62-.7l-5.35-52.53-4.65-45.68h11.23l4.61,45.23Z"
       style="fill:none;stroke:#263238;stroke-linecap:round;stroke-linejoin:round"
       id="path202" />
    <path
       d="M344.77,357.88l-3,29.32-7,68.89s-1.35.7-5.61.7a16.87,16.87,0,0,1-5.62-.7l7.57-74.35,2.43-23.86Z"
       style="fill:#999"
       id="path204" />
    <g
       style="clip-path:url(#freepik--clip-path-2--inject-124)"
       clip-path="url(#freepik--clip-path-2--inject-124)"
       id="g208">
      <path
         d="M333.54,357.88h11.23l-3,29.32c-4-1.88-7.56-3.74-10.67-5.46Z"
         style="fill-opacity:0.7000000000000001;opacity:0.30000000000000004"
         id="path206" />
    </g>
    <path
       d="M344.77,357.88l-3,29.32-7,68.89s-1.35.7-5.61.7a16.87,16.87,0,0,1-5.62-.7l7.57-74.35,2.43-23.86Z"
       style="fill:none;stroke:#263238;stroke-linecap:round;stroke-linejoin:round"
       id="path210" />
    <path
       d="M381.27,357.88v98.21s-1.35.7-5.61.7a16.87,16.87,0,0,1-5.62-.7V357.88Z"
       style="fill:#999"
       id="path212" />
    <g
       style="clip-path:url(#freepik--clip-path-3--inject-124)"
       clip-path="url(#freepik--clip-path-3--inject-124)"
       id="g216">
      <path
         d="M381.27,357.88v16.35a54.53,54.53,0,0,0-11.23.37V357.88Z"
         style="fill-opacity:0.7000000000000001;opacity:0.30000000000000004"
         id="path214" />
    </g>
    <path
       d="M381.27,357.88v98.21s-1.35.7-5.61.7a16.87,16.87,0,0,1-5.62-.7V357.88Z"
       style="fill:none;stroke:#263238;stroke-linecap:round;stroke-linejoin:round"
       id="path218" />
    <path
       d="M423.2,343.72V359.1a2.74,2.74,0,0,1-2.35,2.64,378.56,378.56,0,0,1-90.39,0,2.74,2.74,0,0,1-2.35-2.64V343.72a2.74,2.74,0,0,1,2.35-2.64,379.61,379.61,0,0,1,90.39,0A2.74,2.74,0,0,1,423.2,343.72Z"
       style="fill:#bfbfbf"
       id="path220" />
    <g
       style="clip-path:url(#freepik--clip-path-4--inject-124)"
       clip-path="url(#freepik--clip-path-4--inject-124)"
       id="g224">
      <path
         d="M423.2,343.72v8.64c-9,3.56-23.28,3.15-38.25,2.67-24.51-.77-26.13-5.55-35.55-4.38-4.25.53-13.27.4-21.29-.53v-6.4a2.74,2.74,0,0,1,2.35-2.64,379.61,379.61,0,0,1,90.39,0A2.74,2.74,0,0,1,423.2,343.72Z"
         style="fill-opacity:0.7000000000000001;opacity:0.30000000000000004"
         id="path222" />
    </g>
    <path
       d="M420.85,361.74a378.56,378.56,0,0,1-90.39,0,2.74,2.74,0,0,1-2.35-2.64V343.72a2.74,2.74,0,0,1,2.35-2.64,379.61,379.61,0,0,1,90.39,0,2.74,2.74,0,0,1,2.35,2.64V359.1A2.74,2.74,0,0,1,420.85,361.74Z"
       style="fill:none;stroke:#263238;stroke-linecap:round;stroke-linejoin:round"
       id="path226" />
    <polygon
       points="283.54 86.57 296.7 206.38 282.17 224.5 196.1 233.95 181.14 97.82 283.54 86.57"
       style="fill:#fff;stroke:#263238;stroke-linecap:round;stroke-linejoin:round"
       id="polygon342" />
    <rect
       x="181.48"
       y="92.16"
       width="103.01"
       height="11.67"
       transform="matrix(0.99, -0.11, 0.11, 0.99, -9.31, 26.03)"
       style="fill:#BD07BD;stroke:#263238;stroke-linecap:round;stroke-linejoin:round"
       id="rect344" />
    <path
       d="M229.57,183l-31.94,3.5a.71.71,0,0,0-.62.77.7.7,0,0,0,.77.61l31.94-3.51a.69.69,0,1,0-.15-1.37Z"
       style="fill:#263238"
       id="path346" />
    <polygon
       points="296.77 206.3 282.17 224.5 280.37 208.1 296.77 206.3"
       style="fill:#bfbfbf;stroke:#263238;stroke-linecap:round;stroke-linejoin:round"
       id="polygon348" />
    <rect
       x="198.82"
       y="192.64"
       width="28.03"
       height="20.55"
       transform="translate(-20.88 24.45) rotate(-6.27)"
       style="fill:#BD07BD"
       id="rect350" />
    <g
       style="clip-path:url(#freepik--clip-path-7--inject-124)"
       clip-path="url(#freepik--clip-path-7--inject-124)"
       id="g354">
      <rect
         x="198.82"
         y="192.64"
         width="28.03"
         height="20.55"
         transform="translate(-20.88 24.45) rotate(-6.27)"
         style="fill:#fff;stroke:#263238;stroke-linecap:round;stroke-linejoin:round;opacity:0.5"
         id="rect352" />
    </g>
    <rect
       x="198.82"
       y="192.64"
       width="28.03"
       height="20.55"
       transform="translate(-20.88 24.45) rotate(-6.27)"
       style="fill:none;stroke:#263238;stroke-linecap:round;stroke-linejoin:round"
       id="rect356" />
    <path
       d="M199.33,208.33s2.59-4.76,5.16-5.05,6.93,5.12,11.08,5.05,6.91-4.93,11.65-2.84"
       style="fill:none;stroke:#263238;stroke-linecap:round;stroke-linejoin:round"
       id="path358" />
    <path
       d="M218.66,195.69a3.16,3.16,0,0,1-2.51,4.67H216a3.16,3.16,0,1,0,2.67-4.66Z"
       style="fill:none;stroke:#263238;stroke-linecap:round;stroke-linejoin:round"
       id="path360" />
    <rect
       x="230.11"
       y="189.06"
       width="28.03"
       height="20.55"
       transform="translate(-20.31 27.85) rotate(-6.27)"
       style="fill:#BD07BD"
       id="rect362" />
    <g
       style="clip-path:url(#freepik--clip-path-8--inject-124)"
       clip-path="url(#freepik--clip-path-8--inject-124)"
       id="g366">
      <rect
         x="230.11"
         y="189.06"
         width="28.03"
         height="20.55"
         transform="translate(-20.31 27.85) rotate(-6.27)"
         style="fill:#fff;stroke:#263238;stroke-linecap:round;stroke-linejoin:round;opacity:0.5"
         id="rect364" />
    </g>
    <rect
       x="230.11"
       y="189.06"
       width="28.03"
       height="20.55"
       transform="translate(-20.31 27.85) rotate(-6.27)"
       style="fill:none;stroke:#263238;stroke-linecap:round;stroke-linejoin:round"
       id="rect368" />
    <polyline
       points="230.27 201.52 242.18 200.34 248.44 204 258.59 202.92"
       style="fill:none;stroke:#263238;stroke-linecap:round;stroke-linejoin:round"
       id="polyline370" />
    <polygon
       points="250.43 191.22 251.62 192.91 253.69 192.89 252.45 194.55 253.11 196.51 251.15 195.84 249.48 197.07 249.52 195 247.83 193.8 249.81 193.19 250.43 191.22"
       style="fill:none;stroke:#263238;stroke-linecap:round;stroke-linejoin:round"
       id="polygon372" />
    <rect
       x="261.41"
       y="185.48"
       width="28.03"
       height="20.55"
       transform="translate(-19.73 31.25) rotate(-6.27)"
       style="fill:#BD07BD"
       id="rect374" />
    <g
       style="clip-path:url(#freepik--clip-path-9--inject-124)"
       clip-path="url(#freepik--clip-path-9--inject-124)"
       id="g378">
      <rect
         x="261.41"
         y="185.48"
         width="28.03"
         height="20.55"
         transform="translate(-19.73 31.25) rotate(-6.27)"
         style="fill:#fff;stroke:#263238;stroke-linecap:round;stroke-linejoin:round;opacity:0.5"
         id="rect376" />
    </g>
    <rect
       x="261.41"
       y="185.48"
       width="28.03"
       height="20.55"
       transform="translate(-19.73 31.25) rotate(-6.27)"
       style="fill:none;stroke:#263238;stroke-linecap:round;stroke-linejoin:round"
       id="rect380" />
    <line
       x1="261.82"
       y1="200.26"
       x2="289.55"
       y2="197.11"
       style="fill:none;stroke:#263238;stroke-linecap:round;stroke-linejoin:round"
       id="line382" />
    <path
       d="M284.61,190.37a3.05,3.05,0,1,1-3.56-2.44A3.06,3.06,0,0,1,284.61,190.37Z"
       style="fill:none;stroke:#263238;stroke-linecap:round;stroke-linejoin:round"
       id="path384" />
    <rect
       x="192.33"
       y="109"
       width="91.06"
       height="66.75"
       transform="translate(-14.12 26.82) rotate(-6.27)"
       style="fill:#BD07BD"
       id="rect386" />
    <g
       style="clip-path:url(#freepik--clip-path-10--inject-124)"
       clip-path="url(#freepik--clip-path-10--inject-124)"
       id="g396">
      <polygon
         points="194.15 161.42 215.9 140.32 231.8 151 241.08 142.01 285.89 162.7 286.75 170.57 196.24 180.51 194.15 161.42"
         style="fill:#757575;opacity:0.4"
         id="polygon388" />
      <path
         d="M267,126a6.5,6.5,0,1,1-7.17-5.75A6.5,6.5,0,0,1,267,126Z"
         style="fill:#fff;opacity:0.4"
         id="path390" />
      <polygon
         points="194.15 161.42 215.9 140.32 231.8 151 241.08 142.01 285.89 162.7 286.75 170.57 196.24 180.51 194.15 161.42"
         style="fill:none;stroke:#263238;stroke-linecap:round;stroke-linejoin:round"
         id="polygon392" />
      <path
         d="M267,126a6.5,6.5,0,1,1-7.17-5.75A6.5,6.5,0,0,1,267,126Z"
         style="fill:none;stroke:#263238;stroke-linecap:round;stroke-linejoin:round"
         id="path394" />
    </g>
    <rect
       x="192.33"
       y="109"
       width="91.06"
       height="66.75"
       transform="translate(-14.12 26.82) rotate(-6.27)"
       style="fill:none;stroke:#263238;stroke-linecap:round;stroke-linejoin:round"
       id="rect398" />
    <path
       d="M231.82,100.25l1.14,3.86s-2.9,2-1.14,3.36l1.76,1.41s-1.18,4.13.79,5.22,8.51-.32,10.09-2.77-3.87-5-3.87-5,1.6-2,.71-2.93-4.06-.53-4.06-.53l-2.17-3.66Z"
       style="fill-opacity:0.7000000000000001;opacity:0.30000000000000004"
       id="path400" />
    <ellipse
       cx="232.96"
       cy="90.98"
       rx="7.34"
       ry="6.88"
       style="fill:#263238"
       id="ellipse402" />
    <path
       d="M239.73,96.77c0,2.76-3,5-6.77,5s-6.77-2.23-6.77-5,3-5,6.77-5S239.73,94,239.73,96.77Z"
       style="fill:#263238"
       id="path404" />
    <path
       d="M237,95.52a6.15,6.15,0,0,0,1.91-2.24"
       style="fill:none;stroke:#fff;stroke-linecap:round;stroke-linejoin:round"
       id="path406" />
    <path
       d="M227.15,93.58A7,7,0,0,0,233,96.77"
       style="fill:none;stroke:#fff;stroke-linecap:round;stroke-linejoin:round"
       id="path408" />
    <path
       d="M330.85,246.2a13.72,13.72,0,0,1,1.56,7.61"
       style="fill:none;stroke:#263238;stroke-linecap:round;stroke-linejoin:round"
       id="path412" />
    <path
       d="M411.16,251.93c1.61-.88,5.31-2.92,7.65-4.11.16-.08.05-.45-.12-.4a15,15,0,0,0-7.71,4.24C410.88,251.77,411,252,411.16,251.93Z"
       style="fill:#263238"
       id="path416" />
  </g>
</svg>
