<svg transform="scale(1)" version="1.1" id="_x30_939_x5F_Folder_x5F_Empty" xmlns="http://www.w3.org/2000/svg" xmlns:xlink="http://www.w3.org/1999/xlink" x="0px" y="0px" width="500px" height="500px" viewBox="0 0 500 500" xml:space="preserve" class="show_show__wrapper__graphic__5Waiy "><title>React</title><style type="text/css">
	.st0{fill:#FFDC32;}
	.st1{fill:#8B08B7;}
	.st2{fill:#FFB0CC;}
	.st3{fill:#000001;}
	.st4{fill:#FFFFFF;}
</style><g id="folder"><polygon class="st0" points="157.05,170.96 381,170.96 336.16,332.76 126.44,332.76 80.66,170.72 94.35,170.72 88.72,149.06 
		138.36,149.06 	"></polygon><polygon class="st1" points="126.83,332.76 173.44,170.92 156.54,170.92 138.15,149.17 88.68,149.17 94.43,170.73 80.66,170.81 	
		"></polygon><ellipse class="st2" cx="292.68" cy="94.74" rx="10.75" ry="4.5"></ellipse><path class="st1" d="M336.16,333.26H126.44c-0.22,0-0.42-0.15-0.48-0.36L80.18,170.86c-0.04-0.15-0.01-0.31,0.08-0.44
		c0.09-0.12,0.24-0.2,0.4-0.2H93.7l-5.46-21.04c-0.04-0.15-0.01-0.31,0.09-0.43c0.09-0.12,0.24-0.19,0.4-0.19h49.64
		c0.15,0,0.29,0.06,0.38,0.18l18.54,21.73H381c0.16,0,0.3,0.07,0.4,0.2c0.09,0.12,0.12,0.29,0.08,0.44l-44.84,161.8
		C336.59,333.11,336.39,333.26,336.16,333.26z M126.82,332.26h208.96l44.56-160.8h-223.3c-0.15,0-0.29-0.06-0.38-0.18l-18.54-21.73
		H89.37l5.46,21.04c0.04,0.15,0.01,0.31-0.09,0.43c-0.09,0.12-0.24,0.19-0.4,0.19H81.32L126.82,332.26z"></path><path class="st3" d="M158.51,314.22c-0.1,0-0.21-0.03-0.29-0.1c-0.21-0.15-0.27-0.43-0.14-0.66l6.61-11.36
		c-5.76,6.2-11.68,10.03-17.98,11.67c-0.26,0.07-0.54-0.09-0.61-0.36c-0.07-0.27,0.09-0.54,0.36-0.61
		c7.42-1.93,14.3-7.02,21.06-15.54c0.16-0.21,0.46-0.25,0.67-0.1s0.28,0.44,0.15,0.67l-7.7,13.21c0.95-0.74,1.97-1.39,3.05-1.95
		c0.26-0.14,0.75-0.39,1.28-0.25c0.53,0.14,0.81,0.57,1.03,0.91c0.06,0.09,0.12,0.18,0.18,0.27c0.67,0.88,2.15,0.81,3.2,0.3
		c0.58-0.28,1.11-0.66,1.67-1.06c0.58-0.41,1.18-0.84,1.85-1.16c2.25-1.07,4.74-0.73,7.15-0.39c1.06,0.15,2.16,0.3,3.21,0.32
		c2.57,0.05,5.01-0.64,7.59-1.38c2.22-0.64,4.51-1.29,6.87-1.41c0.27-0.04,0.51,0.2,0.53,0.47c0.01,0.28-0.2,0.51-0.47,0.53
		c-2.24,0.12-4.48,0.76-6.65,1.38c-2.54,0.73-5.17,1.48-7.89,1.42c-1.1-0.02-2.23-0.18-3.32-0.33c-2.36-0.33-4.6-0.64-6.58,0.31
		c-0.59,0.28-1.13,0.67-1.7,1.07c-0.57,0.41-1.16,0.82-1.82,1.14c-1.45,0.7-3.44,0.71-4.43-0.6c-0.08-0.1-0.15-0.21-0.22-0.33
		c-0.15-0.23-0.29-0.45-0.44-0.49c-0.14-0.03-0.36,0.06-0.57,0.17c-1.99,1.03-3.77,2.39-5.27,4.06
		C158.79,314.16,158.65,314.22,158.51,314.22z"></path><path class="st2" d="M136.14,226.2c-0.04,0-0.07,0-0.11,0c-3.57-0.02-6.33-0.92-8.22-2.67c-1.22-1.13-2.14-2.68-2.91-4.86
		c-0.79-2.25-1.2-4.61-1.27-6.98c-0.29,0.04-0.59,0.06-0.89,0.07c-4,0.1-7.9-2.78-9.58-7c-1.34-3.35-1.4-7.43-0.2-12.13
		c2.63-10.23,9.69-19.64,21.58-28.74c4.15-3.17,8.56-6.11,12.83-8.96c5.63-3.75,11.46-7.63,16.69-12.07
		c8.18-6.94,15.49-15.72,21.73-26.09c0.3-0.5,0.6-1.02,0.91-1.54c-0.22-0.86-0.37-1.7-0.48-2.46c-0.86-5.96-0.4-12.15,1.35-17.91
		c0.67-2.23,1.93-3.46,3.38-3.28c1.39,0.16,2.34,1.55,2.53,3.72c0.65,7.36-2.48,14.42-5.71,20.07c0.34,1.2,0.86,2.4,1.66,3.4
		c3.14,3.91,9.18,3.43,12.5,2.8c8.72-1.66,16.7-6.1,24.42-10.38c3.01-1.67,6.12-3.4,9.24-4.94c12.05-5.97,24.94-9.62,38.32-10.85
		c0.27-0.02,0.52,0.18,0.54,0.45c0.03,0.27-0.18,0.52-0.45,0.54c-13.26,1.22-26.04,4.84-37.97,10.75c-3.1,1.53-6.2,3.26-9.2,4.92
		c-7.79,4.33-15.84,8.8-24.72,10.49c-3.54,0.67-10,1.16-13.47-3.15c-0.7-0.87-1.2-1.86-1.56-2.87c-0.15,0.26-0.3,0.51-0.45,0.76
		c-6.3,10.47-13.68,19.33-21.94,26.34c-5.28,4.48-11.13,8.37-16.79,12.14c-4.26,2.83-8.66,5.77-12.78,8.92
		c-11.7,8.96-18.64,18.19-21.22,28.19c-1.15,4.49-1.1,8.36,0.16,11.51c1.53,3.84,5.03,6.45,8.63,6.37c0.31-0.01,0.61-0.03,0.91-0.08
		c0.09-6.65,2.88-13.3,7.82-17.78c1.47-1.33,2.77-1.81,3.96-1.45c0.98,0.3,1.78,1.19,2.24,2.52c2.24,6.46-4.51,12.4-6.64,14.07
		c-1.72,1.35-3.91,2.87-6.38,3.47c0.05,2.32,0.45,4.64,1.22,6.84c0.71,2.02,1.55,3.44,2.64,4.46c1.7,1.58,4.23,2.39,7.54,2.41
		c0.04,0,0.07,0,0.11,0c5.31,0,10.51-1.83,14.66-5.17c0.22-0.17,0.53-0.14,0.7,0.08c0.17,0.21,0.14,0.53-0.08,0.7
		C147.11,224.29,141.68,226.2,136.14,226.2z M134.62,192.33c-0.72,0-1.54,0.43-2.5,1.3c-4.69,4.25-7.36,10.53-7.49,16.83
		c2.19-0.59,4.18-1.98,5.76-3.22c1.99-1.56,8.33-7.12,6.31-12.96c-0.2-0.59-0.68-1.61-1.58-1.89
		C134.96,192.35,134.79,192.33,134.62,192.33z M190.7,92.56c-1.01,0-1.78,1.32-2.16,2.59c-1.7,5.62-2.16,11.66-1.31,17.47
		c0.06,0.42,0.13,0.85,0.22,1.31c2.95-5.35,5.64-11.85,5.05-18.55c-0.11-1.28-0.61-2.69-1.65-2.81
		C190.8,92.56,190.75,92.56,190.7,92.56z"></path><path class="st1" d="M292.68,99.74c-6.31,0-11.25-2.2-11.25-5s4.94-5,11.25-5s11.25,2.2,11.25,5S298.99,99.74,292.68,99.74z
		 M292.68,90.74c-6.13,0-10.25,2.07-10.25,4s4.12,4,10.25,4s10.25-2.07,10.25-4S298.81,90.74,292.68,90.74z"></path><path class="st1" d="M288.98,90.83c-0.11,0-0.23-0.04-0.32-0.12c-1.9-1.61-3.44-3.66-4.45-5.94c-0.81-1.82-0.99-3.32-0.54-4.6
		c0.06-0.19,0.16-0.43,0.36-0.62c0.19-0.19,0.44-0.32,0.77-0.4c1.03-0.25,2.24,0.05,3.23,0.81c0.86,0.66,1.48,1.55,2.03,2.42
		c1.45,2.32,2.62,4.82,3.46,7.42c0.08,0.26-0.06,0.54-0.32,0.63c-0.26,0.09-0.54-0.06-0.63-0.32c-0.82-2.52-1.95-4.94-3.36-7.2
		c-0.57-0.91-1.1-1.63-1.79-2.16c-0.75-0.58-1.65-0.81-2.38-0.63c-0.15,0.04-0.25,0.08-0.3,0.13c-0.05,0.06-0.1,0.17-0.13,0.25
		c-0.36,1.03-0.19,2.29,0.51,3.87c0.95,2.14,2.4,4.07,4.18,5.58c0.21,0.18,0.24,0.49,0.06,0.7
		C289.26,90.77,289.12,90.83,288.98,90.83z"></path><path class="st1" d="M293.82,89.98c-0.06,0-0.12-0.01-0.18-0.03c-0.26-0.1-0.39-0.39-0.29-0.65c0.83-2.15,1.55-4.36,2.15-6.57
		c0.2-0.75,0.37-1.48,0.24-2.14c-0.11-0.55-0.54-1.15-1.11-1.19c-0.44-0.04-0.93,0.27-1.46,0.88c-0.97,1.12-1.65,2.48-1.96,3.93
		c-0.06,0.27-0.33,0.44-0.59,0.38c-0.27-0.06-0.44-0.32-0.38-0.59c0.35-1.61,1.1-3.13,2.18-4.37c0.75-0.86,1.5-1.27,2.29-1.22
		c1.08,0.07,1.84,1.06,2.03,1.99c0.17,0.88-0.02,1.73-0.26,2.6c-0.61,2.25-1.34,4.49-2.18,6.67
		C294.21,89.86,294.02,89.98,293.82,89.98z"></path><path class="st1" d="M297.25,99.07c-0.22,0-0.42-0.15-0.48-0.37c-0.71-2.59-0.56-5.4,0.43-7.9c0.1-0.26,0.39-0.38,0.65-0.28
		c0.26,0.1,0.38,0.39,0.28,0.65c-0.91,2.3-1.05,4.89-0.39,7.27c0.07,0.27-0.08,0.54-0.35,0.61
		C297.34,99.06,297.3,99.07,297.25,99.07z"></path><path class="st1" d="M292.36,99.49c-0.21,0-0.41-0.13-0.48-0.35c-0.92-2.84-0.51-5.91-0.15-8.61c0.04-0.27,0.29-0.47,0.56-0.43
		c0.27,0.04,0.47,0.29,0.43,0.56c-0.35,2.6-0.74,5.54,0.11,8.17c0.08,0.26-0.06,0.54-0.32,0.63
		C292.46,99.48,292.41,99.49,292.36,99.49z"></path><path class="st1" d="M288.29,98.88c-0.23,0-0.44-0.17-0.49-0.4c-0.47-2.42-0.44-4.97,0.08-7.38c0.06-0.27,0.33-0.44,0.6-0.38
		c0.27,0.06,0.44,0.33,0.38,0.6c-0.5,2.27-0.53,4.68-0.08,6.97c0.05,0.27-0.12,0.53-0.39,0.59
		C288.35,98.88,288.32,98.88,288.29,98.88z"></path><path class="st1" d="M285.8,98.18c-0.2,0-0.39-0.12-0.47-0.32c-0.76-1.98-0.93-4.21-0.48-6.28c0.06-0.27,0.32-0.44,0.6-0.38
		c0.27,0.06,0.44,0.33,0.38,0.6c-0.41,1.88-0.26,3.91,0.44,5.71c0.1,0.26-0.03,0.55-0.29,0.65
		C285.92,98.17,285.86,98.18,285.8,98.18z"></path></g><g id="magnifier"><g id="colors"><ellipse class="st2" transform="matrix(0.9086 -0.4177 0.4177 0.9086 -74.6999 165.3151)" cx="340.34" cy="253.32" rx="60.86" ry="71.25"></ellipse><ellipse class="st4" transform="matrix(0.9086 -0.4177 0.4177 0.9086 -73.552 166.1856)" cx="342.9" cy="251.13" rx="48.23" ry="61.35"></ellipse><path class="st1" d="M370.75,329.42c1.2,7.48,3.51,14.79,6.83,21.6c0,0,29.91,69.01,30.81,69.5c1.69,0.9,3.74,0.43,5.58-0.05
			c1.3-0.34,2.65-0.71,3.63-1.63c1.06-0.99,1.51-2.46,1.8-3.9c0,0-32.33-78.82-32.46-79.23c-2.84-3.98-5.68-7.97-8.53-11.96
			C376.52,325.71,374.03,327.12,370.75,329.42z"></path><path class="st3" d="M376.93,314.54c-3.9,2.51-8.1,4.55-12.49,6.03c0,0,4.52,9.19,4.41,9.48c2.2-0.89,4.49-1.52,6.62-2.55
			c2.14-1.03,4.16-2.49,5.26-4.58L376.93,314.54z"></path><ellipse class="st1" cx="322.25" cy="262.52" rx="6" ry="7.88"></ellipse><ellipse class="st1" cx="346.34" cy="255.27" rx="6" ry="7.88"></ellipse><ellipse class="st1" cx="368.84" cy="248.27" rx="6" ry="7.88"></ellipse></g><g id="line"><path class="st3" d="M368.69,330.16c0.04,0.01,0.08,0.01,0.12,0.01c0.35-0.03,8.48-0.74,12.33-6.81c0.09-0.13,0.1-0.31,0.03-0.46
			l-3.85-8.51c-0.11-0.24-0.4-0.35-0.64-0.24c-0.24,0.11-0.35,0.4-0.24,0.64l3.74,8.27c-3.23,4.8-9.59,5.91-11.11,6.1
			c-0.85-1.82-1.7-3.63-2.55-5.45l-1.67-3.57c-0.11-0.24-0.4-0.35-0.64-0.24c-0.24,0.11-0.35,0.4-0.24,0.64l1.67,3.57
			c0.9,1.92,1.8,3.85,2.7,5.77C368.39,330.03,368.53,330.13,368.69,330.16z"></path><path class="st3" d="M376.4,348.78c0.09,0.01,0.18,0.01,0.26-0.03c0.25-0.1,0.36-0.39,0.26-0.64l-2.65-6.52
			c-0.96-3.74-1.93-7.53-2.89-11.34c-0.07-0.26-0.33-0.41-0.59-0.35c-0.26,0.07-0.41,0.33-0.36,0.59c0.97,3.81,1.93,7.6,2.91,11.4
			l2.67,6.58C376.08,348.65,376.23,348.76,376.4,348.78z"></path><path class="st3" d="M375.63,341.5c0.03,0,0.06,0.01,0.09,0c3.1-0.09,6.11-1.27,8.45-3.32c0.2-0.17,0.22-0.49,0.05-0.69
			c-0.17-0.2-0.49-0.22-0.68-0.05c-2.14,1.87-5,2.99-7.85,3.07c-0.27,0.01-0.48,0.23-0.47,0.5
			C375.22,341.27,375.4,341.46,375.63,341.5z"></path><path class="st3" d="M382.28,335.1c0.11,0.02,0.23,0,0.32-0.07c0.23-0.14,0.3-0.43,0.16-0.66l-1.04-1.72
			c-0.73-1.2-1.46-2.39-2.19-3.58c-0.14-0.23-0.43-0.3-0.67-0.16c-0.23,0.14-0.3,0.43-0.16,0.67c0.73,1.19,1.46,2.39,2.19,3.58
			l1.04,1.72C382.02,335,382.14,335.08,382.28,335.1z"></path><path class="st3" d="M379.19,336.74c0.09,0.01,0.18,0.01,0.27-0.04c0.24-0.11,0.35-0.4,0.25-0.64c-0.8-1.84-1.69-3.69-2.67-5.5
			c-0.13-0.24-0.42-0.32-0.66-0.2c-0.24,0.13-0.32,0.42-0.2,0.66c0.96,1.79,1.85,3.62,2.64,5.43
			C378.89,336.61,379.03,336.71,379.19,336.74z"></path><path class="st3" d="M376.12,337.82c0.08,0.01,0.17,0.01,0.24-0.02c0.25-0.09,0.38-0.37,0.28-0.62c-0.62-1.64-1.15-3.36-1.59-5.13
			c-0.07-0.26-0.33-0.42-0.58-0.35c-0.26,0.07-0.41,0.33-0.35,0.58c0.45,1.79,1,3.56,1.63,5.23
			C375.81,337.68,375.96,337.79,376.12,337.82z"></path><path class="st3" d="M404.54,379.9c0.09,0.01,0.18,0.01,0.26-0.03c0.25-0.1,0.36-0.39,0.25-0.64l-18.26-43.37
			c-2.22-3.54-4.3-6.68-6.37-9.69c-0.15-0.22-0.46-0.28-0.68-0.12c-0.22,0.15-0.28,0.46-0.12,0.68c2.07,3,4.13,6.13,6.32,9.6
			l18.22,43.3C404.24,379.78,404.38,379.88,404.54,379.9z"></path><path class="st3" d="M389.72,379.49c0.09,0.01,0.17,0.01,0.25-0.03c0.25-0.1,0.37-0.38,0.27-0.63c-1.75-4.38-3.65-8.74-5.65-12.96
			c-0.11-0.24-0.41-0.35-0.64-0.24c-0.24,0.11-0.35,0.41-0.24,0.64c1.99,4.2,3.87,8.54,5.62,12.89
			C389.41,379.35,389.56,379.46,389.72,379.49z"></path><path class="st3" d="M411.3,421.61c2.42-0.09,4.83-1.21,6.45-3c0.02-0.03,0.05-0.05,0.06-0.09l1.97-3.43
			c0.08-0.13,0.08-0.29,0.03-0.43l-8.54-19.97c-0.11-0.24-0.39-0.36-0.64-0.25c-0.24,0.11-0.36,0.39-0.25,0.64l8.45,19.75L417,418
			c-1.45,1.57-3.57,2.56-5.7,2.65c-0.3-0.06-2.06-0.44-3.29-0.71l-7.78-18.13c-0.45-1.09-0.9-2.19-1.34-3.29l-0.68-1.69
			c-0.1-0.25-0.38-0.37-0.64-0.26c-0.25,0.1-0.36,0.39-0.26,0.64l0.68,1.68c0.45,1.1,0.89,2.2,1.35,3.31l7.88,18.37
			c0.06,0.15,0.19,0.24,0.34,0.28C410.26,421.43,411.01,421.59,411.3,421.61L411.3,421.61z"></path><path class="st4" d="M284.09,238.96c0.21,0.03,0.41,0.04,0.62,0.03c1.31-0.06,2.36-0.97,3.2-1.72l1.54-1.37
			c1.06-0.94,2.12-1.88,3.19-2.82c0.2-0.17,0.22-0.49,0.05-0.68c-0.17-0.2-0.49-0.22-0.68-0.05c-1.07,0.94-2.13,1.88-3.19,2.82
			l-1.54,1.37c-0.76,0.67-1.63,1.43-2.61,1.47c-0.65,0.04-1.37-0.26-1.97-0.83c-0.57-0.55-0.97-1.29-1.33-2.01
			c-0.79-1.64-1.32-3.39-1.6-5.19c-0.04-0.26-0.28-0.45-0.56-0.41c-0.26,0.04-0.45,0.28-0.41,0.56c0.29,1.89,0.86,3.73,1.68,5.46
			c0.4,0.8,0.85,1.63,1.52,2.28C282.64,238.47,283.37,238.85,284.09,238.96z"></path><path class="st4" d="M283.4,258.86c0.89,0.14,1.78-0.07,2.41-0.6c0.48-0.42,0.78-0.97,1-1.47c0.34-0.73,0.62-1.5,0.89-2.25
			c0.32-0.88,0.65-1.79,1.08-2.62c0.51-1,1.64-2.75,3.47-3.19c0.26-0.06,0.42-0.33,0.35-0.58c-0.07-0.26-0.33-0.42-0.58-0.35
			c-2.2,0.54-3.52,2.54-4.1,3.69c-0.45,0.88-0.79,1.82-1.12,2.73c-0.27,0.72-0.54,1.48-0.86,2.17c-0.19,0.4-0.41,0.85-0.75,1.13
			c-0.56,0.47-1.47,0.55-2.3,0.19c-0.69-0.31-1.34-0.87-2.03-1.78c-1.24-1.61-2.16-3.47-2.65-5.37c-0.07-0.26-0.33-0.41-0.59-0.35
			c-0.26,0.07-0.41,0.33-0.35,0.59c0.52,2.02,1.5,4,2.81,5.71c0.5,0.65,1.3,1.58,2.41,2.08C282.79,258.73,283.1,258.81,283.4,258.86
			z"></path><path class="st4" d="M292.34,291.54c0.06,0.01,0.13,0.01,0.19-0.01c0.26-0.06,0.42-0.33,0.36-0.58
			c-1.83-7.76-0.69-16.92,3.4-27.23c0.1-0.25-0.03-0.53-0.28-0.63c-0.25-0.1-0.53,0.03-0.63,0.28c-4.23,10.64-5.35,19.74-3.44,27.81
			C292,291.37,292.15,291.51,292.34,291.54z"></path><path class="st4" d="M313.67,311.77c1.38,0.21,2.81,0.15,4.18-0.24c3.91-1.13,7.03-4.69,7.75-8.86c0.05-0.27-0.13-0.51-0.39-0.56
			c-0.31-0.04-0.51,0.13-0.56,0.39c-0.66,3.82-3.5,7.07-7.07,8.11c-3.67,1.06-7.92-0.5-9.85-3.6c-1.22-1.95-1.57-4.35-1.74-6.44
			c-0.45-5.33,0.01-10.67,1.35-15.84c0.07-0.25-0.09-0.52-0.35-0.59c-0.27-0.06-0.52,0.09-0.59,0.35
			c-1.37,5.28-1.83,10.72-1.38,16.17c0.18,2.2,0.56,4.75,1.89,6.88C308.34,309.81,310.91,311.35,313.67,311.77z"></path><path class="st4" d="M332.48,320.97c0.1,0.01,0.2,0,0.29-0.04c4.44-2.21,7.48-6.84,7.75-11.79c0.01-0.26-0.19-0.48-0.46-0.51
			c-0.26-0.01-0.5,0.19-0.51,0.46c-0.24,4.6-3.08,8.91-7.21,10.97c-0.24,0.12-0.34,0.41-0.22,0.65
			C332.19,320.85,332.32,320.94,332.48,320.97z"></path><path class="st4" d="M340.49,322.76c0.15,0.02,0.31-0.03,0.43-0.15c0.19-0.2,0.18-0.5-0.02-0.69c-0.89-0.84-1.19-2.31-0.76-3.74
			c0.35-1.14,1.11-2.22,2.44-3.5c1.74-1.67,3.72-3.04,5.9-4.09c0.24-0.12,0.35-0.41,0.23-0.65s-0.41-0.35-0.64-0.23
			c-2.28,1.09-4.34,2.52-6.14,4.27c-0.91,0.87-2.17,2.22-2.7,3.92c-0.54,1.78-0.14,3.64,1.02,4.73
			C340.3,322.7,340.39,322.75,340.49,322.76z"></path><path class="st4" d="M357.17,322.37c0.2,0.03,0.4-0.07,0.5-0.26c3.04-5.79,7.03-10.96,11.85-15.36c0.19-0.18,0.21-0.49,0.04-0.68
			c-0.19-0.2-0.49-0.21-0.68-0.04c-4.9,4.48-8.96,9.73-12.05,15.62c-0.12,0.24-0.03,0.53,0.2,0.66
			C357.07,322.35,357.12,322.37,357.17,322.37z"></path><path class="st4" d="M377.09,301.85c0.11,0.02,0.23,0,0.33-0.07c4.51-2.87,10.18-2.97,14.62-2.74c0.26,0.01,0.5-0.19,0.51-0.46
			c0.01-0.26-0.2-0.49-0.46-0.51c-4.58-0.24-10.45-0.12-15.19,2.89c-0.23,0.14-0.29,0.45-0.15,0.67
			C376.83,301.75,376.96,301.83,377.09,301.85z"></path><path class="st4" d="M389.29,285.16c0.15,0.02,0.31-0.03,0.43-0.15c3.06-3.24,7.12-5.56,11.45-6.53c0.26-0.06,0.42-0.32,0.36-0.58
			c-0.06-0.26-0.32-0.42-0.58-0.36c-4.52,1.01-8.76,3.43-11.95,6.81c-0.19,0.2-0.18,0.5,0.02,0.69
			C389.11,285.11,389.2,285.15,389.29,285.16z"></path><path class="st4" d="M393.56,261.8c0.01,0,0.02,0,0.02,0c0.27,0.03,0.51-0.17,0.54-0.43c0.28-2.73,0.94-5.37,1.97-7.85
			c0.62-1.51,1.55-3.39,3.14-4.54c0.32-0.24,1.45-0.96,2.39-0.51c0.25,0.12,0.53,0.02,0.65-0.22c0.11-0.24,0.02-0.53-0.22-0.65
			c-0.96-0.47-2.23-0.25-3.39,0.59c-1.79,1.3-2.78,3.33-3.46,4.96c-1.06,2.56-1.74,5.29-2.03,8.11
			C393.12,261.53,393.31,261.76,393.56,261.8z"></path><path class="st4" d="M392.5,250.52L392.5,250.52c0.28,0.03,0.51-0.16,0.55-0.42c0.73-5.7,2.32-11.26,4.75-16.52
			c0.12-0.25,0-0.53-0.23-0.64c-0.24-0.11-0.53,0-0.64,0.23c-2.47,5.35-4.09,11-4.83,16.8C392.06,250.24,392.24,250.48,392.5,250.52
			z"></path><path class="st4" d="M379.07,218.5c0.01,0,0.02,0,0.03,0c0.27,0.03,0.51-0.17,0.53-0.44c0.3-3.07,0.44-6.02-1.19-8.33
			c-0.87-1.24-2.14-2.11-3.37-2.96c-1.5-1.02-2.91-2-3.52-3.54c-0.42-1.05-0.36-2.23-0.32-3.47c0.04-0.94,0.08-1.91-0.09-2.86
			c-0.05-0.26-0.3-0.44-0.56-0.39c-0.26,0.05-0.44,0.3-0.39,0.56c0.15,0.85,0.12,1.72,0.08,2.65c-0.05,1.29-0.11,2.61,0.38,3.86
			c0.72,1.82,2.32,2.91,3.87,3.99c1.15,0.79,2.35,1.62,3.12,2.71c1.43,2.04,1.3,4.8,1.01,7.68
			C378.64,218.23,378.83,218.47,379.07,218.5z"></path><path class="st4" d="M382.6,224.02c0.05,0.01,0.1,0.01,0.15,0c0.26-0.04,0.45-0.28,0.41-0.56c-0.69-4.44-0.14-8.96,1.59-13.08
			c0.11-0.25-0.02-0.53-0.26-0.64c-0.25-0.11-0.53,0.02-0.64,0.26c-1.8,4.28-2.37,8.99-1.65,13.6
			C382.23,223.82,382.4,223.99,382.6,224.02z"></path><path class="st4" d="M330.51,192.47c0.2,0.03,0.41-0.06,0.51-0.26c0.82-1.61,1.94-2.93,3.25-3.82c1.46-0.98,3.14-1.4,4.7-1.19
			c0.84,0.12,1.73,0.42,2.71,0.92c2.84,1.42,5.29,3.72,6.89,6.5c0.13,0.24,0.43,0.31,0.66,0.18c0.24-0.13,0.31-0.43,0.18-0.66
			c-1.69-2.94-4.28-5.37-7.29-6.87c-1.07-0.55-2.05-0.88-3.01-1.01c-1.81-0.25-3.71,0.24-5.37,1.34c-1.45,0.97-2.69,2.42-3.58,4.18
			c-0.12,0.24-0.02,0.53,0.21,0.65C330.41,192.45,330.46,192.47,330.51,192.47z"></path><path class="st4" d="M325.15,193.18c0.01,0,0.01,0,0.02,0c0.27,0.03,0.5-0.16,0.54-0.43c0.37-3.06,1.69-6.04,3.7-8.4
			c0.18-0.2,0.15-0.51-0.05-0.68c-0.2-0.18-0.51-0.15-0.68,0.05c-2.13,2.5-3.53,5.67-3.91,8.91
			C324.71,192.91,324.89,193.14,325.15,193.18z"></path><path class="st4" d="M286.57,215.32c0.05,0.01,0.1,0.01,0.15,0.01c1.18,0.1,2.2-0.6,2.87-1.15c1.66-1.37,2.91-3.14,4.14-4.85
			c0.56-0.8,1.15-1.63,1.77-2.39c0.51-0.65,1.09-1.29,1.82-1.68c0.72-0.4,1.53-0.47,2.13-0.18c1.08,0.51,1.4,2.01,1.57,3.42
			c0.03,0.27,0.27,0.45,0.54,0.43c0.27-0.03,0.45-0.27,0.43-0.54c-0.2-1.67-0.61-3.47-2.12-4.18c-0.89-0.43-2.02-0.35-3.01,0.22
			c-0.88,0.47-1.53,1.21-2.11,1.92c-0.63,0.79-1.22,1.63-1.79,2.43c-1.18,1.66-2.39,3.38-3.96,4.66c-0.85,0.69-1.54,0.99-2.17,0.93
			c-0.37-0.03-0.76-0.27-0.97-0.6c-0.09-0.16-0.19-0.4-0.1-0.65c0.1-0.25-0.03-0.53-0.28-0.63c-0.25-0.1-0.53,0.03-0.63,0.28
			c-0.19,0.49-0.13,1.03,0.18,1.52C285.34,214.84,285.94,215.23,286.57,215.32z"></path><path class="st1" d="M345.47,310.41c8.11,1.24,16.05,0.22,23.25-3.1c11.85-5.44,20.28-16.42,23.76-30.9
			c3.47-14.43,1.57-30.65-5.31-45.63c-6.89-14.99-17.96-26.97-31.18-33.74c-13.26-6.8-27.08-7.54-38.92-2.09
			c-24.41,11.22-32.68,45.56-18.44,76.53c6.89,14.99,17.96,26.97,31.18,33.74C335,307.88,340.26,309.62,345.47,310.41z
			 M340.18,192.81c5.11,0.78,10.27,2.47,15.36,5.09c13.02,6.67,23.94,18.49,30.74,33.28c6.8,14.79,8.66,30.78,5.25,45
			c-3.4,14.19-11.64,24.93-23.21,30.25c-11.57,5.32-25.09,4.58-38.07-2.07c-13.02-6.67-23.94-18.49-30.74-33.28
			c-14.02-30.5-5.96-64.25,17.96-75.25C324.51,192.6,332.27,191.6,340.18,192.81z"></path><path class="st1" d="M339.16,322.72c10.74,1.64,21.41,0.24,31.14-4.23c30.73-14.12,42.29-54.85,25.77-90.79
			c-8-17.4-21.3-31.09-37.48-38.57c-16.19-7.49-33.32-7.84-48.22-0.99c-30.73,14.13-42.29,54.85-25.77,90.79
			c8,17.4,21.3,31.09,37.48,38.57C327.7,320.11,333.45,321.84,339.16,322.72z M341.37,184.87c5.63,0.86,11.28,2.57,16.82,5.13
			c15.96,7.38,29.1,20.9,37,38.1c16.29,35.45,4.95,75.6-25.3,89.51c-14.64,6.73-31.47,6.38-47.41-0.98
			c-15.96-7.38-29.1-20.9-37-38.1c-16.29-35.45-4.95-75.61,25.3-89.51C320.33,184.63,330.81,183.25,341.37,184.87z"></path><path class="st1" d="M342.22,319.58c10.47,1.6,21.19,0.7,31.04-2.8c0.25-0.09,0.38-0.36,0.29-0.62c-0.09-0.25-0.36-0.38-0.62-0.29
			c-15.55,5.51-33.33,4.49-48.77-2.81c-14.75-6.98-27.2-19.85-34.18-35.28c-6.75-14.93-8.58-32.37-5.17-49.11
			c1.19-5.88,3.04-11.7,5.48-17.31c1.79-4.04,4.71-9.88,9.49-13.87c0.2-0.17,0.23-0.47,0.07-0.69c-0.17-0.2-0.47-0.23-0.69-0.07
			c-4.94,4.12-7.93,10.09-9.76,14.23c-2.48,5.67-4.35,11.55-5.55,17.51c-3.45,16.94-1.59,34.59,5.24,49.71
			c7.07,15.64,19.69,28.68,34.65,35.76C329.66,316.72,335.9,318.61,342.22,319.58z"></path><path class="st1" d="M305.27,235.31c1.94,0.3,4.21-0.63,6.51-2.69c2.64-2.35,5.06-5.93,6.8-10.09c1.74-4.15,2.61-8.38,2.43-11.92
			c-0.17-3.66-1.45-6.17-3.59-7.07c-2.14-0.9-4.82-0.04-7.55,2.39c-2.64,2.35-5.06,5.93-6.8,10.09c-1.74,4.15-2.61,8.38-2.43,11.92
			c0.17,3.66,1.45,6.17,3.59,7.07C304.56,235.15,304.9,235.25,305.27,235.31z M316.24,204.21c0.28,0.04,0.55,0.11,0.82,0.23l0,0
			c1.77,0.74,2.83,2.95,2.99,6.22c0.17,3.4-0.67,7.48-2.36,11.49c-1.68,4.02-4.01,7.48-6.55,9.74c-2.44,2.18-4.76,2.97-6.53,2.23
			c-1.77-0.74-2.83-2.95-2.99-6.22c-0.17-3.4,0.67-7.48,2.36-11.49s4.01-7.48,6.55-9.74C312.61,204.81,314.6,203.96,316.24,204.21z"></path><path class="st1" d="M304.03,247.89c0.11,0.02,0.21,0.02,0.33,0.03c0.9,0.01,1.73-0.5,2.35-1.43c0.57-0.86,0.9-2.01,0.92-3.22l0,0
			c0.03-2.63-1.37-4.71-3.16-4.73c-1.8-0.02-3.23,2.03-3.26,4.66C301.16,245.65,302.39,247.64,304.03,247.89z M306.64,243.25
			c-0.01,1.03-0.27,1.99-0.75,2.7c-0.43,0.65-0.98,1-1.53,0.99c-1.21-0.02-2.22-1.73-2.2-3.75c0.02-2.02,1.07-3.71,2.28-3.7
			C305.66,239.51,306.67,241.23,306.64,243.25L306.64,243.25z M380.19,187.84c-0.09,0-0.19-0.03-0.27-0.08
			c-0.23-0.15-0.3-0.46-0.15-0.69l7.68-11.85c0.08-0.12,0.21-0.2,0.35-0.22c0.14-0.02,0.29,0.02,0.4,0.12l1.93,1.72l9.23-14.8
			c0.15-0.23,0.46-0.3,0.69-0.16c0.23,0.15,0.31,0.45,0.16,0.69l-9.54,15.3c-0.08,0.12-0.21,0.21-0.35,0.23
			c-0.15,0.02-0.29-0.02-0.4-0.12l-1.93-1.72l-7.37,11.36C380.52,187.76,380.36,187.84,380.19,187.84z M380.58,195.4
			c-0.13,0-0.26-0.05-0.36-0.15c-0.19-0.2-0.19-0.51,0.01-0.71l7.81-7.68c0.12-0.12,0.29-0.16,0.45-0.13
			c0.16,0.03,0.3,0.14,0.36,0.3l1.26,3l12.67-11.62c0.2-0.19,0.52-0.17,0.71,0.03c0.19,0.2,0.17,0.52-0.03,0.71l-13.19,12.1
			c-0.12,0.11-0.28,0.16-0.44,0.12c-0.16-0.03-0.29-0.14-0.35-0.29l-1.25-2.97l-7.29,7.17C380.83,195.35,380.71,195.4,380.58,195.4z
			 M387.37,201.29c-0.14,0-0.29-0.06-0.39-0.18c-0.17-0.21-0.14-0.53,0.07-0.7l5.19-4.23c0.14-0.12,0.34-0.15,0.51-0.07
			c0.17,0.07,0.29,0.24,0.3,0.42l0.21,2.98l11.83-5.58c0.25-0.12,0.55-0.01,0.67,0.24c0.12,0.25,0.01,0.55-0.24,0.67l-12.49,5.89
			c-0.15,0.07-0.32,0.06-0.47-0.02c-0.14-0.08-0.23-0.23-0.25-0.4l-0.19-2.75l-4.44,3.62C387.59,201.25,387.48,201.29,387.37,201.29
			z"></path></g></g></svg>