<svg xmlns="http://www.w3.org/2000/svg" viewBox="0 0 500 500"><g id="freepik--Floor--inject-95"><ellipse id="freepik--floor--inject-95" cx="250" cy="335.21" rx="222.46" ry="128.44" style="fill:#f5f5f5"></ellipse></g><g id="freepik--Shadow--inject-95"><path id="freepik--shadow--inject-95" d="M186,345.44l23,13.27a5.49,5.49,0,0,0,5,0l92.81-53.64c1.37-.79,1.36-2.06,0-2.85L283.62,289a5.51,5.51,0,0,0-5,0L186,342.58C184.67,343.37,184.67,344.65,186,345.44Z" style="fill:#e0e0e0"></path><ellipse id="freepik--shadow--inject-95" cx="390.39" cy="351.26" rx="50.29" ry="29.04" style="fill:#e0e0e0"></ellipse><ellipse id="freepik--shadow--inject-95" cx="110.94" cy="351.26" rx="50.29" ry="29.04" style="fill:#e0e0e0"></ellipse></g><g id="freepik--Plants--inject-95"><g id="freepik--plants--inject-95"><path d="M93.83,323.69s-1.43-12.6-7.69-22.38S71.26,285.44,63.23,284.8s-14.52,6.76-5.93,11.83,23.87,10.26,30.9,29.24Z" style="fill:#BA68C8"></path><path d="M93.83,323.69s-1.43-12.6-7.69-22.38S71.26,285.44,63.23,284.8s-14.52,6.76-5.93,11.83,23.87,10.26,30.9,29.24Z" style="opacity:0.15"></path><path d="M91.48,320.41l.08,0a.43.43,0,0,0,.24-.56c-8.48-20.88-24.62-29.59-32-31.29a.43.43,0,0,0-.51.32.43.43,0,0,0,.32.52c7.2,1.66,23,10.22,31.37,30.77A.4.4,0,0,0,91.48,320.41Z" style="fill:#fff"></path><path d="M48.57,320.66c.73,1.64,2.52,2.49,4.18,3.17s3.47,1.39,4.37,2.94c1.82,3.13-1.16,7.53.79,10.58a5.58,5.58,0,0,0,3.83,2.22c1.24.23,2.5.23,3.76.34a15.07,15.07,0,0,0,1.79-.14,8.15,8.15,0,0,1,5.18.55c2.49,1.4,3.25,4.54,4.77,7a11.81,11.81,0,0,0,8.38,5.26c1.12.14,3.2.35,4.34-.29l.23-.15,0,0c.15-.18.35-.4.43-.52a.22.22,0,0,0,0-.08c.44-1.62-.28-3.31-.31-5,0-.1,0-.2,0-.3.07-1.95.13-3.89.17-5.84q.14-5.37.11-10.74c0-2.33.25-4.88-.73-7.07-1.09-2.41-3.8-2.46-4.83-4.83-.41-.94-.62-2-1-2.9a8.34,8.34,0,0,0-7.1-5c-4.73-.24-9,3.59-13.7,3.24a32.24,32.24,0,0,1-3.63-.69c-3.83-.71-8.26.38-10.41,3.62A5,5,0,0,0,48.57,320.66Z" style="fill:#BA68C8"></path><path d="M91.08,344h0a.4.4,0,0,0,.28-.49C84.86,319,59,315.46,53,315.9a.4.4,0,0,0-.37.43.4.4,0,0,0,.43.37c5.91-.42,31.2,3,37.59,27.05A.41.41,0,0,0,91.08,344Z" style="fill:#fff"></path><path d="M62.37,331.61a.43.43,0,0,0,.21-.11,21.47,21.47,0,0,1,17.59-5,.4.4,0,0,0,.12-.8A22.28,22.28,0,0,0,62,330.93a.4.4,0,0,0,0,.57A.44.44,0,0,0,62.37,331.61Z" style="fill:#fff"></path></g><g id="freepik--plants--inject-95"><path d="M411.27,328.11c-.17-6,1.5-16.07,7.42-26.12,6.33-10.76,14.69-18,21.71-15.77,6.55,2,5.11,10.91-4.73,20.58-6.9,6.79-13.89,15.4-17.08,25.23l-5.53,12.67Z" style="fill:#BA68C8"></path><path d="M411.27,328.11c-.17-6,1.5-16.07,7.42-26.12,6.33-10.76,14.69-18,21.71-15.77,6.55,2,5.11,10.91-4.73,20.58-6.9,6.79-13.89,15.4-17.08,25.23l-5.53,12.67Z" style="fill:#BA68C8"></path><g style="opacity:0.15"><path d="M411.27,328.11c-.17-6,1.5-16.07,7.42-26.12,6.33-10.76,14.69-18,21.71-15.77,6.55,2,5.11,10.91-4.73,20.58-6.9,6.79-13.89,15.4-17.08,25.23l-5.53,12.67Z"></path></g><path d="M412.36,332.59a.44.44,0,0,0,.37-.32c4.21-17.15,14.89-35.2,24.84-42a.43.43,0,0,0,.11-.59.41.41,0,0,0-.59-.11c-10.1,6.88-20.93,25.14-25.19,42.47a.44.44,0,0,0,.31.52Z" style="fill:#fff"></path><path d="M411.21,347.56a25.33,25.33,0,0,0,11.68,5.85c7.49,1.65,11-1.77,11-1.77s-2.56-7.26-6.73-9.5A42,42,0,0,1,440,348.3s4.61.34,6.87-6.59c0,0-2.48-4.4-11.52-7.24,0,0,5.67-1.07,13.58,1.46.59.28,3.7-8.67,4.73-12.83s-.66-4.2-3.88-5.27-14.34-2.29-16.5-.61-3.56,7.77-3.56,7.77-1.76-3.6-1.1-6.68a11.75,11.75,0,0,0-7-.25c-3.75,1.07-3.62,2.87-3.78,5.55a28.26,28.26,0,0,0,.62,8s-2.41-2.35-2-10.45c0,0-5.23,4-7.44,7.49S406.74,341.82,411.21,347.56Z" style="fill:#BA68C8"></path><path d="M411.18,348a.43.43,0,0,0,.4-.21C418.43,335.46,442,322.1,450.19,321a.42.42,0,0,0,.36-.47.42.42,0,0,0-.48-.37c-8.34,1.11-32.27,14.69-39.23,27.19a.42.42,0,0,0,.16.58A.41.41,0,0,0,411.18,348Z" style="fill:#fff"></path></g></g><g id="freepik--foam-finger--inject-95"><g id="freepik--foam-finger--inject-95"><path d="M305.18,170a10.12,10.12,0,0,0-4-4.69h0l-5.13-3c-.35-3.28-1.69-9.21-6.64-12.76a10.16,10.16,0,0,0-1-.63l-18-10.4h0c-4.47-3-9.19-1.13-12.19.78l-7-4h0A8.66,8.66,0,0,0,246.3,134V101.63c0-6.59-2.18-11.24-5.62-13.27h0L222,77.55h0c-2.91-1.78-6.74-1.67-10.94.76h0c-9.1,5.25-16.47,19.34-16.47,31.46v76.1c0,33.43-8.05,60.69-7.87,88.75.09,14.46,6.41,33.22,6.41,39.05V344l18.82,10.85,88.6-51.15V271c0-10.1,1.17-18.54,4.67-46.21S308.67,177.34,305.18,170Z" style="fill:#BA68C8"></path><path d="M305.18,170a10.12,10.12,0,0,0-4-4.69h0l-5.13-3c-.35-3.28-1.69-9.21-6.64-12.76a10.16,10.16,0,0,0-1-.63l-18-10.4h0c-4.47-3-9.19-1.13-12.19.78l-7-4h0A8.66,8.66,0,0,0,246.3,134V101.63c0-6.59-2.18-11.24-5.62-13.27h0L222,77.55h0c-2.91-1.78-6.74-1.67-10.94.76h0c-9.1,5.25-16.47,19.34-16.47,31.46v76.1c0,33.43-8.05,60.69-7.87,88.75.09,14.46,6.41,33.22,6.41,39.05V344l18.82,10.85,88.6-51.15V271c0-10.1,1.17-18.54,4.67-46.21S308.67,177.34,305.18,170Z" style="opacity:0.15"></path><path d="M300.94,165.23a6.4,6.4,0,0,0-4.79-.47,19.31,19.31,0,0,0-.12-2.37Z" style="opacity:0.15"></path><path d="M254.59,149.32a46.48,46.48,0,0,0-8.29,8.85V144.54Z" style="opacity:0.15"></path><path d="M258.11,139.39,269.62,146a8.16,8.16,0,0,1,2.8,2.83,11.14,11.14,0,0,1,1.39,3.86,20.25,20.25,0,0,1,5.31-3.68l-18.79-10.85A18.42,18.42,0,0,0,258.11,139.39Z" style="opacity:0.15"></path><path d="M211.91,354.84V324.53c0-5.83-6.32-24.59-6.41-39-.18-28.07,7.87-55.33,7.87-88.75v-76.1c0-12.13,7.37-26.21,16.47-31.46h0c9.09-5.25,16.46.32,16.46,12.45v56.54s8.46-12.26,17.49-13.21,10,7.75,10,7.75,8.18-8.37,15.57-3.08c7.12,5.11,6.76,15.13,6.76,15.13s5.54-2,9,5.27,3.49,27.13,0,54.8-4.67,36.11-4.67,46.21v32.65Z" style="fill:#BA68C8"></path><path d="M217.52,345.05a.93.93,0,0,1-.92-.93V321.29c0-3-.8-6.67-2.33-13.39-1.7-7.5-4-17.77-4.08-25.71-.09-12.88,1.69-25.81,3.57-39.5,2.11-15.38,4.29-31.27,4.29-49.19V117.82c0-8.24,4.72-17.73,10.74-21.6,3.05-2,6.06-2.32,8.47-1,2.77,1.51,4.36,5,4.36,9.65l1.57,72.51a65,65,0,0,1,5.21-14.25c1.86-3.71,7-10.08,12.87-11.34,2.28-.5,4.63.68,5.82,1.42a12.83,12.83,0,0,1,2.13,1.8A12.26,12.26,0,0,0,271,156.5c1.74,1.14,4.35.32,6.86-.48a10.52,10.52,0,0,1,8.39.61,9.81,9.81,0,0,1,4.43,5.43,18.3,18.3,0,0,1,.74,3.27,16.17,16.17,0,0,0,.72,3.09,4.82,4.82,0,0,0,3.8,3.29c2.2.28,3.91,1.69,5.1,4.17,2.3,4.81,3.4,20.71-.42,50.91l-.69,5.52c-3,23.91-4.05,32-4.05,42v25.16a.93.93,0,0,1-1.85,0V274.29c0-10.14,1-18.21,4.06-42.19l.7-5.54c3.76-29.81,2.77-45.31.58-49.88-.91-1.91-2.11-2.93-3.67-3.13a6.58,6.58,0,0,1-5.28-4.45,17.25,17.25,0,0,1-.82-3.47,17.65,17.65,0,0,0-.66-2.94,8,8,0,0,0-3.58-4.44,8.7,8.7,0,0,0-6.94-.46c-2.79.88-6,1.88-8.44.26a13.23,13.23,0,0,1-2-1.72,11,11,0,0,0-1.82-1.54c-.77-.48-2.74-1.56-4.45-1.19-5,1.06-9.77,6.7-11.6,10.36-3.25,6.52-5.07,12.42-6.71,21.78a.94.94,0,0,1-1,.77.93.93,0,0,1-.86-.91l-1.75-80.71c0-4-1.23-6.87-3.38-8-1.8-1-4.14-.65-6.59.93-5.45,3.51-9.88,12.5-9.88,20V193.5c0,18.05-2.19,34-4.31,49.42-1.88,13.64-3.64,26.51-3.56,39.26.05,7.74,2.35,17.9,4,25.31,1.56,6.85,2.37,10.58,2.37,13.8v22.83A.93.93,0,0,1,217.52,345.05Z" style="fill:#fff"></path><path d="M211.54,270.91h-.09a.94.94,0,0,1-.84-1c.87-9,6.33-24.58,10.31-35.94,1.26-3.59,2.35-6.69,3.05-8.92,3-9.59,5.77-11.84,13.95-17.51s20.63-16.93,20.76-17a.93.93,0,0,1,1.05-.13c.29.15,6.94,3.82,4.1,16.33-2.64,11.6-15.7,26.36-30.38,34.32a.92.92,0,0,1-1.25-.38.91.91,0,0,1,.37-1.25c14.26-7.73,26.92-22,29.45-33.1,2.08-9.14-1.29-12.85-2.64-13.93-2.5,2.24-13.09,11.63-20.4,16.7-8.13,5.63-10.37,7.48-13.24,16.55-.72,2.26-1.81,5.37-3.07,9-3.95,11.26-9.36,26.68-10.21,35.49A.93.93,0,0,1,211.54,270.91Z" style="fill:#fff"></path><path d="M235,263.79a.92.92,0,0,1-.45-.12.93.93,0,0,1-.36-1.26,52.77,52.77,0,0,0,6.2-27.47.92.92,0,0,1,.83-1,.93.93,0,0,1,1,.83,53.57,53.57,0,0,1-6.42,28.55A.93.93,0,0,1,235,263.79Z" style="fill:#fff"></path><path d="M240.26,207.92h-.06a.93.93,0,0,1-.86-1c0-.1.69-9.54,2.18-21.46a.93.93,0,0,1,1.84.23c-1.49,11.86-2.17,21.26-2.17,21.36A.93.93,0,0,1,240.26,207.92Z" style="fill:#fff"></path><path d="M242.25,248.63a11.16,11.16,0,0,1-2-.18.93.93,0,0,1,.34-1.82c5.85,1.09,12-3.73,13.74-10.74.55-2.25,2-9.35,4.24-21.09a.92.92,0,1,1,1.81.35c-2.26,11.77-3.69,18.9-4.25,21.19C254.37,243.51,248.4,248.63,242.25,248.63Z" style="fill:#fff"></path><path d="M263.08,197l-.17,0a.92.92,0,0,1-.74-1.08c2.37-12.56,4.24-22.64,4.24-22.64a.91.91,0,0,1,1.07-.74.92.92,0,0,1,.75,1.08s-1.87,10.08-4.24,22.64A.93.93,0,0,1,263.08,197Z" style="fill:#fff"></path><path d="M259.23,245.25a5.41,5.41,0,0,1-3.73-1.41,6.42,6.42,0,0,1-1.74-6.05.92.92,0,0,1,1.08-.74,1,1,0,0,1,.74,1.09,4.61,4.61,0,0,0,1.17,4.34,3.94,3.94,0,0,0,3.85.72c7-2,9.48-7.44,10.74-11.37,2.38-7.46,10.79-38.1,13.32-51.17a1,1,0,0,1,1.09-.74.93.93,0,0,1,.73,1.09c-2.54,13.13-11,43.9-13.38,51.38-2.17,6.8-6.1,10.92-12,12.59A6.94,6.94,0,0,1,259.23,245.25Z" style="fill:#fff"></path><path d="M276.47,239.88a4.54,4.54,0,0,1-3.54-1.54c-1.59-1.79-2-5-1.08-8.18a.93.93,0,0,1,1.78.52c-.74,2.5-.46,5.15.68,6.43a3,3,0,0,0,2.94.85c3-.49,6.89-3.16,9-8,2.2-5.14,9.3-32,9.37-32.31a.93.93,0,1,1,1.79.47c-.29,1.11-7.21,27.31-9.46,32.57-2.5,5.86-7.15,8.56-10.36,9.1A7,7,0,0,1,276.47,239.88Z" style="fill:#fff"></path><path d="M249.79,299.44l-.67,6.4a3.25,3.25,0,0,1-.37,1.1,2,2,0,0,1-.73.78l-3.5,2a.58.58,0,0,1-.68,0,.87.87,0,0,1-.29-.75v-.12l.66-6.22-4.47,2.58-.66,6.4a3.06,3.06,0,0,1-.38,1.1,1.91,1.91,0,0,1-.73.78l-3.49,2a.6.6,0,0,1-.69,0,.9.9,0,0,1-.28-.75v-.12l.66-6.22-3,1.71a.7.7,0,0,1-.84,0,1.07,1.07,0,0,1-.35-.91v-3.72a3,3,0,0,1,.35-1.33,2.27,2.27,0,0,1,.84-1l3.72-2.15.93-8.62-3.5,2a.7.7,0,0,1-.84,0,1.07,1.07,0,0,1-.35-.91V289.9a2.9,2.9,0,0,1,.35-1.32,2.37,2.37,0,0,1,.84-1l4.25-2.45.71-6.37a4.12,4.12,0,0,1,.35-1.06,1.84,1.84,0,0,1,.71-.79l3.54-2.05a.6.6,0,0,1,.69,0,.9.9,0,0,1,.29.75v.18l-.67,6.1,4.43-2.55.7-6.37a3.8,3.8,0,0,1,.36-1.06,1.72,1.72,0,0,1,.71-.79l3.54-2a.58.58,0,0,1,.68,0,.9.9,0,0,1,.29.75V270l-.66,6.1,3-1.71a.7.7,0,0,1,.84,0,1.06,1.06,0,0,1,.35.91V279a2.81,2.81,0,0,1-.35,1.33,2.27,2.27,0,0,1-.84.95l-3.76,2.17-.89,8.6,3.5-2a.7.7,0,0,1,.84,0,1.06,1.06,0,0,1,.35.91v3.72a2.81,2.81,0,0,1-.35,1.33,2.27,2.27,0,0,1-.84.95Zm-9.25-1.56,4.42-2.56.93-8.62-4.47,2.58Z" style="fill:#fff"></path><path d="M259.48,275.44a1.32,1.32,0,0,1-.25-1,3.09,3.09,0,0,1,.47-1.33l9.6-15.63c.24-.37.48-.74.73-1.1a2.58,2.58,0,0,1,.82-.8l3.45-2a.7.7,0,0,1,.84,0,1.06,1.06,0,0,1,.35.91v38.11a2.79,2.79,0,0,1-.35,1.33,2.37,2.37,0,0,1-.84,1l-3.58,2.06a.7.7,0,0,1-.84,0,1.08,1.08,0,0,1-.36-.92V266.87L263.24,277a1.92,1.92,0,0,1-.86.83.73.73,0,0,1-.82-.15Z" style="fill:#fff"></path></g></g></svg>