<svg xmlns="http://www.w3.org/2000/svg" viewBox="0 0 500 500"><g id="freepik--background-complete--inject-63"><rect y="382.4" width="500" height="0.25" style="fill:#ebebeb"></rect><rect x="416.78" y="398.49" width="33.12" height="0.25" style="fill:#ebebeb"></rect><rect x="292.75" y="398.62" width="8.69" height="0.25" style="fill:#ebebeb"></rect><rect x="354.33" y="389.21" width="61.44" height="0.25" style="fill:#ebebeb"></rect><rect x="212.45" y="395.11" width="12.69" height="0.25" style="fill:#ebebeb"></rect><rect x="166.72" y="395.11" width="36.83" height="0.25" style="fill:#ebebeb"></rect><rect x="52.46" y="390.89" width="25.43" height="0.25" style="fill:#ebebeb"></rect><rect x="83.89" y="390.89" width="74.89" height="0.25" style="fill:#ebebeb"></rect><path d="M237,337.8H43.91a5.71,5.71,0,0,1-5.7-5.71V60.66A5.71,5.71,0,0,1,43.91,55H237a5.71,5.71,0,0,1,5.71,5.71V332.09A5.71,5.71,0,0,1,237,337.8ZM43.91,55.2a5.46,5.46,0,0,0-5.45,5.46V332.09a5.46,5.46,0,0,0,5.45,5.46H237a5.47,5.47,0,0,0,5.46-5.46V60.66A5.47,5.47,0,0,0,237,55.2Z" style="fill:#ebebeb"></path><path d="M453.31,337.8H260.21a5.72,5.72,0,0,1-5.71-5.71V60.66A5.72,5.72,0,0,1,260.21,55h193.1A5.71,5.71,0,0,1,459,60.66V332.09A5.71,5.71,0,0,1,453.31,337.8ZM260.21,55.2a5.47,5.47,0,0,0-5.46,5.46V332.09a5.47,5.47,0,0,0,5.46,5.46h193.1a5.47,5.47,0,0,0,5.46-5.46V60.66a5.47,5.47,0,0,0-5.46-5.46Z" style="fill:#ebebeb"></path><rect x="190.78" y="71.97" width="243.04" height="177.53" transform="translate(624.6 321.48) rotate(180)" style="fill:#e6e6e6"></rect><rect x="180.03" y="71.97" width="251.29" height="177.53" transform="translate(611.36 321.48) rotate(180)" style="fill:#f0f0f0"></rect><rect x="231.96" y="50.14" width="147.45" height="221.21" transform="translate(466.42 -144.94) rotate(90)" style="fill:#fafafa"></rect><polygon points="362.51 234.46 312.15 87.02 264.06 87.02 314.42 234.46 362.51 234.46" style="fill:#fff"></polygon><polygon points="304.09 234.46 253.73 87.02 234.99 87.02 285.35 234.46 304.09 234.46" style="fill:#fff"></polygon><rect x="122.31" y="159.78" width="147.45" height="1.91" transform="translate(356.77 -35.29) rotate(90)" style="fill:#e6e6e6"></rect><rect x="64.58" y="79.54" width="85.82" height="121.67" transform="translate(214.97 280.76) rotate(180)" style="fill:#e0e0e0"></rect><rect x="58.5" y="79.54" width="88.46" height="121.67" transform="translate(205.46 280.76) rotate(180)" style="fill:#f5f5f5"></rect><rect x="51.48" y="104.88" width="102.49" height="71" transform="translate(243.11 37.65) rotate(90)" style="fill:#fff"></rect><path d="M97.93,286.4c6.37-15.72,21.52-21.57,26.76-31.5,6.85-13,6.81-32.51,1-39.54-5.08-6.12-21.88,35.24-23.77,39.86a132.21,132.21,0,0,0-9.62,39.11c.14-9.71.27-18.63.38-25.51.36-22.44.8-29.66,1-31.88.7-1.09,1.53-2.35,2-3,4.07-5.73,13.09-12.56,17.6-20.89,6.58-12.17,5.52-26.73.9-32.15-4.83-5.67-13.36,7.73-17.89,21s-2.6,26-3.87,37c-.26,2.16-.54,10.37-.79,21.77-1.38-12.26-4.12-20.47-9.19-28.13-6.24-9.41-11.63-20.87-16.77-19.39s-2.38,16.65,1.69,27.29C71,249.92,88.85,259.38,91.48,267c-.31,15.44-.59,35-.78,53.23-1.41-9.41-.44-10.2-6.22-24.61C81.05,287.06,67,276.5,65.3,282.38s.87,17,6.18,24.8c4.29,6.28,13.8,6.27,16,10.17.51.91,2.21,4.4,3.18,6.4-.23,22.24-.33,41.88-.22,48.57l.92.07c0-1.73.07-13,.25-28,2.31-8,17.86-12.61,22.66-20.9,5-8.67,8.64-18.79,6.48-25.56-1.8-5.65-16,2-21.71,11.39-3.83,6.24-6.17,12.89-7.26,21.83.13-10.2.28-21.16.42-31.5C93.37,297.05,96,291.11,97.93,286.4Z" style="fill:#e6e6e6"></path><path d="M107.06,382.4H74.38a3.75,3.75,0,0,1-3.67-3L68.39,368h44.67l-2.32,11.43A3.77,3.77,0,0,1,107.06,382.4Z" style="fill:#f0f0f0"></path><path d="M114,372.39H67.45a2.2,2.2,0,0,1-2.18-1.95l-1-8.45a2.2,2.2,0,0,1,2.18-2.44h48.44a2.19,2.19,0,0,1,2.18,2.44l-1,8.45A2.2,2.2,0,0,1,114,372.39Z" style="fill:#f0f0f0"></path><rect x="405.64" y="267.62" width="9.99" height="107.49" transform="translate(821.26 642.73) rotate(180)" style="fill:#f0f0f0"></rect><rect x="202.06" y="375.11" width="209.73" height="7.16" transform="translate(613.85 757.38) rotate(180)" style="fill:#f0f0f0"></rect><rect x="198.23" y="267.62" width="207.41" height="107.49" style="fill:#f5f5f5"></rect><rect x="407.99" y="260.84" width="10.32" height="6.78" transform="translate(826.3 528.46) rotate(180)" style="fill:#e0e0e0"></rect><rect x="195.54" y="260.84" width="212.45" height="6.78" style="fill:#ebebeb"></rect><path d="M390.75,314H213.11a8,8,0,0,1-8-8V283a8,8,0,0,1,8-8H390.75a8,8,0,0,1,8,8v23A8,8,0,0,1,390.75,314ZM213.11,277a6,6,0,0,0-6,6v23a6,6,0,0,0,6,6H390.75a6,6,0,0,0,6-6V283a6,6,0,0,0-6-6Z" style="fill:#fff"></path><path d="M390.75,362.19H213.11a8,8,0,0,1-8-8v-23a8,8,0,0,1,8-8H390.75a8,8,0,0,1,8,8v23A8,8,0,0,1,390.75,362.19ZM213.11,325.11a6,6,0,0,0-6,6v23a6,6,0,0,0,6,6H390.75a6,6,0,0,0,6-6v-23a6,6,0,0,0-6-6Z" style="fill:#fff"></path><path d="M350.38,298h-96.9a2.6,2.6,0,0,1-2.6-2.59v-1.9a2.6,2.6,0,0,1,2.6-2.59h96.9a2.6,2.6,0,0,1,2.6,2.59v1.9A2.6,2.6,0,0,1,350.38,298ZM253.48,293a.61.61,0,0,0-.6.59v1.9a.61.61,0,0,0,.6.59h96.9a.6.6,0,0,0,.6-.59v-1.9a.6.6,0,0,0-.6-.59Z" style="fill:#fff"></path><path d="M350.38,346.19h-96.9a2.6,2.6,0,0,1-2.6-2.59v-1.9a2.6,2.6,0,0,1,2.6-2.59h96.9a2.6,2.6,0,0,1,2.6,2.59v1.9A2.6,2.6,0,0,1,350.38,346.19Zm-96.9-5.08a.61.61,0,0,0-.6.59v1.9a.61.61,0,0,0,.6.59h96.9a.6.6,0,0,0,.6-.59v-1.9a.6.6,0,0,0-.6-.59Z" style="fill:#fff"></path></g><g id="freepik--Shadow--inject-63"><ellipse id="freepik--path--inject-63" cx="245" cy="416.24" rx="193.89" ry="11.32" style="fill:#f5f5f5"></ellipse></g><g id="freepik--Device--inject-63"><rect x="372.13" y="170.22" width="5.9" height="1" transform="translate(180.53 534.01) rotate(-86.3)" style="fill:#8A08B5"></rect><rect x="366.5" y="153.05" width="19.39" height="1" transform="translate(198.74 519.08) rotate(-86.31)" style="fill:#8A08B5"></rect><path d="M364.44,115.74H246.89A12.14,12.14,0,0,0,235,126.93l-15.19,234.5a10.4,10.4,0,0,0,10.47,11.2H347.81a12.16,12.16,0,0,0,11.92-11.2l15.18-234.5A10.39,10.39,0,0,0,364.44,115.74Z" style="fill:#8A08B5"></path><path d="M360.71,115.74H246.89A12.14,12.14,0,0,0,235,126.93l-15.19,234.5a10.4,10.4,0,0,0,10.47,11.2H344.08A12.16,12.16,0,0,0,356,361.43l15.18-234.5A10.39,10.39,0,0,0,360.71,115.74Z" style="fill:#fff;opacity:0.7000000000000001"></path><path d="M351.11,355.3H225.91a3.42,3.42,0,0,1-3.42-3.64l13.74-212.2a3.42,3.42,0,0,1,3.41-3.2H364.85a3.43,3.43,0,0,1,3.42,3.65L354.53,352.1A3.42,3.42,0,0,1,351.11,355.3Z" style="fill:#fff"></path><path d="M323.29,129.32H277.78a1.69,1.69,0,0,1-1.7-1.82h0a2,2,0,0,1,1.93-1.81h45.51a1.68,1.68,0,0,1,1.7,1.81h0A2,2,0,0,1,323.29,129.32Z" style="fill:#fff"></path><path d="M287.77,364.21a4.75,4.75,0,0,1-4.69,4.46,4.2,4.2,0,0,1-4.23-4.46,4.75,4.75,0,0,1,4.69-4.45A4.19,4.19,0,0,1,287.77,364.21Z" style="fill:#fff"></path><path d="M337.47,195H230.56l-6.8,104.9H337.47a11.22,11.22,0,0,0,11.2-11.19V206.23A11.22,11.22,0,0,0,337.47,195Z" style="fill:#8A08B5;opacity:0.2"></path></g><g id="freepik--Notification--inject-63"><rect x="185.29" y="185.71" width="153.42" height="104.91" rx="11.2" style="fill:#8A08B5"></rect><path d="M181.71,184.5a1,1,0,0,1-.7-.29l-1.8-1.79a1,1,0,0,1,1.42-1.42l1.79,1.8a1,1,0,0,1,0,1.41A1,1,0,0,1,181.71,184.5Z" style="fill:#8A08B5"></path><path d="M179,190.78h-2.53a1,1,0,0,1,0-2H179a1,1,0,0,1,0,2Z" style="fill:#8A08B5"></path><path d="M188.08,181.8a1,1,0,0,1-1-.93l-.18-2.53a1,1,0,0,1,.93-1.07,1,1,0,0,1,1.06.93l.19,2.53a1,1,0,0,1-.93,1.07Z" style="fill:#8A08B5"></path><polygon points="273.19 279.83 313.42 320.05 313.42 279.83 273.19 279.83" style="fill:#8A08B5"></polygon><path d="M284.22,262.21l-2-8.49a15.36,15.36,0,0,1,0-6.78L285,234.85a23.71,23.71,0,0,0-12.54-26.31,6.78,6.78,0,0,0,.23-.68,5.72,5.72,0,1,0-11.17-2.5,4.31,4.31,0,0,0-.09.71,23.72,23.72,0,0,0-22.57,18.44l-2.71,12.1a15.27,15.27,0,0,1-2.9,6.11l-5.39,6.85a5.06,5.06,0,0,0,2.87,8.06l47.5,10.64A5.05,5.05,0,0,0,284.22,262.21Z" style="fill:#fff"></path><path d="M248.35,264.83a2.25,2.25,0,0,0-2.7,2.59,8.21,8.21,0,0,0,14.83,3.32,2.25,2.25,0,0,0-1.33-3.49Z" style="fill:#fff"></path><path d="M211.87,248a1.48,1.48,0,0,1-1.25-.67,32.08,32.08,0,0,1,8.87-44.49,1.5,1.5,0,1,1,1.66,2.5,29.09,29.09,0,0,0-8,40.33,1.5,1.5,0,0,1-.41,2.08A1.52,1.52,0,0,1,211.87,248Z" style="fill:#fff"></path><path d="M218.22,243.74a1.5,1.5,0,0,1-1.24-.67,24.45,24.45,0,0,1,6.75-33.89,1.5,1.5,0,0,1,1.67,2.5,21.43,21.43,0,0,0-5.93,29.72,1.5,1.5,0,0,1-.41,2.08A1.54,1.54,0,0,1,218.22,243.74Z" style="fill:#fff"></path><path d="M224.58,239.49a1.48,1.48,0,0,1-1.24-.66A16.78,16.78,0,0,1,228,215.54a1.5,1.5,0,0,1,1.67,2.49,13.79,13.79,0,0,0-3.81,19.13,1.51,1.51,0,0,1-.41,2.08A1.52,1.52,0,0,1,224.58,239.49Z" style="fill:#fff"></path><path d="M298.35,269.09a1.5,1.5,0,0,1-.69-2.83,29.09,29.09,0,0,0,12.5-39.18,1.5,1.5,0,1,1,2.66-1.37A32.08,32.08,0,0,1,299,268.93,1.58,1.58,0,0,1,298.35,269.09Z" style="fill:#fff"></path><path d="M294.84,262.3a1.5,1.5,0,0,1-.69-2.83,21.42,21.42,0,0,0,9.21-28.88,1.5,1.5,0,0,1,2.67-1.38,24.42,24.42,0,0,1-10.5,32.92A1.44,1.44,0,0,1,294.84,262.3Z" style="fill:#fff"></path><path d="M291.33,255.51a1.51,1.51,0,0,1-.69-2.84,13.77,13.77,0,0,0,5.93-18.57,1.5,1.5,0,0,1,2.67-1.38A16.81,16.81,0,0,1,292,255.34,1.53,1.53,0,0,1,291.33,255.51Z" style="fill:#fff"></path></g><g id="freepik--Plant--inject-63"><path d="M386.78,387.52c-7.4-17.46-10.39-38-1.92-37.15,8.69.84,7.67,31.8,9.08,35.2C391.23,387.9,386.78,387.52,386.78,387.52Z" style="fill:#8A08B5"></path><path d="M389.18,354.39c-1.82,6.66-3.75,16.95-5.22,25.67.84,2.5,1.79,5,2.82,7.46,0,0,4.44.38,7.17-1.95C392.83,382.89,393.23,363.05,389.18,354.39Z" style="fill:#263238"></path><path d="M389.22,384.32c-2.32-37.1,4-71.49,20.64-69.94,14.28,1.34-6.54,63.8-6.14,71C397.18,387.92,389.22,384.32,389.22,384.32Z" style="fill:#8A08B5"></path><path d="M400,384.08c2.61-26.67,16.68-57.79,22.72-47.39,7.67,13.2-12,44.64-12.53,49.81C405.27,387.56,400,384.08,400,384.08Z" style="fill:#8A08B5"></path><path d="M397.37,324.29c-1.69-.28-2.63-1.33-2.52-2.82.12-1.68,1.5-3.35,2.78-3.37.62,0,1.66.32,1.92,2.63l-1,.12c-.12-1.1-.45-1.75-.89-1.75h0c-.68,0-1.72,1.24-1.8,2.44-.07,1,.49,1.56,1.68,1.76Z" style="fill:#8A08B5"></path><path d="M415.33,331a3.79,3.79,0,0,1-2-.77l.54-.83c.93.6,1.65.76,1.93.42.42-.54.13-2.12-.74-2.95-.7-.67-1.52-.62-2.43.18l-.65-.76a2.61,2.61,0,0,1,3.77-.14c1.22,1.16,1.63,3.28.83,4.29A1.48,1.48,0,0,1,415.33,331Z" style="fill:#8A08B5"></path><path d="M390.82,346.1a2.49,2.49,0,0,1-2.62-2c-.4-1.63.4-3.64,1.62-4.06.57-.19,1.67-.21,2.63,1.92l-.92.42c-.45-1-1-1.54-1.39-1.39-.64.22-1.25,1.71-1,2.87.23,1,1,1.34,2.14,1.16l.15,1A3.59,3.59,0,0,1,390.82,346.1Z" style="fill:#8A08B5"></path><path d="M380.17,366.81a2.42,2.42,0,0,1-2.29-1.49c-.7-1.53-.29-3.66.82-4.3.53-.3,1.61-.52,2.95,1.4l-.82.57c-.64-.91-1.25-1.32-1.63-1.1-.59.34-.91,1.92-.41,3,.41.89,1.19,1.13,2.32.73l.33.95A3.72,3.72,0,0,1,380.17,366.81Z" style="fill:#8A08B5"></path><path d="M397.89,336.62a.52.52,0,0,1-.29-.09,2.94,2.94,0,0,1-1.32-3.63,3.37,3.37,0,0,1,3.49-2c.62.11,2.07.66,2.17,3.32a.5.5,0,0,1-1,0c-.06-1.39-.53-2.23-1.35-2.38a2.4,2.4,0,0,0-2.39,1.43c-.36.85,0,1.71,1,2.42a.5.5,0,0,1-.29.91Z" style="fill:#fff"></path><path d="M409.74,363.61a.48.48,0,0,1-.48-.4.49.49,0,0,1,.38-.59c1.36-.28,2.11-.89,2.13-1.72a2.41,2.41,0,0,0-1.81-2.12c-.9-.22-1.7.27-2.23,1.37a.5.5,0,1,1-.9-.44,3,3,0,0,1,3.36-1.91,3.4,3.4,0,0,1,2.58,3.11c0,.63-.32,2.15-2.92,2.69Z" style="fill:#fff"></path><path d="M423.8,355.18c-.58,0-1.35-.34-2.21-1.63l.83-.56c.62.92,1.21,1.34,1.6,1.13.6-.32,1-1.9.47-3-.38-.89-1.16-1.15-2.3-.78l-.31-.95c1.62-.53,2.94,0,3.53,1.34.67,1.54.22,3.66-.91,4.27A1.39,1.39,0,0,1,423.8,355.18Z" style="fill:#8A08B5"></path><path d="M420.82,393.87a22.23,22.23,0,0,0-5.39-14.54,1.45,1.45,0,0,0,1.24-1.42,1.48,1.48,0,0,0-1.48-1.47H381.71a1.46,1.46,0,0,0-.22,2.9A22.32,22.32,0,0,0,388,413.65a1.62,1.62,0,0,0,.75,3.06h19.39a1.63,1.63,0,0,0,1.62-1.62,1.64,1.64,0,0,0-.87-1.44A22.36,22.36,0,0,0,420.82,393.87Z" style="fill:#263238"></path></g></svg>