<svg xmlns="http://www.w3.org/2000/svg" viewBox="0 0 500 500"><g id="freepik--background-complete--inject-32"><rect y="382.4" width="500" height="0.25" style="fill:#e0e0e0"></rect><rect x="413.5" y="396.43" width="10.61" height="0.25" style="fill:#e0e0e0"></rect><rect x="363.01" y="396.55" width="43.15" height="0.25" style="fill:#e0e0e0"></rect><rect x="236.85" y="394.17" width="72.82" height="0.25" style="fill:#e0e0e0"></rect><rect x="171.85" y="398.51" width="23.11" height="0.25" style="fill:#e0e0e0"></rect><rect x="86.13" y="394.29" width="31.82" height="0.25" style="fill:#e0e0e0"></rect><rect x="123.5" y="394.29" width="29.74" height="0.25" style="fill:#e0e0e0"></rect><rect x="65.29" y="389.92" width="30.37" height="0.25" style="fill:#e0e0e0"></rect><path d="M237,337.8H43.91a5.71,5.71,0,0,1-5.7-5.71V60.66A5.71,5.71,0,0,1,43.91,55H237a5.71,5.71,0,0,1,5.71,5.71V332.09A5.71,5.71,0,0,1,237,337.8ZM43.91,55.2a5.46,5.46,0,0,0-5.45,5.46V332.09a5.46,5.46,0,0,0,5.45,5.46H237a5.47,5.47,0,0,0,5.46-5.46V60.66A5.47,5.47,0,0,0,237,55.2Z" style="fill:#e0e0e0"></path><path d="M453.31,337.8H260.21a5.72,5.72,0,0,1-5.71-5.71V60.66A5.72,5.72,0,0,1,260.21,55h193.1A5.71,5.71,0,0,1,459,60.66V332.09A5.71,5.71,0,0,1,453.31,337.8ZM260.21,55.2a5.47,5.47,0,0,0-5.46,5.46V332.09a5.47,5.47,0,0,0,5.46,5.46h193.1a5.47,5.47,0,0,0,5.46-5.46V60.66a5.47,5.47,0,0,0-5.46-5.46Z" style="fill:#e0e0e0"></path><rect x="60" y="75.47" width="378" height="287.54" rx="7.52" style="fill:#e0e0e0"></rect><rect x="62" y="75.47" width="378" height="287.54" rx="7.52" style="fill:#ebebeb"></rect><path d="M62,94.91V355.49A7.54,7.54,0,0,0,69.52,363h363a7.54,7.54,0,0,0,7.52-7.52V94.91Z" style="fill:#e0e0e0"></path><rect x="63.39" y="104.91" width="375.22" height="248.1" style="fill:#fafafa"></rect><path d="M425.34,330.31H76.66a.13.13,0,0,1-.12-.13V121a.12.12,0,0,1,.12-.12H425.34a.12.12,0,0,1,.12.12V330.18A.12.12,0,0,1,425.34,330.31Zm-348.55-.25H425.21V121.13H76.79Z" style="fill:#e0e0e0"></path><path d="M78.5,89.75a4.5,4.5,0,1,1,4.5-4.5A4.51,4.51,0,0,1,78.5,89.75Zm0-8a3.5,3.5,0,1,0,3.5,3.5A3.5,3.5,0,0,0,78.5,81.75Z" style="fill:#fafafa"></path><path d="M92.67,89.75a4.5,4.5,0,1,1,4.5-4.5A4.51,4.51,0,0,1,92.67,89.75Zm0-8a3.5,3.5,0,1,0,3.5,3.5A3.5,3.5,0,0,0,92.67,81.75Z" style="fill:#fafafa"></path><path d="M106.85,89.75a4.5,4.5,0,1,1,4.5-4.5A4.51,4.51,0,0,1,106.85,89.75Zm0-8a3.5,3.5,0,1,0,3.5,3.5A3.5,3.5,0,0,0,106.85,81.75Z" style="fill:#fafafa"></path><rect x="62" y="94.41" width="378" height="1" style="fill:#e0e0e0"></rect><rect x="95.67" y="129.56" width="172.92" height="176.24" style="fill:#ebebeb"></rect><rect x="302.61" y="129.56" width="114.17" height="57.33" style="fill:#ebebeb"></rect><circle cx="324" cy="151" r="13" style="fill:#fafafa"></circle><rect x="349" y="138" width="56.33" height="5.33" style="fill:#fafafa"></rect><rect x="349" y="147.78" width="36.56" height="5.33" style="fill:#fafafa"></rect><rect x="302.61" y="208.33" width="114.17" height="144.68" style="fill:#ebebeb"></rect><rect x="307.68" y="219.24" width="48.7" height="48.7" style="fill:#fafafa"></rect><rect x="308.06" y="274.13" width="48.7" height="48.7" style="fill:#fafafa"></rect><rect x="363.02" y="219.24" width="48.7" height="25.83" style="fill:#fafafa"></rect><rect x="363.02" y="251.27" width="48.7" height="48.7" style="fill:#fafafa"></rect><rect x="308.06" y="328.66" width="48.7" height="24.35" style="fill:#fafafa"></rect><rect x="363.02" y="305.8" width="48.7" height="47.21" style="fill:#fafafa"></rect></g><g id="freepik--Shadow--inject-32"><ellipse cx="250" cy="416.24" rx="193.89" ry="11.32" style="fill:#f5f5f5"></ellipse></g><g id="freepik--Graphics--inject-32"><rect x="80.43" y="359.19" width="199.78" height="50.33" rx="8.94" style="fill:#8A0AB5"></rect><rect x="82.54" y="361.3" width="199.78" height="50.33" rx="8.94" style="fill:#8A0AB5"></rect><rect x="82.54" y="361.3" width="199.78" height="50.33" rx="8.94" style="fill:#fafafa;opacity:0.6000000000000001"></rect><rect x="84.65" y="363.41" width="199.78" height="50.34" rx="8.94" style="fill:#8A0AB5"></rect><rect x="84.65" y="363.41" width="199.78" height="50.34" rx="8.94" style="fill:#fafafa;opacity:0.8"></rect><rect x="136.57" y="371.92" width="100.93" height="7.62" rx="1.91" style="fill:#8A0AB5"></rect><rect x="136.57" y="384.77" width="47.32" height="7.62" rx="1.91" style="fill:#8A0AB5"></rect><rect x="188.68" y="384.77" width="37.21" height="7.62" rx="1.91" style="fill:#8A0AB5"></rect><rect x="136.57" y="397.62" width="119.47" height="2.87" rx="1.04" style="fill:#8A0AB5"></rect><rect x="136.57" y="397.62" width="119.47" height="2.87" rx="1.04" style="fill:#fafafa;opacity:0.5"></rect><circle cx="108.92" cy="388.58" r="17.93" transform="translate(-294.32 404.57) rotate(-76.61)" style="fill:#8A0AB5"></circle><path d="M123.72,388.58a14.8,14.8,0,1,1-14.8-14.8A14.67,14.67,0,0,1,123.72,388.58Z" style="fill:#fafafa"></path><path d="M121.93,395.63a14.8,14.8,0,0,1-26,0,23.45,23.45,0,0,1,26,0Z" style="fill:#8A0AB5"></path><path d="M121.93,395.63a14.8,14.8,0,0,1-26,0,23.45,23.45,0,0,1,26,0Z" style="fill:#fafafa;opacity:0.7000000000000001"></path><circle cx="108.92" cy="383.52" r="6.59" style="fill:#8A0AB5"></circle><circle cx="108.92" cy="383.52" r="6.59" style="fill:#fafafa;opacity:0.7000000000000001"></circle><rect x="80.43" y="300.95" width="199.78" height="50.33" rx="8.94" style="fill:#8A0AB5"></rect><rect x="82.54" y="303.06" width="199.78" height="50.34" rx="8.94" style="fill:#8A0AB5"></rect><rect x="82.54" y="303.06" width="199.78" height="50.34" rx="8.94" style="fill:#fafafa;opacity:0.6000000000000001"></rect><rect x="84.65" y="305.17" width="199.78" height="50.33" rx="8.94" style="fill:#8A0AB5"></rect><rect x="84.65" y="305.17" width="199.78" height="50.33" rx="8.94" style="fill:#fafafa;opacity:0.8"></rect><rect x="136.57" y="313.68" width="32.76" height="7.62" rx="1.91" style="fill:#8A0AB5"></rect><rect x="173.58" y="313.68" width="26.17" height="7.62" rx="1.91" style="fill:#8A0AB5"></rect><rect x="136.57" y="326.53" width="105.43" height="7.62" rx="1.91" style="fill:#8A0AB5"></rect><rect x="136.57" y="339.38" width="72.93" height="2.87" rx="1.04" style="fill:#8A0AB5"></rect><rect x="136.57" y="339.38" width="72.93" height="2.87" rx="1.04" style="fill:#fafafa;opacity:0.5"></rect><circle cx="108.92" cy="330.34" r="17.93" transform="translate(-237.66 359.82) rotate(-76.61)" style="fill:#8A0AB5"></circle><path d="M123.72,330.34a14.8,14.8,0,1,1-14.8-14.8A14.67,14.67,0,0,1,123.72,330.34Z" style="fill:#fafafa"></path><path d="M121.93,337.39a14.8,14.8,0,0,1-26,0,23.45,23.45,0,0,1,26,0Z" style="fill:#8A0AB5"></path><path d="M121.93,337.39a14.8,14.8,0,0,1-26,0,23.45,23.45,0,0,1,26,0Z" style="fill:#fafafa;opacity:0.7000000000000001"></path><circle cx="108.92" cy="325.28" r="6.59" style="fill:#8A0AB5"></circle><circle cx="108.92" cy="325.28" r="6.59" style="fill:#fafafa;opacity:0.7000000000000001"></circle><rect x="80.43" y="242.71" width="199.78" height="50.34" rx="8.94" style="fill:#8A0AB5"></rect><rect x="82.54" y="244.82" width="199.78" height="50.33" rx="8.94" style="fill:#8A0AB5"></rect><rect x="82.54" y="244.82" width="199.78" height="50.33" rx="8.94" style="fill:#fafafa;opacity:0.6000000000000001"></rect><rect x="84.65" y="246.93" width="199.78" height="50.34" rx="8.94" style="fill:#8A0AB5"></rect><rect x="84.65" y="246.93" width="199.78" height="50.34" rx="8.94" style="fill:#fafafa;opacity:0.8"></rect><rect x="136.57" y="255.44" width="100.21" height="7.62" rx="1.91" style="fill:#8A0AB5"></rect><rect x="136.57" y="268.29" width="67.76" height="7.62" rx="1.91" style="fill:#8A0AB5"></rect><rect x="209.99" y="268.29" width="9.76" height="7.62" rx="1.91" style="fill:#8A0AB5"></rect><rect x="136.57" y="281.14" width="53.65" height="2.87" rx="1.04" style="fill:#8A0AB5"></rect><rect x="136.57" y="281.14" width="53.65" height="2.87" rx="1.04" style="fill:#fafafa;opacity:0.5"></rect><rect x="195.68" y="281.14" width="61.21" height="2.87" rx="1.04" style="fill:#8A0AB5"></rect><rect x="195.68" y="281.14" width="61.21" height="2.87" rx="1.04" style="fill:#fafafa;opacity:0.5"></rect><circle cx="108.92" cy="272.1" r="17.93" transform="translate(-160.5 156.71) rotate(-45)" style="fill:#8A0AB5"></circle><path d="M123.72,272.1a14.8,14.8,0,1,1-14.8-14.8A14.67,14.67,0,0,1,123.72,272.1Z" style="fill:#fafafa"></path><path d="M121.93,279.15a14.8,14.8,0,0,1-26,0,23.45,23.45,0,0,1,26,0Z" style="fill:#8A0AB5"></path><path d="M121.93,279.15a14.8,14.8,0,0,1-26,0,23.45,23.45,0,0,1,26,0Z" style="fill:#fafafa;opacity:0.7000000000000001"></path><path d="M115.51,267a6.59,6.59,0,1,1-6.59-6.6A6.59,6.59,0,0,1,115.51,267Z" style="fill:#8A0AB5"></path><path d="M115.51,267a6.59,6.59,0,1,1-6.59-6.6A6.59,6.59,0,0,1,115.51,267Z" style="fill:#fafafa;opacity:0.7000000000000001"></path><rect x="125.78" y="122.73" width="4.56" height="1" style="fill:#8A0AB5"></rect><rect x="107.78" y="122.73" width="10.78" height="1" style="fill:#8A0AB5"></rect><rect x="80.43" y="126.23" width="199.78" height="50.34" rx="8.94" style="fill:#8A0AB5"></rect><rect x="82.54" y="128.34" width="199.78" height="50.34" rx="8.94" style="fill:#8A0AB5"></rect><rect x="82.54" y="128.34" width="199.78" height="50.34" rx="8.94" style="fill:#fafafa;opacity:0.6000000000000001"></rect><rect x="84.65" y="130.45" width="199.78" height="50.34" rx="8.94" style="fill:#8A0AB5"></rect><rect x="84.65" y="130.45" width="199.78" height="50.34" rx="8.94" style="fill:#fafafa;opacity:0.8"></rect><rect x="136.57" y="138.96" width="92.26" height="7.62" rx="1.91" style="fill:#8A0AB5"></rect><rect x="136.57" y="151.81" width="122.76" height="7.62" rx="1.91" style="fill:#8A0AB5"></rect><rect x="136.57" y="164.66" width="34.54" height="2.87" rx="1.04" style="fill:#8A0AB5"></rect><rect x="136.57" y="164.66" width="34.54" height="2.87" rx="1.04" style="fill:#fafafa;opacity:0.5"></rect><circle cx="108.92" cy="155.62" r="17.93" transform="translate(-67.69 225.55) rotate(-76.61)" style="fill:#8A0AB5"></circle><path d="M123.72,155.62a14.8,14.8,0,1,1-14.8-14.8A14.73,14.73,0,0,1,123.72,155.62Z" style="fill:#fafafa"></path><path d="M121.93,162.67a14.8,14.8,0,0,1-26,0,23.45,23.45,0,0,1,26,0Z" style="fill:#8A0AB5"></path><path d="M121.93,162.67a14.8,14.8,0,0,1-26,0,23.45,23.45,0,0,1,26,0Z" style="fill:#fafafa;opacity:0.7000000000000001"></path><circle cx="108.92" cy="150.55" r="6.59" style="fill:#8A0AB5"></circle><circle cx="108.92" cy="150.55" r="6.59" style="fill:#fafafa;opacity:0.7000000000000001"></circle></g></svg>