<svg xmlns="http://www.w3.org/2000/svg" viewBox="0 0 500 500"><g id="freepik--Floor--inject-5"><path d="M91,410.15c87.28,45.6,228.8,45.6,316.08,0s87.29-119.53,0-165.13S178.29,199.43,91,245,3.72,364.56,91,410.15Z" style="fill:#f5f5f5"></path></g><g id="freepik--Shadow--inject-5"><ellipse cx="382.15" cy="322.28" rx="26.51" ry="12.64" style="fill:#e6e6e6"></ellipse></g><g id="freepik--Cloud--inject-5"><path d="M384.66,102.32l3.8,1.46V95.42c0-6.63,5.29-8.22,11-4.9h0c5.74,3.31,10.39,11.37,10.39,18v1.21a5.57,5.57,0,0,1,4.82.75h0a16.52,16.52,0,0,1,7.48,13V124l5.3,3.06a10.88,10.88,0,0,1,4.92,8.53c0,3.14-2.2,4.42-4.92,2.84L384.66,113.7a10.88,10.88,0,0,1-4.92-8.53C379.74,102,381.94,100.75,384.66,102.32Z" style="fill:#f0f0f0"></path></g><g id="freepik--Plants--inject-5"><path d="M85.28,362l7-4s3.37-18.54.85-34.47c-3.54-22.4-18.79-30.13-24.33-27.9S62,304.47,72,317.42C77.88,325.05,85.47,341.2,85.28,362Z" style="fill:#BA68C8"></path><g style="opacity:0.1"><path d="M85.28,362l7-4s3.37-18.54.85-34.47c-3.54-22.4-18.79-30.13-24.33-27.9S62,304.47,72,317.42C77.88,325.05,85.47,341.2,85.28,362Z"></path></g><path d="M88.46,355.06h0a.7.7,0,0,1-.65-.74c1.62-27.9-3.71-44.42-17.82-55.22a.68.68,0,0,1-.13-1,.69.69,0,0,1,1-.14c14.53,11.12,20,28,18.37,56.42A.69.69,0,0,1,88.46,355.06Z" style="fill:#fff"></path><path d="M65.82,373.23c-1.11.63-3.39-.76-4.26-1.34a10.55,10.55,0,0,1-3.52-4,9.84,9.84,0,0,1-.88-6,23.17,23.17,0,0,1,.75-3.17c.3-1,.59-2.05.88-3.07a7.66,7.66,0,0,0,.45-3.1c-.26-2.1-2.13-3.57-3.83-4.84-1.87-1.4-3.82-3.26-3.81-5.79a8.89,8.89,0,0,1,2.23-5.29c1.21-1.53,2.64-2.89,3.73-4.5a6.22,6.22,0,0,0,1.28-3.94,6.48,6.48,0,0,0-.86-2.45,35.76,35.76,0,0,1-2.69-4.93c-.61-1.76-.52-4,.86-5.23a5.74,5.74,0,0,1,4.35-1.08,9.93,9.93,0,0,1,4,1.42c4,2.23,6.3,7,10.57,8.71a42.51,42.51,0,0,0,5.15,1.26,6.38,6.38,0,0,1,4.26,2.91c1.56,3.13-1.34,7-.24,10.29,1,2.94,3.82,4.06,5.42,6.7a6.25,6.25,0,0,1,.75,3.85,18.29,18.29,0,0,1-1.62,6.49A45.51,45.51,0,0,1,85.28,362C85.21,362.05,66,373.13,65.82,373.23Z" style="fill:#BA68C8"></path><path d="M77.3,367.29h-.09a.7.7,0,0,1-.6-.78c2-16.08-5.64-37.75-17.09-48.32a.7.7,0,0,1,.95-1c11.94,11,19.64,32.77,17.52,49.52A.69.69,0,0,1,77.3,367.29Z" style="fill:#fff"></path><path d="M75.3,346.32a.7.7,0,0,1-.41-.14C68.78,341.6,59,342.43,59,342.44a.68.68,0,0,1-.76-.63.7.7,0,0,1,.63-.76c.42,0,10.37-.89,16.9,4a.7.7,0,0,1,.14,1A.72.72,0,0,1,75.3,346.32Z" style="fill:#fff"></path><path d="M74.33,342.3h0a.69.69,0,0,1-.67-.72,18.4,18.4,0,0,1,6.46-12.94.7.7,0,1,1,.86,1.1A17.25,17.25,0,0,0,75,341.63.71.71,0,0,1,74.33,342.3Z" style="fill:#fff"></path><path d="M397.57,307c.29-3.51,3-9.49,7-13.75s10.41-6.31,14.36-4.59c3.68,1.6,2.87,6.53-2,9.45s-12.09,6.49-14.57,12l-4.8,6.63Z" style="fill:#BA68C8"></path><path d="M397.57,307c.29-3.51,3-9.49,7-13.75s10.41-6.31,14.36-4.59c3.68,1.6,2.87,6.53-2,9.45s-12.09,6.49-14.57,12l-4.8,6.63Z" style="opacity:0.1"></path><path d="M397.57,313.37h-.06a.48.48,0,0,1-.41-.54c1.75-13,14.94-22,20.18-23a.48.48,0,1,1,.18.94c-4.89.93-17.75,9.86-19.41,22.19A.48.48,0,0,1,397.57,313.37Z" style="fill:#fff"></path><path d="M398.1,321.45c.72-1.93,3.39-5,7.5-7.36,4.54-2.62,10.1-3.55,11.54-5.76,1.74-2.66-.39-5.47-4.86-5.28s-12.73,5.6-14.71,14.59Z" style="fill:#BA68C8"></path><path d="M397.78,319.59h-.09a.49.49,0,0,1-.38-.57c1.32-6.65,11-13.54,17.2-13.83a.5.5,0,0,1,.51.45.48.48,0,0,1-.46.51c-5.79.27-15.08,6.9-16.31,13.06A.47.47,0,0,1,397.78,319.59Z" style="fill:#fff"></path></g><g id="freepik--Document--inject-5"><path d="M227.63,361.89v.41a2.23,2.23,0,0,0,1,1.74l59.44,34.31a2.16,2.16,0,0,0,2,0l87.79-50.68a2.23,2.23,0,0,0,1-1.75v-.4a2.25,2.25,0,0,0-1-1.75l-59.43-34.31a2.22,2.22,0,0,0-2,0l-87.8,50.69A2.23,2.23,0,0,0,227.63,361.89Z" style="fill:#e0e0e0"></path><path d="M227.63,361.89v.41a2.23,2.23,0,0,0,1,1.74l59.44,34.31a2,2,0,0,0,1,.24v-7.84L232.35,358l-3.72,2.15A2.23,2.23,0,0,0,227.63,361.89Z" style="fill:#e6e6e6"></path><path d="M228.63,361.31l59.44,34.31a2.16,2.16,0,0,0,2,0l87.79-50.68c.56-.32.56-.84,0-1.17l-59.43-34.31a2.22,2.22,0,0,0-2,0l-87.8,50.69A.61.61,0,0,0,228.63,361.31Z" style="fill:#fff"></path><path d="M304.36,375l-40-23.11c-.7-.4-.73-1-.08-1.41a2.73,2.73,0,0,1,2.44.05l40,23.1c.7.41.73,1,.08,1.41A2.69,2.69,0,0,1,304.36,375Z" style="fill:#ebebeb"></path><path d="M276,377.7l-19.74-11.39c-.7-.4-.73-1-.08-1.41a2.69,2.69,0,0,1,2.44,0l19.74,11.4c.7.4.73,1,.08,1.41A2.66,2.66,0,0,1,276,377.7Z" style="fill:#e0e0e0"></path><path d="M281.61,374.67l-13.88-8c-.49-.29-.51-.73-.06-1a1.87,1.87,0,0,1,1.72,0l13.89,8c.49.29.51.73.05,1A1.9,1.9,0,0,1,281.61,374.67Z" style="fill:#ebebeb"></path><path d="M311.46,370.87l-40-23.1c-.7-.41-.73-1-.08-1.41a2.69,2.69,0,0,1,2.44,0l40,23.11c.7.4.73,1,.08,1.41A2.73,2.73,0,0,1,311.46,370.87Z" style="fill:#ebebeb"></path><path d="M318.56,366.79l-40-23.11c-.7-.4-.73-1-.08-1.41a2.69,2.69,0,0,1,2.44,0l40,23.11c.69.4.73,1,.07,1.41A2.69,2.69,0,0,1,318.56,366.79Z" style="fill:#ebebeb"></path><path d="M325.66,362.7l-21.13-12.24c-.7-.4-.73-1-.08-1.41a2.73,2.73,0,0,1,2.44.05L328,361.33c.69.41.73,1,.08,1.41A2.71,2.71,0,0,1,325.66,362.7Z" style="fill:#ebebeb"></path><path d="M345.71,351.08l-40-23.1c-.69-.4-.73-1-.08-1.41a2.71,2.71,0,0,1,2.45,0l40,23.11c.69.4.73,1,.07,1.41A2.66,2.66,0,0,1,345.71,351.08Z" style="fill:#ebebeb"></path><path d="M352.82,347l-40-23.11c-.69-.4-.73-1-.07-1.41a2.66,2.66,0,0,1,2.44,0l40,23.1c.69.4.73,1,.08,1.41A2.69,2.69,0,0,1,352.82,347Z" style="fill:#ebebeb"></path><path d="M338.61,355.17l-40-23.11c-.7-.4-.73-1-.08-1.41a2.73,2.73,0,0,1,2.44.05l40,23.11c.7.4.74,1,.08,1.4A2.69,2.69,0,0,1,338.61,355.17Z" style="fill:#ebebeb"></path><path d="M359.92,342.91l-40-23.11c-.7-.4-.73-1-.08-1.4a2.69,2.69,0,0,1,2.44,0l40,23.11c.7.4.73,1,.08,1.41A2.73,2.73,0,0,1,359.92,342.91Z" style="fill:#ebebeb"></path><path d="M291.46,378.43a10.51,10.51,0,0,0-9.46,0c-2.61,1.51-2.61,4,0,5.46a10.44,10.44,0,0,0,9.46,0C294.07,382.39,294.07,379.94,291.46,378.43Z" style="fill:#e0e0e0"></path></g><g id="freepik--Device--inject-5"><path d="M228.66,250.28l-37.5,21.65a7.08,7.08,0,0,0-3,4.32l-9.32,53.81a4.47,4.47,0,0,0,2,4.32l24.18,14a5.59,5.59,0,0,0,5,0l51.68-29.84a4.74,4.74,0,0,0,0-8.37l-18.6-10.73a6.39,6.39,0,0,1-2.81-4.35l-4.14-40.61a6.16,6.16,0,0,0-2.66-4.25A5.36,5.36,0,0,0,228.66,250.28Z" style="fill:#263238"></path><path d="M207.55,338.88v10.06a5.19,5.19,0,0,0,2.52-.6l51.68-29.84a5.41,5.41,0,0,0,2.52-4.18,5,5,0,0,0-1-2.73h-8.47Z" style="fill:#37474f"></path><path d="M233.39,253l-37.51,21.66a7,7,0,0,0-3,4.32l-8.46,48.84a4.47,4.47,0,0,0,2,4.33L205,342.88a5.59,5.59,0,0,0,5,0L261.75,313c1.39-.8,1.39-2.1,0-2.91l-18.6-10.73a6.39,6.39,0,0,1-2.81-4.35l-4.14-40.61A1.74,1.74,0,0,0,233.39,253Z" style="fill:#263238"></path><path d="M261.75,310.13l-18.6-10.73a5.8,5.8,0,0,1-1.84-1.85L184.76,330.2a4.32,4.32,0,0,0,1.67,1.95L205,342.88a5.59,5.59,0,0,0,5,0L261.75,313C263.14,312.24,263.14,310.94,261.75,310.13Z" style="fill:#455a64"></path><path d="M109.49,357.3l-2.41-1.39a7.8,7.8,0,0,1-3.52-6.11v-161a7.77,7.77,0,0,1,3.53-6.1l196.75-113a7.81,7.81,0,0,1,7.06,0l1.83,1a7.8,7.8,0,0,1,3.53,6.11V237.91a7.79,7.79,0,0,1-3.53,6.11L116.54,357.3A7.82,7.82,0,0,1,109.49,357.3Z" style="fill:#455a64"></path><path d="M117.74,192.86l-13.15-7.59a7.2,7.2,0,0,0-1,3.48V349.8a7.8,7.8,0,0,0,3.52,6.11l2.41,1.39a7.82,7.82,0,0,0,7.05,0l1.2-.7Z" style="fill:#263238"></path><path d="M113,355.26v-161a7.79,7.79,0,0,1,3.53-6.11L312.73,74.82c1.95-1.12,3.53-.21,3.53,2V237.91a7.79,7.79,0,0,1-3.53,6.11L116.54,357.3C114.59,358.42,113,357.51,113,355.26Z" style="fill:#37474f"></path><path d="M205.14,295.23l18.59-10.74c1.4-.8,2.52-.23,2.52,1.28a5.36,5.36,0,0,1-2.52,4.18l-18.59,10.74c-1.39.8-2.52.23-2.52-1.28A5.41,5.41,0,0,1,205.14,295.23Z" style="fill:#263238"></path><path d="M122.05,193,306.82,86c1.12-.64,2-.12,2,1.16V227.57a4.44,4.44,0,0,1-2,3.49L122.05,337.74c-1.11.64-2,.12-2-1.17v-140A4.48,4.48,0,0,1,122.05,193Z" style="fill:#fff"></path></g><g id="freepik--Windows--inject-5"><path d="M134.13,235.07,132.24,234a5.56,5.56,0,0,1-2.52-4.36V202.69a5.56,5.56,0,0,1,2.52-4.36l70.59-40.76a5.59,5.59,0,0,1,5,0l1.88,1.09a5.57,5.57,0,0,1,2.52,4.36V190a5.59,5.59,0,0,1-2.52,4.37l-70.59,40.75A5.51,5.51,0,0,1,134.13,235.07Z" style="fill:#BA68C8"></path><path d="M134.13,235.07,132.24,234a5.56,5.56,0,0,1-2.52-4.36V202.69a5.56,5.56,0,0,1,2.52-4.36l70.59-40.76a5.59,5.59,0,0,1,5,0l1.88,1.09a5.57,5.57,0,0,1,2.52,4.36V190a5.59,5.59,0,0,1-2.52,4.37l-70.59,40.75A5.51,5.51,0,0,1,134.13,235.07Z" style="fill:#BA68C8;opacity:0.4"></path><path d="M134.13,235.07,132.24,234a5.56,5.56,0,0,1-2.52-4.36V202.69a5.56,5.56,0,0,1,2.52-4.36l70.59-40.76a5.59,5.59,0,0,1,5,0l1.88,1.09a5.57,5.57,0,0,1,2.52,4.36V190a5.59,5.59,0,0,1-2.52,4.37l-70.59,40.75A5.51,5.51,0,0,1,134.13,235.07Z" style="fill:#fff;opacity:0.30000000000000004"></path><path d="M141.37,206.51l-10.91-6.3a5.22,5.22,0,0,0-.74,2.48v26.93a5.56,5.56,0,0,0,2.52,4.36l1.89,1.09a5.51,5.51,0,0,0,5,0l2.21-1.27Z" style="fill:#BA68C8"></path><path d="M141.37,206.51l-10.91-6.3a5.22,5.22,0,0,0-.74,2.48v26.93a5.56,5.56,0,0,0,2.52,4.36l1.89,1.09a5.51,5.51,0,0,0,5,0l2.21-1.27Z" style="opacity:0.2"></path><path d="M136.64,206.69v26.93c0,1.6,1.13,2.26,2.52,1.45l70.59-40.75a5.59,5.59,0,0,0,2.52-4.37V163c0-1.6-1.13-2.25-2.52-1.45l-70.59,40.75A5.59,5.59,0,0,0,136.64,206.69Z" style="fill:#BA68C8"></path><path d="M166.8,191.83l24.41-14.1c1-.57,1.79-.31,1.79.58a3.58,3.58,0,0,1-1.79,2.65l-24.41,14.1c-1,.57-1.8.31-1.8-.58A3.58,3.58,0,0,1,166.8,191.83Z" style="fill:#fff"></path><path d="M166.52,200.18,206,177.36c.84-.48,1.52-.26,1.52.49a3,3,0,0,1-1.52,2.24l-39.51,22.82c-.84.48-1.52.26-1.52-.49A3,3,0,0,1,166.52,200.18Z" style="fill:#fff"></path><path d="M166.52,205.64,206,182.82c.84-.48,1.52-.26,1.52.49a3,3,0,0,1-1.52,2.24l-39.51,22.81c-.84.49-1.52.27-1.52-.49A3,3,0,0,1,166.52,205.64Z" style="fill:#fff"></path><path d="M166.52,211.09,206,188.28c.84-.48,1.52-.26,1.52.49A3,3,0,0,1,206,191l-39.51,22.81c-.84.48-1.52.26-1.52-.49A3,3,0,0,1,166.52,211.09Z" style="fill:#fff"></path><path d="M143.39,205.34l14.87-8.58c1.12-.65,2-.13,2,1.16V215.1a4.44,4.44,0,0,1-2,3.49l-14.87,8.59c-1.12.64-2,.12-2-1.17V208.84A4.46,4.46,0,0,1,143.39,205.34Z" style="fill:#BA68C8"></path><path d="M143.39,205.34l14.87-8.58c1.12-.65,2-.13,2,1.16V215.1a4.44,4.44,0,0,1-2,3.49l-14.87,8.59c-1.12.64-2,.12-2-1.17V208.84A4.46,4.46,0,0,1,143.39,205.34Z" style="fill:#fff;opacity:0.30000000000000004"></path><path d="M144.66,212.87a1.85,1.85,0,0,1-.9-.23,2.21,2.21,0,0,1-1-2,5.79,5.79,0,0,1,2.66-4.6h0a2,2,0,0,1,3.23,1.87,5.78,5.78,0,0,1-2.65,4.6A2.68,2.68,0,0,1,144.66,212.87ZM146,207a4.68,4.68,0,0,0-2.07,3.59.88.88,0,0,0,1.49.86,4.66,4.66,0,0,0,2.07-3.59A.88.88,0,0,0,146,207Z" style="fill:#fff"></path><path d="M160.28,209l-2.84-3a1.24,1.24,0,0,0-2,.34l-4.08,9-2-1.8a1.27,1.27,0,0,0-1-.31,1.25,1.25,0,0,0-.88.56l-6.11,9.49v2.16l7.2-11,6.57,5.95,1.05-.61-3.95-3.58,4.23-9.35.13,0,3.68,3.91Z" style="fill:#fff"></path><path d="M134.13,280.07,132.24,279a5.56,5.56,0,0,1-2.52-4.36V247.69a5.56,5.56,0,0,1,2.52-4.36l70.59-40.76a5.59,5.59,0,0,1,5,0l1.88,1.09a5.57,5.57,0,0,1,2.52,4.36V235a5.59,5.59,0,0,1-2.52,4.37l-70.59,40.75A5.51,5.51,0,0,1,134.13,280.07Z" style="fill:#BA68C8"></path><path d="M134.13,280.07,132.24,279a5.56,5.56,0,0,1-2.52-4.36V247.69a5.56,5.56,0,0,1,2.52-4.36l70.59-40.76a5.59,5.59,0,0,1,5,0l1.88,1.09a5.57,5.57,0,0,1,2.52,4.36V235a5.59,5.59,0,0,1-2.52,4.37l-70.59,40.75A5.51,5.51,0,0,1,134.13,280.07Z" style="fill:#BA68C8;opacity:0.4"></path><path d="M134.13,280.07,132.24,279a5.56,5.56,0,0,1-2.52-4.36V247.69a5.56,5.56,0,0,1,2.52-4.36l70.59-40.76a5.59,5.59,0,0,1,5,0l1.88,1.09a5.57,5.57,0,0,1,2.52,4.36V235a5.59,5.59,0,0,1-2.52,4.37l-70.59,40.75A5.51,5.51,0,0,1,134.13,280.07Z" style="fill:#fff;opacity:0.30000000000000004"></path><path d="M141.37,251.51l-10.91-6.3a5.22,5.22,0,0,0-.74,2.48v26.93a5.56,5.56,0,0,0,2.52,4.36l1.89,1.09a5.51,5.51,0,0,0,5,0l2.21-1.27Z" style="fill:#BA68C8"></path><path d="M141.37,251.51l-10.91-6.3a5.22,5.22,0,0,0-.74,2.48v26.93a5.56,5.56,0,0,0,2.52,4.36l1.89,1.09a5.51,5.51,0,0,0,5,0l2.21-1.27Z" style="opacity:0.2"></path><path d="M136.64,251.69v26.93c0,1.6,1.13,2.26,2.52,1.45l70.59-40.75a5.59,5.59,0,0,0,2.52-4.37V208c0-1.6-1.13-2.25-2.52-1.45l-70.59,40.75A5.59,5.59,0,0,0,136.64,251.69Z" style="fill:#BA68C8"></path><path d="M166.8,236.83l24.41-14.1c1-.57,1.79-.31,1.79.58a3.58,3.58,0,0,1-1.79,2.65l-24.41,14.1c-1,.57-1.8.31-1.8-.58A3.58,3.58,0,0,1,166.8,236.83Z" style="fill:#fff"></path><path d="M166.52,245.18,206,222.36c.84-.48,1.52-.26,1.52.49a3,3,0,0,1-1.52,2.24l-39.51,22.82c-.84.48-1.52.26-1.52-.49A3,3,0,0,1,166.52,245.18Z" style="fill:#fff"></path><path d="M166.52,250.64,206,227.82c.84-.48,1.52-.26,1.52.49a3,3,0,0,1-1.52,2.24l-39.51,22.81c-.84.49-1.52.27-1.52-.49A3,3,0,0,1,166.52,250.64Z" style="fill:#fff"></path><path d="M166.52,256.09,206,233.28c.84-.48,1.52-.26,1.52.49A3,3,0,0,1,206,236l-39.51,22.81c-.84.48-1.52.26-1.52-.49A3,3,0,0,1,166.52,256.09Z" style="fill:#fff"></path><path d="M143.39,250.34l14.87-8.58c1.12-.65,2-.13,2,1.16V260.1a4.44,4.44,0,0,1-2,3.49l-14.87,8.59c-1.12.64-2,.12-2-1.17V253.84A4.46,4.46,0,0,1,143.39,250.34Z" style="fill:#BA68C8"></path><path d="M143.39,250.34l14.87-8.58c1.12-.65,2-.13,2,1.16V260.1a4.44,4.44,0,0,1-2,3.49l-14.87,8.59c-1.12.64-2,.12-2-1.17V253.84A4.46,4.46,0,0,1,143.39,250.34Z" style="fill:#fff;opacity:0.30000000000000004"></path><path d="M144.66,257.87a1.85,1.85,0,0,1-.9-.23,2.21,2.21,0,0,1-1-2,5.79,5.79,0,0,1,2.66-4.6h0a2,2,0,0,1,3.23,1.87,5.78,5.78,0,0,1-2.65,4.6A2.68,2.68,0,0,1,144.66,257.87ZM146,252a4.68,4.68,0,0,0-2.07,3.59.88.88,0,0,0,1.49.86,4.66,4.66,0,0,0,2.07-3.59A.88.88,0,0,0,146,252Z" style="fill:#fff"></path><path d="M160.28,254l-2.84-3a1.24,1.24,0,0,0-2,.34l-4.08,9-2-1.8a1.27,1.27,0,0,0-1-.31,1.25,1.25,0,0,0-.88.56l-6.11,9.49v2.17l7.2-11.05,6.57,5.95,1.05-.61-3.95-3.58,4.23-9.35.13,0,3.68,3.91Z" style="fill:#fff"></path><path d="M134.13,324.07,132.24,323a5.56,5.56,0,0,1-2.52-4.36V291.69a5.56,5.56,0,0,1,2.52-4.36l70.59-40.76a5.59,5.59,0,0,1,5,0l1.88,1.09a5.57,5.57,0,0,1,2.52,4.36V279a5.59,5.59,0,0,1-2.52,4.37l-70.59,40.75A5.51,5.51,0,0,1,134.13,324.07Z" style="fill:#BA68C8"></path><path d="M134.13,324.07,132.24,323a5.56,5.56,0,0,1-2.52-4.36V291.69a5.56,5.56,0,0,1,2.52-4.36l70.59-40.76a5.59,5.59,0,0,1,5,0l1.88,1.09a5.57,5.57,0,0,1,2.52,4.36V279a5.59,5.59,0,0,1-2.52,4.37l-70.59,40.75A5.51,5.51,0,0,1,134.13,324.07Z" style="fill:#BA68C8;opacity:0.4"></path><path d="M134.13,324.07,132.24,323a5.56,5.56,0,0,1-2.52-4.36V291.69a5.56,5.56,0,0,1,2.52-4.36l70.59-40.76a5.59,5.59,0,0,1,5,0l1.88,1.09a5.57,5.57,0,0,1,2.52,4.36V279a5.59,5.59,0,0,1-2.52,4.37l-70.59,40.75A5.51,5.51,0,0,1,134.13,324.07Z" style="fill:#fff;opacity:0.30000000000000004"></path><path d="M141.37,295.51l-10.91-6.3a5.22,5.22,0,0,0-.74,2.48v26.93a5.56,5.56,0,0,0,2.52,4.36l1.89,1.09a5.51,5.51,0,0,0,5,0l2.21-1.27Z" style="fill:#BA68C8"></path><path d="M141.37,295.51l-10.91-6.3a5.22,5.22,0,0,0-.74,2.48v26.93a5.56,5.56,0,0,0,2.52,4.36l1.89,1.09a5.51,5.51,0,0,0,5,0l2.21-1.27Z" style="opacity:0.2"></path><path d="M136.64,295.69v26.93c0,1.6,1.13,2.26,2.52,1.45l70.59-40.75a5.59,5.59,0,0,0,2.52-4.37V252c0-1.6-1.13-2.25-2.52-1.45l-70.59,40.75A5.59,5.59,0,0,0,136.64,295.69Z" style="fill:#BA68C8"></path><path d="M166.8,280.83l24.41-14.1c1-.57,1.79-.31,1.79.58a3.58,3.58,0,0,1-1.79,2.65l-24.41,14.1c-1,.57-1.8.31-1.8-.58A3.58,3.58,0,0,1,166.8,280.83Z" style="fill:#fff"></path><path d="M166.52,289.18,206,266.36c.84-.48,1.52-.26,1.52.49a3,3,0,0,1-1.52,2.24l-39.51,22.82c-.84.48-1.52.26-1.52-.49A3,3,0,0,1,166.52,289.18Z" style="fill:#fff"></path><path d="M166.52,294.64,206,271.82c.84-.48,1.52-.26,1.52.49a3,3,0,0,1-1.52,2.24l-39.51,22.81c-.84.49-1.52.27-1.52-.49A3,3,0,0,1,166.52,294.64Z" style="fill:#fff"></path><path d="M166.52,300.09,206,277.28c.84-.48,1.52-.26,1.52.49A3,3,0,0,1,206,280l-39.51,22.81c-.84.48-1.52.26-1.52-.49A3,3,0,0,1,166.52,300.09Z" style="fill:#fff"></path><path d="M143.39,294.34l14.87-8.58c1.12-.65,2-.13,2,1.16V304.1a4.44,4.44,0,0,1-2,3.49l-14.87,8.59c-1.12.64-2,.12-2-1.17V297.84A4.46,4.46,0,0,1,143.39,294.34Z" style="fill:#BA68C8"></path><path d="M143.39,294.34l14.87-8.58c1.12-.65,2-.13,2,1.16V304.1a4.44,4.44,0,0,1-2,3.49l-14.87,8.59c-1.12.64-2,.12-2-1.17V297.84A4.46,4.46,0,0,1,143.39,294.34Z" style="fill:#fff;opacity:0.30000000000000004"></path><path d="M144.66,301.87a1.85,1.85,0,0,1-.9-.23,2.21,2.21,0,0,1-1-2,5.79,5.79,0,0,1,2.66-4.6h0a2,2,0,0,1,3.23,1.87,5.78,5.78,0,0,1-2.65,4.6A2.68,2.68,0,0,1,144.66,301.87ZM146,296a4.68,4.68,0,0,0-2.07,3.59.88.88,0,0,0,1.49.86,4.66,4.66,0,0,0,2.07-3.59A.88.88,0,0,0,146,296Z" style="fill:#fff"></path><path d="M160.28,298l-2.84-3a1.24,1.24,0,0,0-2,.34l-4.08,9-2-1.8a1.27,1.27,0,0,0-1-.31,1.25,1.25,0,0,0-.88.56l-6.11,9.49v2.17l7.2-11.05,6.57,5.95,1.05-.61-3.95-3.58,4.23-9.35.13,0,3.68,3.91Z" style="fill:#fff"></path><path d="M223.93,270.54l-1.88-1.09a5.56,5.56,0,0,1-2.52-4.36V150.84a5.57,5.57,0,0,1,2.52-4.36l108.4-62.59a5.53,5.53,0,0,1,5,0L337.37,85a5.59,5.59,0,0,1,2.52,4.37V203.59a5.57,5.57,0,0,1-2.52,4.36L229,270.54A5.53,5.53,0,0,1,223.93,270.54Z" style="fill:#BA68C8"></path><path d="M231.18,154.66l-10.91-6.3a5.11,5.11,0,0,0-.74,2.48V265.09a5.56,5.56,0,0,0,2.52,4.36l1.88,1.09a5.53,5.53,0,0,0,5,0l2.21-1.27Z" style="fill:#e6e6e6"></path><path d="M231.18,154.66l-10.91-6.3a5.11,5.11,0,0,0-.74,2.48v5.28l6.92,4Z" style="fill:#BA68C8"></path><g style="opacity:0.2"><path d="M231.18,154.66l-10.91-6.3a5.11,5.11,0,0,0-.74,2.48v5.28l6.92,4Z"></path></g><path d="M226.45,154.84V269.09c0,1.6,1.13,2.26,2.52,1.45L337.37,208a5.57,5.57,0,0,0,2.52-4.36V89.34c0-1.61-1.13-2.26-2.52-1.46L229,150.48A5.56,5.56,0,0,0,226.45,154.84Z" style="fill:#f5f5f5"></path><path d="M238.27,159.15c3.91-2.26,7.09-.43,7.09,4.09a15.67,15.67,0,0,1-7.09,12.28c-3.92,2.27-7.09.43-7.09-4.09A15.66,15.66,0,0,1,238.27,159.15Z" style="fill:#BA68C8"></path><path d="M252.61,153.44,275.93,140c1.39-.8,2.52-.23,2.52,1.27a5.42,5.42,0,0,1-2.52,4.19L252.61,158.9c-1.4.8-2.52.23-2.52-1.27A5.4,5.4,0,0,1,252.61,153.44Z" style="fill:#BA68C8"></path><path d="M251.35,163.13l16.38-9.46c.7-.4,1.26-.12,1.26.64a2.69,2.69,0,0,1-1.26,2.09l-16.38,9.46c-.7.4-1.26.12-1.26-.64A2.69,2.69,0,0,1,251.35,163.13Z" style="fill:#BA68C8"></path><path d="M233.7,183.62l98.95-57.13c1.39-.8,2.52-.15,2.52,1.46v70.59a5.56,5.56,0,0,1-2.52,4.36l-99,57.16c-1.39.8-2.47.15-2.47-1.45V188A5.57,5.57,0,0,1,233.7,183.62Z" style="fill:#BA68C8"></path><path d="M257.38,230.27a1.85,1.85,0,0,1-.95-.25,2.33,2.33,0,0,1-1-2.14V190a6.15,6.15,0,0,1,2.81-4.87l49.3-28.46a2.29,2.29,0,0,1,2.36-.17,2.32,2.32,0,0,1,1,2.13v37.85a6.1,6.1,0,0,1-2.81,4.86l-49.3,28.46A2.79,2.79,0,0,1,257.38,230.27Zm51.54-72.82a1.68,1.68,0,0,0-.83.27l-49.3,28.46a5,5,0,0,0-2.22,3.86v37.84a1,1,0,0,0,1.64,1l49.3-28.47a5,5,0,0,0,2.23-3.85V158.67a1.28,1.28,0,0,0-.45-1.13A.75.75,0,0,0,308.92,157.45Z" style="fill:#fff"></path><path d="M264.16,198.49a3,3,0,0,1-1.52-.4,3.87,3.87,0,0,1-1.68-3.56,10.92,10.92,0,0,1,5-8.69h0a3.45,3.45,0,0,1,5.6,3.23,11,11,0,0,1-5,8.69A4.9,4.9,0,0,1,264.16,198.49Zm2.4-11.65a9.83,9.83,0,0,0-4.44,7.69,2.32,2.32,0,0,0,3.86,2.22,9.83,9.83,0,0,0,4.43-7.68,2.32,2.32,0,0,0-3.85-2.23Z" style="fill:#fff"></path><path d="M256.47,224.22l-1-.64,17.13-25.86a1.69,1.69,0,0,1,2.32-.48l18,11.91-.65,1-18-11.9a.51.51,0,0,0-.71.14Z" style="fill:#fff"></path><path d="M283.24,203.36l-1-.54,13.42-25.17a1.68,1.68,0,0,1,1.3-.88,1.73,1.73,0,0,1,1.46.59l12.36,14.83-.89.74L297.5,178.11a.5.5,0,0,0-.83.08Z" style="fill:#fff"></path><path d="M339.89,89.34c0-1.61-1.13-2.26-2.52-1.46L229,150.48a5.56,5.56,0,0,0-2.52,4.36v5.27L339.89,94.62Z" style="fill:#BA68C8"></path><path d="M339.89,89.34c0-1.61-1.13-2.26-2.52-1.46L229,150.48a5.56,5.56,0,0,0-2.52,4.36v5.27L339.89,94.62Z" style="opacity:0.1"></path></g></svg>