<svg xmlns="http://www.w3.org/2000/svg" viewBox="0 0 500 500"><g id="freepik--background-complete--inject-34"><rect x="387.07" y="139.43" width="58.32" height="86.52" transform="translate(157.53 556.45) rotate(-79.01)" style="fill:#ebebeb"></rect><path d="M464.39,163.06a6.25,6.25,0,0,1-.93.61l-2.77,1.61-10.26,5.81L416.37,190l-.28.16-.21-.25-.51-.59L389.85,159.2l-7.66-9.2-2.05-2.52a6,6,0,0,1-.68-.92,6.31,6.31,0,0,1,.8.81c.54.62,1.26,1.42,2.16,2.43l7.86,9,25.69,30,.51.59-.49-.08,34.17-18.75,10.38-5.6,2.84-1.48A5.57,5.57,0,0,1,464.39,163.06Z" style="fill:#e0e0e0"></path><path d="M368.34,203.81c-.14-.17,7.78-6.78,17.67-14.76s18-14.31,18.16-14.14-7.77,6.77-17.67,14.76S368.48,204,368.34,203.81Z" style="fill:#e0e0e0"></path><path d="M432.54,179.68c.2-.1,5,8.91,10.72,20.13s10.21,20.4,10,20.5-5-8.92-10.72-20.14S432.35,179.78,432.54,179.68Z" style="fill:#e0e0e0"></path><rect x="402.3" y="60.33" width="60.15" height="40.55" transform="translate(-5.04 126.62) rotate(-16.56)" style="fill:#ebebeb"></rect><path d="M455.75,53a5,5,0,0,1-.39.67l-1.18,1.89c-1.09,1.67-2.6,4-4.46,6.88-3.83,5.83-9.08,13.8-14.9,22.64l-.12.18-.21-.08L434,85,408.56,74.61l-7.68-3.21-2.08-.9a4.37,4.37,0,0,1-.71-.34,4.22,4.22,0,0,1,.75.24l2.12.8c1.88.75,4.52,1.78,7.75,3L434.2,84.48l.5.2-.33.11,15-22.55,4.6-6.79,1.27-1.83A3.88,3.88,0,0,1,455.75,53Z" style="fill:#e0e0e0"></path><path d="M409.65,109c-.14-.06,2.61-6.68,6.14-14.78s6.51-14.62,6.65-14.56-2.61,6.68-6.15,14.78S409.79,109.08,409.65,109Z" style="fill:#e0e0e0"></path><path d="M441.46,73.5c.09-.13,5.94,3.89,13.08,9s12.85,9.29,12.77,9.41-5.95-3.89-13.09-9S441.37,73.62,441.46,73.5Z" style="fill:#e0e0e0"></path><rect x="414.63" y="255.55" width="29.63" height="43.96" transform="translate(150.18 705.86) rotate(-89.77)" style="fill:#f5f5f5"></rect><path d="M451.63,263.17a4.27,4.27,0,0,1-.41.39L450,264.63c-1.11.94-2.67,2.25-4.57,3.87l-15.21,12.69-.12.11-.13-.1-.31-.25-15.6-12.64-4.7-3.86-1.26-1.07a3.57,3.57,0,0,1-.43-.39,3.09,3.09,0,0,1,.48.33l1.31,1,4.78,3.76,15.67,12.55.31.24H430l15.28-12.61,4.65-3.77,1.27-1A2.81,2.81,0,0,1,451.63,263.17Z" style="fill:#ebebeb"></path><path d="M407.54,292.62c-.08-.07,3.24-4.12,7.42-9s7.64-8.86,7.73-8.78-3.24,4.12-7.42,9S407.63,292.69,407.54,292.62Z" style="fill:#ebebeb"></path><path d="M437.3,274.48c.09-.06,3.34,4,7.26,9s7,9.21,6.95,9.28-3.34-4-7.26-9S437.22,274.55,437.3,274.48Z" style="fill:#ebebeb"></path><path d="M87.15,262.39A15.44,15.44,0,0,0,100,251.25c2.43-8.18-1.82-16.67-9.49-19s-15.87,2.5-18.3,10.69A15.44,15.44,0,0,0,77,259.43C54.67,256.39,48.84,280,48.84,280L99.41,295S107.44,271.81,87.15,262.39Z" style="fill:#ebebeb"></path><rect x="51.03" y="234.3" width="4.88" height="21.88" transform="translate(71.02 -5.15) rotate(16.31)" style="fill:#ebebeb"></rect><rect x="51.03" y="234.3" width="4.88" height="21.88" transform="translate(-196.92 227.7) rotate(-73.69)" style="fill:#ebebeb"></rect><path d="M261.68,464.07c-1.8-1.55-5.82-6.44-2.72-12.14,1.14-2.08,3.55-3.12,5.73-4s4.48-1.72,6.29-3.25c3.41-2.9,4.35-7.72,6.61-11.59,2.6-4.44,7.45-7.77,12.57-7.54,5.87.27,10.76,5.06,13,10.52s2.3,11.53,2.34,17.43c0,3.26-.12,6.94-2.51,9.14-2.21,2-5.54,2.06-8.53,2l-32.06-1" style="fill:#f5f5f5"></path><path d="M323,375.91H238.69l15.18,90.56a10.12,10.12,0,0,0,7.2,8.06l.3.08c.25.07.49.15.75.2a10.65,10.65,0,0,0,1.71.19l0,.09.41-.06h37.58a10.82,10.82,0,0,0,2.06-.21,10.16,10.16,0,0,0,8.53-8.85l7.32-62.4.33-2.48h0l2.9-24.71Zm-15.91,57.77h-8.65l.87-26.29h10Zm3.09-26.29h8.28l-3.08,26.29h-7.45Zm-24.72,55.42L284.93,440h12.46l-.76,22.83ZM272,440H284.1l.52,22.83H273.76Zm.93,22.83H262.77c-1-6.16-2.22-14.17-3.58-22.83h12Zm-1.42-29.13-2-26.29h13.89l.6,26.29Zm13.29,0-.61-26.29h14.3l-.88,26.29ZM284,401.09l-.56-24.34h16l-.8,24.34Zm-.84,0H269l-1.9-24.34h15.57Zm-15.07,0H253.07c-.54-3.36-1-6.54-1.5-9.41-1.57-9.84-2.16-13.54-2.49-14.93h17.16Zm.49,6.3,2,26.29H258.21c-.42-2.67-.85-5.37-1.27-8.07-1-6.2-2-12.41-2.87-18.22Zm-11.26,26.29h-8.14l-4.41-26.29h8.41C254.5,415.52,255.93,424.56,257.36,433.68Zm1,6.3,3.58,22.83h-7.82L250.28,440Zm39.12,22.83.76-22.83h8.32l-1.95,22.83Zm2-61.72.81-24.34H312l-2.08,24.34Zm-51.24-24.34c.34,1.76,1.88,11.34,3.94,24.34h-8.46l-4.09-24.34ZM312,462.81h-6.52L307.39,440h7.25Zm7.24-61.72h-8.48l2.08-24.34h9.26Z" style="fill:#e0e0e0"></path><rect x="127.68" y="37.95" width="6.31" height="135.72" style="fill:#e0e0e0"></rect><rect x="36.11" y="39" width="90.61" height="134.86" rx="0.09" style="fill:#f5f5f5"></rect><path d="M127.68,174.91H35.15a.09.09,0,0,1-.09-.09V38a.09.09,0,0,1,.09-.09h92.53a.09.09,0,0,1,.09.09V174.82A.09.09,0,0,1,127.68,174.91Zm-90.43-2.1h88.32a.09.09,0,0,0,.1-.09V40.14a.09.09,0,0,0-.1-.09H37.25a.09.09,0,0,0-.09.09V172.72A.09.09,0,0,0,37.25,172.81Z" style="fill:#ebebeb"></path><rect x="45.23" y="47.32" width="72.52" height="118.13" rx="0.09" style="fill:#fafafa"></rect><rect x="61.05" y="80.81" width="40.72" height="47.73" rx="0.06" style="fill:#ebebeb"></rect><path d="M98.55,122.69c0,.16-2,1-5.78.59a14.13,14.13,0,0,1-6.5-2.6,13.16,13.16,0,0,1-5-7.94,11.44,11.44,0,0,1,3.86-10.86A10.16,10.16,0,0,1,88,100.17a7.71,7.71,0,0,1,3.66-.42,6.52,6.52,0,0,1,3.67,1.59,4.8,4.8,0,0,1,1.44,4.27,7,7,0,0,1-2,3.66,12.85,12.85,0,0,1-3.07,2.26,16.74,16.74,0,0,1-7.32,2.09,14.56,14.56,0,0,1-7.8-1.77,14.13,14.13,0,0,1-5.73-5.95,12.06,12.06,0,0,1-1-8.33,12.42,12.42,0,0,1,4.39-6.87,11,11,0,0,1,3.68-1.86A9.19,9.19,0,0,1,82,88.72a6.75,6.75,0,0,1,3.77,2.12,6.21,6.21,0,0,1,1.47,4,7.66,7.66,0,0,1-1,3.83A10.46,10.46,0,0,1,84,101.48a15.59,15.59,0,0,1-5.77,3.06,14.66,14.66,0,0,1-6.07.47,12.34,12.34,0,0,1-5.28-2,11.45,11.45,0,0,1-5-8,9.66,9.66,0,0,1,1.87-6.85,8.21,8.21,0,0,1,3.46-2.76c1-.36,1.49-.35,1.52-.26s-.43.34-1.21.85a9.07,9.07,0,0,0-2.68,2.89,8.47,8.47,0,0,0-1.1,5.85A9.59,9.59,0,0,0,68.14,101a11.07,11.07,0,0,0,9.25.88A13,13,0,0,0,82,99.27a5.73,5.73,0,0,0,2.17-4.34,3.13,3.13,0,0,0-2.79-3.08,6,6,0,0,0-2.66.12,7.72,7.72,0,0,0-2.52,1.32,9.19,9.19,0,0,0-3.16,5,8.84,8.84,0,0,0,.77,6,10.94,10.94,0,0,0,4.39,4.55,11.39,11.39,0,0,0,6,1.41,13.89,13.89,0,0,0,5.93-1.62,10.2,10.2,0,0,0,2.37-1.67,4,4,0,0,0,1.2-2,1.71,1.71,0,0,0-.49-1.57,3.59,3.59,0,0,0-2-.87,5,5,0,0,0-2.31.2A7.4,7.4,0,0,0,86.83,104a9,9,0,0,0-3.28,8.3,11.48,11.48,0,0,0,3.88,6.88A13.75,13.75,0,0,0,93,122C96.45,122.8,98.52,122.4,98.55,122.69Z" style="fill:#e0e0e0"></path><polygon points="89.48 433.02 95.65 473.58 131.51 473.58 139.83 433.61 89.48 433.02" style="fill:#ebebeb"></polygon><path d="M134.82,459c0,.11-9.19.21-20.52.21s-20.52-.1-20.52-.21,9.18-.21,20.52-.21S134.82,458.9,134.82,459Z" style="fill:#fafafa"></path><path d="M135,457c0,.12-9.24.21-20.65.21s-20.66-.09-20.66-.21,9.25-.21,20.66-.21S135,456.91,135,457Z" style="fill:#fafafa"></path><path d="M134.88,454.77c0,.12-9.25.21-20.65.21s-20.66-.09-20.66-.21,9.24-.21,20.66-.21S134.88,454.65,134.88,454.77Z" style="fill:#fafafa"></path><path d="M99.77,471.27a32.86,32.86,0,0,1-1.1-5.11A31.81,31.81,0,0,1,98,461a34.3,34.3,0,0,1,1.1,5.11A31.81,31.81,0,0,1,99.77,471.27Z" style="fill:#fafafa"></path><path d="M102.21,470.84a38.29,38.29,0,0,1-.44-5,38.81,38.81,0,0,1-.24-5,24.15,24.15,0,0,1,.66,5A24.94,24.94,0,0,1,102.21,470.84Z" style="fill:#fafafa"></path><path d="M106.66,470.84a24.13,24.13,0,0,1-.94-5.11,25.67,25.67,0,0,1-.27-5.19,43.54,43.54,0,0,1,.69,5.14A47.81,47.81,0,0,1,106.66,470.84Z" style="fill:#fafafa"></path><path d="M109.78,471.05a41.16,41.16,0,0,1-.34-10.4,45.87,45.87,0,0,1,.26,5.19A45.29,45.29,0,0,1,109.78,471.05Z" style="fill:#fafafa"></path><path d="M115.3,470.84a29.64,29.64,0,0,1-.38-4.93,28.48,28.48,0,0,1,0-4.94,30.2,30.2,0,0,1,.37,4.93A28,28,0,0,1,115.3,470.84Z" style="fill:#fafafa"></path><path d="M119.34,471.05a29.57,29.57,0,0,1-.17-5.1,30.29,30.29,0,0,1,.25-5.09,32.2,32.2,0,0,1,.17,5.1A33,33,0,0,1,119.34,471.05Z" style="fill:#fafafa"></path><path d="M123.12,470.51a65.74,65.74,0,0,1,1-10.61,34.26,34.26,0,0,1-.31,5.32A34.63,34.63,0,0,1,123.12,470.51Z" style="fill:#fafafa"></path><path d="M128,470a18,18,0,0,1,.6-4.53,18.66,18.66,0,0,1,1.33-4.37,38.9,38.9,0,0,1-.92,4.46A39.45,39.45,0,0,1,128,470Z" style="fill:#fafafa"></path><path d="M124.54,353s0,.07,0,.19-.1.35-.17.58c-.16.53-.39,1.26-.68,2.19s-.67,2.1-1.05,3.47-.87,2.89-1.29,4.62-1,3.61-1.4,5.65-.92,4.23-1.38,6.53c-.86,4.62-1.65,9.74-2.2,15.14s-.77,10.57-.84,15.27c0,2.35,0,4.59.07,6.68s.14,4,.25,5.81.24,3.38.35,4.79.24,2.62.35,3.61.18,1.72.23,2.28c0,.24,0,.43.06.59a1.16,1.16,0,0,1,0,.21.91.91,0,0,1,0-.2c0-.16,0-.35-.09-.59-.08-.56-.18-1.31-.31-2.27s-.3-2.2-.42-3.61-.32-3-.42-4.79-.25-3.73-.3-5.82-.09-4.34-.11-6.69c.05-4.72.28-9.9.81-15.32s1.35-10.53,2.23-15.16c.48-2.31.92-4.51,1.43-6.54s1-3.93,1.45-5.65,1-3.26,1.35-4.61.79-2.51,1.13-3.45l.75-2.17.21-.56Z" style="fill:#ebebeb"></path><path d="M118.07,378.11a13.29,13.29,0,0,1,5.58-7,3.18,3.18,0,0,1,2.95-.54c1.25.6,1.35,2.36,1,3.7a9.75,9.75,0,0,1-4,5.53,8.34,8.34,0,0,1-6.09,1.54" style="fill:#ebebeb"></path><path d="M115.89,395.07c.93-3.5,3.72-8.48,6.62-10.65a4.4,4.4,0,0,1,1.51-.8,1.76,1.76,0,0,1,1.61.35,2.48,2.48,0,0,1,.36,2.32,14.12,14.12,0,0,1-10.46,10.53" style="fill:#ebebeb"></path><path d="M115.29,410A20.53,20.53,0,0,1,122,401.6a3.13,3.13,0,0,1,2.33-.83c1.27.23,1.84,1.77,1.73,3.06-.23,2.64-2.25,4.75-4.33,6.39a26.79,26.79,0,0,1-6.17,3.18" style="fill:#ebebeb"></path><path d="M115.63,420.72a19.73,19.73,0,0,1,5.68-6.46,4.08,4.08,0,0,1,1.71-.77,1.75,1.75,0,0,1,1.67.64c.57.83,0,2-.58,2.77a16.23,16.23,0,0,1-8.11,6" style="fill:#ebebeb"></path><path d="M115.35,416.36a64.09,64.09,0,0,0-8.12-8.27c-.46-.39-1-.8-1.62-.61a1.19,1.19,0,0,0-.75,1.09,3.11,3.11,0,0,0,.31,1.36,15.73,15.73,0,0,0,10.46,8.79" style="fill:#ebebeb"></path><path d="M115.61,402.4l-6.38-7.78a7.71,7.71,0,0,0-2.07-2,2.63,2.63,0,0,0-2.73,0,2.59,2.59,0,0,0-.87,2.57,6.72,6.72,0,0,0,1.25,2.56,18.7,18.7,0,0,0,4.65,4.94c1.87,1.29,3.57,2.13,5.82,1.79" style="fill:#ebebeb"></path><path d="M116.5,386.68a22.16,22.16,0,0,0-6.43-9.64,3.8,3.8,0,0,0-1.67-1,2.81,2.81,0,0,0-2.93,2.06,5.29,5.29,0,0,0,.59,4.22,11,11,0,0,0,3,3.17,25.83,25.83,0,0,0,7.1,3.84" style="fill:#ebebeb"></path><path d="M119.05,372.66c-.62-4.51-3-8.26-5.69-11.91-.57-.77-1.37-1.59-2.32-1.44a1.82,1.82,0,0,0-1.33,1.14,4.38,4.38,0,0,0-.26,1.8,14,14,0,0,0,9,12.45" style="fill:#ebebeb"></path><path d="M120.83,365.5a37.8,37.8,0,0,1-.23-7,12.39,12.39,0,0,1,2.32-6.5,5.32,5.32,0,0,1,2.31-1.84,2.93,2.93,0,0,1,2.85.37,3.13,3.13,0,0,1,1,2.51,7.91,7.91,0,0,1-.72,2.67c-1.7,4.09-4.54,8.62-7.5,9.76" style="fill:#ebebeb"></path><path d="M93,370.88a3.22,3.22,0,0,1,0,.57c0,.42,0,1,0,1.64s0,1.58,0,2.59,0,2.15.13,3.42c.11,2.54.35,5.55.74,8.89s1,7,1.76,10.77,1.76,7.36,2.72,10.57,2,6.07,2.89,8.44c.43,1.19.89,2.25,1.26,3.19s.72,1.73,1,2.38l.64,1.51a2,2,0,0,1,.2.54,4.79,4.79,0,0,1-.27-.51l-.72-1.47c-.31-.64-.67-1.43-1.07-2.36s-.87-2-1.32-3.17c-1-2.36-2-5.22-3-8.43s-1.95-6.8-2.76-10.6S94,391.38,93.6,388s-.58-6.37-.65-8.92c-.06-1.27,0-2.42-.06-3.43s0-1.88,0-2.59,0-1.22.06-1.64A3.54,3.54,0,0,1,93,370.88Z" style="fill:#e0e0e0"></path><path d="M94,389.37a9.48,9.48,0,0,1,2.28-6,2.29,2.29,0,0,1,1.89-1c1,.15,1.43,1.32,1.46,2.31a7,7,0,0,1-1.57,4.64,5.93,5.93,0,0,1-3.81,2.36" style="fill:#e0e0e0"></path><path d="M96.2,401.38c-.13-2.58.7-6.57,2.21-8.67a3.06,3.06,0,0,1,.85-.87,1.26,1.26,0,0,1,1.17-.11,1.76,1.76,0,0,1,.75,1.51,10.08,10.08,0,0,1-4.86,9.42" style="fill:#e0e0e0"></path><path d="M99,411.68a14.68,14.68,0,0,1,2.74-7.16,2.25,2.25,0,0,1,1.41-1.06c.91-.12,1.63.81,1.83,1.71.41,1.84-.5,3.72-1.57,5.28a18.81,18.81,0,0,1-3.52,3.49" style="fill:#e0e0e0"></path><path d="M101.54,418.91a14.13,14.13,0,0,1,2.48-5.63,2.88,2.88,0,0,1,1-.88,1.23,1.23,0,0,1,1.28.07c.57.45.44,1.33.2,2a11.56,11.56,0,0,1-4.24,5.8" style="fill:#e0e0e0"></path><path d="M100.41,416a44.86,44.86,0,0,0-7.31-3.88,1.31,1.31,0,0,0-1.24-.07.86.86,0,0,0-.27.9,2.26,2.26,0,0,0,.5.86,11.26,11.26,0,0,0,9,3.74" style="fill:#e0e0e0"></path><path d="M97.58,406.44l-6-3.92a5.39,5.39,0,0,0-1.83-.9,1.87,1.87,0,0,0-1.86.57,1.81,1.81,0,0,0,0,1.93,4.79,4.79,0,0,0,1.39,1.48A13.57,13.57,0,0,0,93.45,408a5.59,5.59,0,0,0,4.36,0" style="fill:#e0e0e0"></path><path d="M94.8,395.54a15.93,15.93,0,0,0-6.45-5.18,2.65,2.65,0,0,0-1.35-.3,2,2,0,0,0-1.55,2,3.81,3.81,0,0,0,1.31,2.75,7.78,7.78,0,0,0,2.73,1.51,18.2,18.2,0,0,0,5.65,1.08" style="fill:#e0e0e0"></path><path d="M93.52,385.45c-1.39-2.94-3.8-5-6.44-6.89a2,2,0,0,0-1.89-.48,1.32,1.32,0,0,0-.66,1.07,3.14,3.14,0,0,0,.22,1.28A9.94,9.94,0,0,0,93.58,387" style="fill:#e0e0e0"></path><path d="M93.2,380.19a25.66,25.66,0,0,1-1.66-4.69,8.84,8.84,0,0,1,.17-4.92,3.9,3.9,0,0,1,1.18-1.76,2.1,2.1,0,0,1,2-.36,2.2,2.2,0,0,1,1.2,1.5,5.43,5.43,0,0,1,.09,2c-.28,3.15-1.24,6.85-3,8.26" style="fill:#e0e0e0"></path><path d="M138.36,370.49a2.49,2.49,0,0,1,0,.57c0,.41,0,1,.06,1.63s.05,1.58,0,2.6,0,2.16-.06,3.43c-.07,2.55-.29,5.57-.65,8.92s-.95,7-1.74,10.81-1.77,7.38-2.75,10.6-2,6.08-3,8.43c-.45,1.2-.93,2.24-1.32,3.17s-.76,1.73-1.07,2.37-.53,1.1-.72,1.47a2.36,2.36,0,0,1-.27.5,4,4,0,0,1,.2-.53c.16-.39.37-.89.64-1.51s.63-1.45,1-2.39.83-2,1.26-3.18c.92-2.37,1.91-5.23,2.9-8.44s1.9-6.78,2.71-10.57,1.35-7.45,1.76-10.78.63-6.34.75-8.88c.08-1.27.09-2.42.12-3.43s0-1.87,0-2.59,0-1.22,0-1.63A4.09,4.09,0,0,1,138.36,370.49Z" style="fill:#ebebeb"></path><path d="M137.36,389a9.48,9.48,0,0,0-2.28-6,2.27,2.27,0,0,0-1.89-1c-1,.14-1.43,1.32-1.46,2.31a7,7,0,0,0,1.57,4.64,5.93,5.93,0,0,0,3.82,2.36" style="fill:#ebebeb"></path><path d="M135.2,401c.12-2.58-.71-6.57-2.22-8.67a3.06,3.06,0,0,0-.85-.87,1.26,1.26,0,0,0-1.17-.11,1.77,1.77,0,0,0-.75,1.51,10.09,10.09,0,0,0,4.86,9.42" style="fill:#ebebeb"></path><path d="M132.39,411.28a14.52,14.52,0,0,0-2.74-7.15,2.28,2.28,0,0,0-1.4-1.07c-.92-.11-1.64.82-1.84,1.71-.41,1.85.51,3.73,1.57,5.29a19.13,19.13,0,0,0,3.52,3.49" style="fill:#ebebeb"></path><path d="M129.85,418.52a14.13,14.13,0,0,0-2.47-5.63,2.94,2.94,0,0,0-1-.89,1.25,1.25,0,0,0-1.28.08c-.56.44-.44,1.33-.2,2a11.64,11.64,0,0,0,4.24,5.79" style="fill:#ebebeb"></path><path d="M131,415.61a44.91,44.91,0,0,1,7.31-3.89,1.34,1.34,0,0,1,1.24-.07.88.88,0,0,1,.27.91,2.34,2.34,0,0,1-.5.86,11.28,11.28,0,0,1-9,3.74" style="fill:#ebebeb"></path><path d="M133.81,406.05l6-3.93a5.56,5.56,0,0,1,1.83-.89,1.87,1.87,0,0,1,1.86.56,1.83,1.83,0,0,1,0,1.94,4.79,4.79,0,0,1-1.4,1.47,13.6,13.6,0,0,1-4.23,2.37,5.59,5.59,0,0,1-4.36,0" style="fill:#ebebeb"></path><path d="M136.59,395.15A15.93,15.93,0,0,1,143,390a2.68,2.68,0,0,1,1.35-.31,2,2,0,0,1,1.55,2,3.78,3.78,0,0,1-1.31,2.76,8.16,8.16,0,0,1-2.72,1.51,18.55,18.55,0,0,1-5.66,1.08" style="fill:#ebebeb"></path><path d="M137.87,385.06c1.39-2.94,3.8-5,6.44-6.89a2,2,0,0,1,1.89-.48,1.31,1.31,0,0,1,.66,1.07,3,3,0,0,1-.22,1.28,10,10,0,0,1-8.83,6.53" style="fill:#ebebeb"></path><path d="M138.2,379.8a27.06,27.06,0,0,0,1.66-4.7,8.94,8.94,0,0,0-.18-4.92,3.87,3.87,0,0,0-1.18-1.75,2.1,2.1,0,0,0-2-.36,2.24,2.24,0,0,0-1.2,1.49,6,6,0,0,0-.09,2c.28,3.15,1.24,6.84,3,8.26" style="fill:#ebebeb"></path><path d="M85.37,425v7.59a3,3,0,0,0,3,3h51.93a3,3,0,0,0,3-3V425Z" style="fill:#ebebeb"></path><polygon points="89.87 435.57 90.3 437.99 138.21 441.4 139.42 435.57 89.87 435.57" style="fill:#e0e0e0"></polygon></g><g id="freepik--Plant--inject-34"><path d="M400.45,394.49c-.08.11-.76-.3-1.52-.91s-1.31-1.18-1.23-1.28.77.3,1.52.91S400.53,394.39,400.45,394.49Z" style="fill:#263238"></path><path d="M421.14,363.57a23.66,23.66,0,0,0-.71-8.6c-.91-2.74-3-5.27-5.86-5.85-3.23-.67-6.54,1.37-8.35,4.13s-2.44,6.11-3,9.36a330.1,330.1,0,0,0-4.05,68l13.22,1.85C418.23,408.73,420.08,388,421.14,363.57Z" style="fill:#455a64"></path><path d="M412.74,349s0,.08-.06.22l-.22.6c-.22.55-.51,1.32-.88,2.28-.19.5-.43,1-.63,1.65l-.64,2c-.23.72-.48,1.48-.74,2.3s-.45,1.7-.68,2.62a114.38,114.38,0,0,0-2.56,13.09c-.71,5-1.18,10.48-1.55,16.27-.68,11.59-.79,22.11-1.08,29.71-.14,3.81-.28,6.89-.42,9-.07,1-.13,1.85-.17,2.44,0,.26,0,.47-.05.64a.86.86,0,0,1,0,.22s0-.08,0-.22,0-.38,0-.64c0-.6,0-1.42.08-2.45.08-2.13.16-5.2.26-9,.22-7.6.27-18.12.94-29.73.37-5.8.86-11.32,1.6-16.3a109.29,109.29,0,0,1,2.66-13.12l.72-2.62c.28-.81.54-1.58.78-2.3l.68-2c.21-.62.47-1.15.67-1.65.4-1,.73-1.7,1-2.25l.26-.58A1.35,1.35,0,0,1,412.74,349Z" style="fill:#263238"></path><path d="M414,349a9.49,9.49,0,0,1,1.62,2.74,20.4,20.4,0,0,1,1.21,8.55c-.36,7.31-1,17.38-1.88,28.5s-1.84,21.18-2.62,28.44c-.39,3.64-.73,6.57-1,8.6q-.19,1.47-.3,2.34l-.09.6a.53.53,0,0,1-.05.21s0-.07,0-.21,0-.37,0-.61c.06-.58.13-1.36.22-2.35.19-2.07.48-5,.82-8.61.7-7.27,1.61-17.33,2.49-28.44s1.58-21.19,2-28.48a20.6,20.6,0,0,0-1-8.47A17.09,17.09,0,0,0,414,349Z" style="fill:#263238"></path><path d="M423.13,383.25a7,7,0,0,1-2.5-.64,7.56,7.56,0,0,1-2.35-1.1,7.4,7.4,0,0,1,2.51.65A7.16,7.16,0,0,1,423.13,383.25Z" style="fill:#263238"></path><path d="M424.73,369.77a15.58,15.58,0,0,1-5,2.22,8.39,8.39,0,0,1,2.39-1.32A8.13,8.13,0,0,1,424.73,369.77Z" style="fill:#263238"></path><path d="M423.9,358.77a8.27,8.27,0,0,1-3.91-.27,8.27,8.27,0,0,1,3.91.27Z" style="fill:#263238"></path><path d="M410.25,351.72c-.11.07-.69-.65-1.29-1.61s-1-1.79-.89-1.86.68.65,1.29,1.61S410.36,351.65,410.25,351.72Z" style="fill:#263238"></path><path d="M405.74,358.37c0,.14-.84.22-1.88.2a4,4,0,0,1-1.87-.27c0-.14.85-.22,1.88-.2A3.94,3.94,0,0,1,405.74,358.37Z" style="fill:#263238"></path><path d="M402.5,371.69a4.67,4.67,0,0,1-2-.55c-1-.42-1.85-.86-1.8-1a4.5,4.5,0,0,1,2,.55C401.75,371.13,402.55,371.56,402.5,371.69Z" style="fill:#263238"></path><path d="M402.16,382.88c0,.13-.73.39-1.69.59a3.69,3.69,0,0,1-1.78.14c0-.13.73-.4,1.69-.6S402.13,382.75,402.16,382.88Z" style="fill:#263238"></path><path d="M400.63,401.19c0,.13-.77.38-1.78.56a4,4,0,0,1-1.87.1c0-.13.77-.38,1.78-.56S400.61,401.06,400.63,401.19Z" style="fill:#263238"></path><path d="M399.62,411.3c.06.11-.6.59-1.49,1.05s-1.65.76-1.71.64.61-.59,1.49-1.05S399.56,411.18,399.62,411.3Z" style="fill:#263238"></path><path d="M407.88,422.77c-.12.07-.7-.74-1.3-1.79a5.3,5.3,0,0,1-.89-2c.11-.06.69.74,1.3,1.79A5.56,5.56,0,0,1,407.88,422.77Z" style="fill:#263238"></path><path d="M410.26,403.71c.09.09-.56.87-1.45,1.74s-1.68,1.51-1.78,1.42.56-.88,1.45-1.75S410.17,403.61,410.26,403.71Z" style="fill:#263238"></path><path d="M409.73,393.7c-.1.09-.7-.4-1.34-1.1s-1.09-1.33-1-1.42.7.4,1.35,1.1S409.83,393.61,409.73,393.7Z" style="fill:#263238"></path><path d="M411.37,380.92c.09.09-.45.85-1.21,1.7s-1.46,1.47-1.56,1.38.45-.84,1.21-1.69S411.27,380.83,411.37,380.92Z" style="fill:#263238"></path><path d="M412.29,371.65c-.09.09-.85-.5-1.68-1.33s-1.45-1.56-1.35-1.66.84.5,1.68,1.33S412.38,371.55,412.29,371.65Z" style="fill:#263238"></path><path d="M414.1,359.11a4.79,4.79,0,0,1-.84,1.87c-.58,1-1.14,1.71-1.25,1.64s.26-.91.84-1.88S414,359,414.1,359.11Z" style="fill:#263238"></path><path d="M417.51,347.49a4.57,4.57,0,0,1-.75,1.88c-.53,1-1.05,1.71-1.16,1.65s.22-.9.74-1.88S417.39,347.42,417.51,347.49Z" style="fill:#263238"></path><path d="M421.37,352.76c.06.12-.47.49-1.18.83s-1.33.52-1.39.4.48-.49,1.19-.82S421.31,352.65,421.37,352.76Z" style="fill:#263238"></path><path d="M421.46,394.5a5.47,5.47,0,0,1-2.58-.63,5.29,5.29,0,0,1-2.25-1.44,13.13,13.13,0,0,1,2.43,1A12,12,0,0,1,421.46,394.5Z" style="fill:#263238"></path><path d="M419.88,403.33c0,.13-.77.39-1.77.59s-1.85.25-1.87.12.77-.39,1.78-.59A4,4,0,0,1,419.88,403.33Z" style="fill:#263238"></path><path d="M417.94,418.49a5.14,5.14,0,0,1-2-1.77,5.05,5.05,0,0,1-1.26-2.36,15,15,0,0,1,1.63,2.07A14.79,14.79,0,0,1,417.94,418.49Z" style="fill:#263238"></path><path d="M396.68,425.42c-.08-.1.46-.7,1.2-1.34s1.43-1.07,1.51-1-.45.7-1.2,1.34S396.77,425.52,396.68,425.42Z" style="fill:#263238"></path><path d="M390.57,392.34c-.86-2.69-2.48-5.82-5.3-5.86a4.71,4.71,0,0,0-4,2.66,9.83,9.83,0,0,0-1.07,4.86,126.94,126.94,0,0,0,6.07,35.23h10.32A122.69,122.69,0,0,0,390.57,392.34Z" style="fill:#455a64"></path><path d="M371.89,375.42a11.47,11.47,0,0,0-10.75-9.18c-4.56.8-6.33,5.29-6.87,9.9s.88,9.18,2.3,13.59l13.59,42.52,12.85-1.4C378.94,411.86,376.6,394.26,371.89,375.42Z" style="fill:#455a64"></path><path d="M385.27,386.48a12,12,0,0,0-.87,1.46,9.58,9.58,0,0,0-.49,4.57c.2,2,.43,4.32.76,6.91s.8,5.44,1.38,8.41c1.17,5.93,2.48,11.25,3.32,15.13.42,1.94.74,3.52.94,4.61.09.5.16.92.22,1.26a1.47,1.47,0,0,1,0,.44,1.7,1.7,0,0,1-.13-.42c-.09-.34-.19-.75-.31-1.24-.27-1.15-.64-2.7-1.09-4.57-.91-3.86-2.28-9.17-3.45-15.12-.58-3-1-5.83-1.35-8.44-.17-1.31-.28-2.55-.38-3.71s-.22-2.24-.28-3.24a9.32,9.32,0,0,1,.65-4.66A4.13,4.13,0,0,1,385.27,386.48Z" style="fill:#263238"></path><path d="M361.33,365.87a18,18,0,0,0-1.55,2.09,14.62,14.62,0,0,0-2,6.72A31.29,31.29,0,0,0,359.41,385c1.13,3.82,2.37,8,3.67,12.42,2.56,8.81,4.88,16.77,6.57,22.6l1.94,6.87.51,1.87a3,3,0,0,1,.14.66,4.44,4.44,0,0,1-.23-.63c-.15-.47-.35-1.08-.59-1.85l-2.09-6.82c-1.73-5.82-4.09-13.78-6.71-22.57-1.28-4.41-2.51-8.61-3.63-12.44a30.78,30.78,0,0,1-1.5-10.48,14.36,14.36,0,0,1,2.13-6.8A8.08,8.08,0,0,1,361.33,365.87Z" style="fill:#263238"></path><path d="M380.2,429.48a6.05,6.05,0,0,1-.29-.62c-.16-.41-.44-1-.73-1.81-.61-1.58-1.4-3.9-2.21-6.82s-1.62-6.44-2.39-10.36-1.56-8.25-2.42-12.78-1.89-8.8-3-12.62a71.52,71.52,0,0,0-3.75-9.9,52,52,0,0,0-3.46-6.24c-.44-.72-.85-1.24-1.09-1.62a3.19,3.19,0,0,1-.35-.58,3.76,3.76,0,0,1,.43.53c.27.36.69.86,1.16,1.57a46.16,46.16,0,0,1,3.61,6.19,67.12,67.12,0,0,1,3.86,9.92A123.69,123.69,0,0,1,372.62,397c.85,4.53,1.65,8.85,2.39,12.79s1.51,7.43,2.29,10.35,1.5,5.26,2.06,6.85c.26.8.5,1.41.64,1.83A3,3,0,0,1,380.2,429.48Z" style="fill:#263238"></path><path d="M356.79,387.61c0,.13-.66.41-1.56.62s-1.64.29-1.67.17.67-.41,1.56-.62S356.76,387.49,356.79,387.61Z" style="fill:#263238"></path><path d="M355.43,378.84a6,6,0,0,1-2.16.24,6.18,6.18,0,0,1-2.18-.07,4.47,4.47,0,0,1,2.16-.4A4.57,4.57,0,0,1,355.43,378.84Z" style="fill:#263238"></path><path d="M356.88,370.84c-.08.1-.78-.36-1.56-1s-1.34-1.27-1.25-1.37.78.36,1.56,1S357,370.74,356.88,370.84Z" style="fill:#263238"></path><path d="M360.8,363.42c.13,0,.09.66.07,1.41s0,1.38-.15,1.4-.34-.6-.32-1.41S360.68,363.39,360.8,363.42Z" style="fill:#263238"></path><path d="M368.81,366.92c.11.07-.21.7-.7,1.41s-1,1.22-1.09,1.14.21-.71.7-1.41S368.7,366.84,368.81,366.92Z" style="fill:#263238"></path><path d="M374,375.94c0,.13-.62.51-1.49.87s-1.61.54-1.66.42.61-.51,1.48-.86S374,375.82,374,375.94Z" style="fill:#263238"></path><path d="M377.16,385.23a6,6,0,0,1-4.26,1,8.43,8.43,0,0,1,2.12-.54A8.71,8.71,0,0,1,377.16,385.23Z" style="fill:#263238"></path><path d="M362.68,382.6c-.12,0,0-.69.2-1.44s.53-1.33.66-1.29,0,.68-.2,1.43S362.81,382.63,362.68,382.6Z" style="fill:#263238"></path><path d="M364.7,394.26a4.43,4.43,0,0,1,.58-1.93c.44-1,.9-1.8,1-1.75a4.46,4.46,0,0,1-.58,1.94C365.28,393.53,364.82,394.31,364.7,394.26Z" style="fill:#263238"></path><path d="M359.71,397.45a4.7,4.7,0,0,1-1.85-.41c-1-.3-1.78-.59-1.75-.72a3.65,3.65,0,0,1,1.9.27C359,396.91,359.76,397.33,359.71,397.45Z" style="fill:#263238"></path><path d="M362.59,407c.08.11-.47.63-1.23,1.17s-1.43.89-1.5.78.47-.63,1.23-1.17S362.51,406.85,362.59,407Z" style="fill:#263238"></path><path d="M364.9,416.44c0,.13-.65.4-1.52.61s-1.61.28-1.64.16.65-.4,1.52-.62S364.87,416.31,364.9,416.44Z" style="fill:#263238"></path><path d="M377.41,393.15c.07.11-.51.58-1.36.9s-1.59.35-1.61.23.64-.37,1.44-.68S377.35,393,377.41,393.15Z" style="fill:#263238"></path><path d="M379.2,407.9c-.05.12-.75-.09-1.55-.46s-1.4-.78-1.35-.9.75.09,1.55.47S379.26,407.79,379.2,407.9Z" style="fill:#263238"></path><path d="M382.36,418.46a5,5,0,0,1-2.05-.55c-1.08-.42-1.92-.87-1.87-1a5,5,0,0,1,2.05.55C381.57,417.89,382.41,418.34,382.36,418.46Z" style="fill:#263238"></path><path d="M365.4,426.73c-.06-.12.78-.69,1.75-1.46s1.73-1.45,1.83-1.35-.52.93-1.53,1.72A4.32,4.32,0,0,1,365.4,426.73Z" style="fill:#263238"></path><path d="M373.75,421.36c-.14,0-.32-.69-.64-1.52s-.66-1.47-.55-1.55.65.49,1,1.38S373.87,421.35,373.75,421.36Z" style="fill:#263238"></path><path d="M371.53,408.67c-.07.1-.61-.15-1.2-.58s-1-.85-.93-.95.62.15,1.21.57S371.61,408.56,371.53,408.67Z" style="fill:#263238"></path><path d="M391,388.77c.08.11-.45.63-1.17,1.16s-1.38.89-1.46.78.45-.62,1.17-1.16S390.91,388.67,391,388.77Z" style="fill:#263238"></path><path d="M393.92,396.79c0,.13-.81.3-1.83.19s-1.78-.46-1.74-.58.83,0,1.79.11S393.91,396.66,393.92,396.79Z" style="fill:#263238"></path><path d="M381.32,398.59c0,.12-.73.39-1.72.46s-1.77-.1-1.76-.23.78-.18,1.73-.24S381.29,398.46,381.32,398.59Z" style="fill:#263238"></path><path d="M382.4,391c0,.12-.78.14-1.62-.25s-1.33-1-1.24-1.07.67.3,1.44.65S382.42,390.87,382.4,391Z" style="fill:#263238"></path><path d="M395,405.39c-.07.11-.86-.26-1.76-.83s-1.57-1.11-1.51-1.22.86.26,1.76.82S395.07,405.28,395,405.39Z" style="fill:#263238"></path><rect x="358.52" y="427.88" width="67.24" height="11.92" style="fill:#8A08B5"></rect><polygon points="363.54 437.44 371.71 473.05 411.79 473.05 420.73 437.44 363.54 437.44" style="fill:#8A08B5"></polygon><path d="M425.71,439.82c0,.13-15.16.23-33.87.23S358,440,358,439.82s15.16-.24,33.87-.24S425.71,439.69,425.71,439.82Z" style="fill:#263238"></path><path d="M388.32,398.85c-.11.07-.57-.47-1-1.2s-.74-1.38-.63-1.45.57.47,1,1.2S388.43,398.78,388.32,398.85Z" style="fill:#263238"></path><path d="M388.35,408.43c-.13,0,0-.85.35-1.81s.68-1.7.8-1.66a3.73,3.73,0,0,1-.35,1.81C388.83,407.73,388.47,408.48,388.35,408.43Z" style="fill:#263238"></path><path d="M391.63,418.5c-.12.06-.62-.75-1.12-1.8a4.92,4.92,0,0,1-.7-2c.12-.06.62.75,1.12,1.8A4.75,4.75,0,0,1,391.63,418.5Z" style="fill:#263238"></path><path d="M384.53,426.6c-.1-.09.3-.71.89-1.4s1.16-1.16,1.26-1.08-.31.71-.9,1.39S384.63,426.68,384.53,426.6Z" style="fill:#263238"></path><path d="M383,411.89c0,.13-.67.13-1.45,0s-1.38-.35-1.36-.48.67-.12,1.44,0S383.06,411.77,383,411.89Z" style="fill:#263238"></path></g><g id="freepik--Screen--inject-34"><path d="M351.93,34.64l-24.63,0a6.12,6.12,0,0,0-6,6.25v4.47a6.12,6.12,0,0,1-6,6.25l-48,0a6.12,6.12,0,0,1-6-6.25V40.84a6.12,6.12,0,0,0-6-6.26H246.7l-21.55,0a19.38,19.38,0,0,0-19.39,19.38l-.07,279.74a19.38,19.38,0,0,0,19.37,19.38l126.79.08a19.39,19.39,0,0,0,19.39-19.38L371.3,54A19.38,19.38,0,0,0,351.93,34.64Z" style="fill:#fff"></path><path d="M351.93,34.64l.62,0a15.57,15.57,0,0,1,1.85.13,18.78,18.78,0,0,1,6.88,2.2,21.06,21.06,0,0,1,4.3,3.2,20.08,20.08,0,0,1,3.77,5.23,19.35,19.35,0,0,1,2,7.25c.1,1.35.06,2.73.07,4.16s0,2.9,0,4.42c0,24.25,0,59.33.06,102.68s0,95,0,152.28v16.27A24.49,24.49,0,0,1,371,338a20.73,20.73,0,0,1-1.95,5.21A19.61,19.61,0,0,1,355.85,353a27.77,27.77,0,0,1-5.67.41H309.91l-47.56,0H225.73a20.84,20.84,0,0,1-6.17-.8,20.16,20.16,0,0,1-5.64-2.68,19.78,19.78,0,0,1-7.43-9.83,20.27,20.27,0,0,1-1.05-6.12V303.42q0-24.17,0-47.58c0-31.2,0-61.28,0-90s0-55.89,0-81.38q0-9.57,0-18.79,0-4.61,0-9.14c0-1.5,0-3,.1-4.52.09-.74.2-1.49.34-2.23s.33-1.46.61-2.16a20,20,0,0,1,4.62-7.48,19.5,19.5,0,0,1,7.26-4.63,15.08,15.08,0,0,1,2.05-.62,16.37,16.37,0,0,1,2.09-.39,31.26,31.26,0,0,1,4.2-.17h27.93a8.38,8.38,0,0,1,1.93.15,6,6,0,0,1,1.79.74A6.29,6.29,0,0,1,261,38.15a8.08,8.08,0,0,1,.56,3.68c0,1.22,0,2.43,0,3.63a6.28,6.28,0,0,0,1,3.3,5.71,5.71,0,0,0,4.22,2.61c.56.05,1.14,0,1.72,0h13.35l24,0h8a14.94,14.94,0,0,0,2.52-.09,5.81,5.81,0,0,0,3.87-2.67,6.13,6.13,0,0,0,.85-2.15,11.49,11.49,0,0,0,.12-2.27c0-.76,0-1.51,0-2.25a14.4,14.4,0,0,1,.09-2.18,6.24,6.24,0,0,1,1.91-3.67,5.93,5.93,0,0,1,3.53-1.62c1.27-.06,2.47,0,3.64,0l11.81,0,7.26,0,2.47,0s-.84,0-2.47,0l-7.26,0H330.39c-1.16,0-2.39,0-3.62,0a5.71,5.71,0,0,0-3.42,1.58,6.07,6.07,0,0,0-1.85,3.57,12.73,12.73,0,0,0-.08,2.15v2.25a12.06,12.06,0,0,1-.12,2.31,6.58,6.58,0,0,1-.88,2.23,6.06,6.06,0,0,1-4,2.77,14.62,14.62,0,0,1-2.56.1H268.47c-.58,0-1.15,0-1.75,0a6.89,6.89,0,0,1-1.73-.45,6.31,6.31,0,0,1-2.73-2.31,6.65,6.65,0,0,1-1.07-3.46c0-1.2,0-2.42,0-3.64a7.71,7.71,0,0,0-.54-3.54,5.92,5.92,0,0,0-2.35-2.7,5.68,5.68,0,0,0-1.69-.69,8,8,0,0,0-1.85-.15H226.82a31.94,31.94,0,0,0-4.15.18,18,18,0,0,0-2,.38,14.11,14.11,0,0,0-2,.61A19.09,19.09,0,0,0,207,47.8a21.4,21.4,0,0,0-.59,2.12c-.14.72-.24,1.45-.34,2.18-.1,1.47-.1,3-.09,4.48V84.51c0,25.49,0,52.72,0,81.38v90q0,23.39,0,47.58v30.46a19.48,19.48,0,0,0,1,6,19.21,19.21,0,0,0,7.23,9.57,20,20,0,0,0,5.49,2.62,20.35,20.35,0,0,0,6,.77H238l24.33,0,47.56,0h40.27a27.14,27.14,0,0,0,5.57-.4,20.76,20.76,0,0,0,5.18-1.89,21.2,21.2,0,0,0,4.41-3.27,21.43,21.43,0,0,0,3.29-4.36,20.44,20.44,0,0,0,1.9-5.09,23.8,23.8,0,0,0,.46-5.4V316.21c0-57.31.06-108.93.09-152.28s.08-78.43.1-102.68c0-1.52,0-3,0-4.42s0-2.82-.06-4.15a19.08,19.08,0,0,0-1.93-7.19,20.25,20.25,0,0,0-3.72-5.21,21.18,21.18,0,0,0-4.26-3.19,19.06,19.06,0,0,0-6.84-2.25c-.8-.14-1.43-.11-1.84-.16Z" style="fill:#263238"></path><path d="M355.88,63.05c0,.09-3.2.18-7.15.21s-7.16,0-7.16-.09,3.2-.18,7.16-.21S355.88,63,355.88,63.05Z" style="fill:#263238"></path><path d="M355.91,66.71c0,.09-3.2.18-7.15.21s-7.16,0-7.16-.09,3.2-.18,7.16-.21S355.91,66.63,355.91,66.71Z" style="fill:#263238"></path><path d="M355.94,70.37c0,.09-3.2.18-7.15.22s-7.16,0-7.16-.1,3.2-.18,7.16-.21S355.94,70.29,355.94,70.37Z" style="fill:#263238"></path><path d="M221.07,70a.39.39,0,0,1-.25-.1l-3.08-3.06a.31.31,0,0,1-.1-.24.36.36,0,0,1,.1-.25l3.09-3a.34.34,0,0,1,.49,0,.35.35,0,0,1,0,.49l-2.83,2.74,2.83,2.8a.34.34,0,0,1,0,.49A.32.32,0,0,1,221.07,70Z" style="fill:#263238"></path><path d="M271.54,71.63l-1.43-2-.42,0h-1.64v2h-.94V65h2.58c1.73,0,2.77.87,2.77,2.31A2.09,2.09,0,0,1,271,69.4l1.57,2.23Zm0-4.32c0-1-.63-1.49-1.85-1.49h-1.61v3h1.61C270.88,68.81,271.51,68.26,271.51,67.31Z" style="fill:#263238"></path><path d="M278.38,69.42h-4.07a1.69,1.69,0,0,0,1.81,1.47,1.87,1.87,0,0,0,1.45-.61l.51.59a2.73,2.73,0,0,1-4.68-1.75,2.46,2.46,0,0,1,2.52-2.56,2.42,2.42,0,0,1,2.48,2.59A2.65,2.65,0,0,1,278.38,69.42Zm-4.07-.65h3.22a1.62,1.62,0,0,0-3.22,0Z" style="fill:#263238"></path><path d="M284.4,66.61v6.86h-.91v-2.6a2.17,2.17,0,0,1-1.76.82,2.57,2.57,0,0,1,0-5.13,2.12,2.12,0,0,1,1.79.84v-.79Zm-.9,2.51a1.7,1.7,0,1,0-1.69,1.77A1.66,1.66,0,0,0,283.5,69.12Z" style="fill:#263238"></path><path d="M290.8,66.61v5h-.86v-.76a2.06,2.06,0,0,1-1.71.82,2,2,0,0,1-2.16-2.19V66.61H287v2.78c0,1,.49,1.48,1.36,1.48a1.48,1.48,0,0,0,1.55-1.67V66.61Z" style="fill:#263238"></path><path d="M297.05,69.42H293a1.7,1.7,0,0,0,1.82,1.47,1.87,1.87,0,0,0,1.45-.61l.5.59a2.73,2.73,0,0,1-4.68-1.75,2.46,2.46,0,0,1,2.52-2.56,2.42,2.42,0,0,1,2.48,2.59A2.65,2.65,0,0,1,297.05,69.42ZM293,68.77h3.22a1.62,1.62,0,0,0-3.22,0Z" style="fill:#263238"></path><path d="M297.7,71.1l.37-.72a3.27,3.27,0,0,0,1.77.52c.84,0,1.19-.26,1.19-.68,0-1.13-3.17-.15-3.17-2.15,0-.9.8-1.51,2.09-1.51a3.7,3.7,0,0,1,1.83.45l-.39.72a2.64,2.64,0,0,0-1.45-.39c-.79,0-1.18.29-1.18.69,0,1.18,3.18.22,3.18,2.17,0,.91-.83,1.49-2.17,1.49A3.61,3.61,0,0,1,297.7,71.1Z" style="fill:#263238"></path><path d="M305.9,71.34a1.74,1.74,0,0,1-1.1.35,1.44,1.44,0,0,1-1.59-1.58V67.36h-.85v-.75h.85v-1.1h.91v1.1h1.44v.75h-1.44v2.72a.74.74,0,0,0,.79.84,1.17,1.17,0,0,0,.71-.24Z" style="fill:#263238"></path><path d="M306.36,71.1l.38-.72a3.27,3.27,0,0,0,1.77.52c.84,0,1.19-.26,1.19-.68,0-1.13-3.17-.15-3.17-2.15,0-.9.8-1.51,2.09-1.51a3.73,3.73,0,0,1,1.83.45l-.39.72a2.66,2.66,0,0,0-1.45-.39c-.8,0-1.18.29-1.18.69,0,1.18,3.18.22,3.18,2.17,0,.91-.83,1.49-2.17,1.49A3.67,3.67,0,0,1,306.36,71.1Z" style="fill:#263238"></path><rect x="216.62" y="97.15" width="143.74" height="240.42" rx="15.84" style="fill:#f5f5f5"></rect><path d="M333.13,240.44c0,.15-20,.27-44.63.27s-44.64-.12-44.64-.27,20-.26,44.64-.26S333.13,240.3,333.13,240.44Z" style="fill:#263238"></path><path d="M343.42,248.15c0,.15-24.6.26-54.92.26s-54.92-.11-54.92-.26,24.58-.26,54.92-.26S343.42,248,343.42,248.15Z" style="fill:#263238"></path><rect x="236.27" y="261.63" width="104.44" height="24.73" rx="3" style="fill:#8A08B5"></rect><path d="M276.85,275.74h-3.52l-.73,1.65h-1l3-6.63h.94l3,6.63h-1Zm-.33-.76-1.43-3.25L273.66,275Z" style="fill:#fff"></path><path d="M278.92,274.88a2.51,2.51,0,0,1,2.65-2.56,2.25,2.25,0,0,1,2.05,1.07l-.69.45a1.59,1.59,0,0,0-1.37-.72,1.77,1.77,0,0,0,0,3.53,1.57,1.57,0,0,0,1.37-.72l.69.44a2.26,2.26,0,0,1-2.05,1.08A2.52,2.52,0,0,1,278.92,274.88Z" style="fill:#fff"></path><path d="M284.25,274.88a2.51,2.51,0,0,1,2.65-2.56,2.24,2.24,0,0,1,2.05,1.07l-.69.45a1.57,1.57,0,0,0-1.36-.72,1.77,1.77,0,0,0,0,3.53,1.55,1.55,0,0,0,1.36-.72l.69.44a2.25,2.25,0,0,1-2.05,1.08A2.52,2.52,0,0,1,284.25,274.88Z" style="fill:#fff"></path><path d="M294.57,275.19h-4.08a1.7,1.7,0,0,0,1.82,1.46,1.86,1.86,0,0,0,1.45-.6l.51.59a2.74,2.74,0,0,1-4.68-1.76,2.46,2.46,0,0,1,2.52-2.56,2.42,2.42,0,0,1,2.48,2.59C294.59,275,294.58,275.1,294.57,275.19Zm-4.08-.66h3.23a1.63,1.63,0,0,0-3.23,0Z" style="fill:#fff"></path><path d="M301.05,274.88a2.44,2.44,0,0,1-2.54,2.57,2.13,2.13,0,0,1-1.75-.81v2.59h-.91v-6.86h.87v.8a2.14,2.14,0,0,1,1.79-.85A2.44,2.44,0,0,1,301.05,274.88Zm-.92,0a1.69,1.69,0,1,0-1.69,1.77A1.66,1.66,0,0,0,300.13,274.88Z" style="fill:#fff"></path><path d="M305.13,277.1a1.69,1.69,0,0,1-1.1.35,1.43,1.43,0,0,1-1.59-1.57v-2.76h-.85v-.75h.85v-1.1h.91v1.1h1.44v.75h-1.44v2.72a.74.74,0,0,0,.79.84,1.16,1.16,0,0,0,.71-.23Z" style="fill:#fff"></path><path d="M337.72,321s.23,0,.64-.1a3,3,0,0,0,1.59-1,2.91,2.91,0,0,0,.62-1.23,7.52,7.52,0,0,0,.07-1.68c0-1.24,0-2.66,0-4.26,0-3.21,0-7.12-.05-11.67-.06-1.13.21-2.38-.46-3.35a2.82,2.82,0,0,0-1.33-1.1,4.52,4.52,0,0,0-1.82-.2l-8.17,0-89.51.07a2.77,2.77,0,0,0-2.43,1.47,2.88,2.88,0,0,0-.32,1.45v17.52a12.3,12.3,0,0,0,0,1.51,2.8,2.8,0,0,0,.59,1.27,2.89,2.89,0,0,0,2.55,1H260.4l40.24.06,27.13.08,7.38.05,1.92,0c.43,0,.65,0,.65,0l-.65,0-1.92,0-7.38,0-27.13.09-40.24,0H239.71a4.08,4.08,0,0,1-1.6-.22,3.29,3.29,0,0,1-1.34-1,3.33,3.33,0,0,1-.7-1.51,10.9,10.9,0,0,1,0-1.6v-9.47c0-2.12,0-4.27,0-6.43v-1.62a3.4,3.4,0,0,1,.38-1.69,3.28,3.28,0,0,1,2.89-1.75l89.51.08,8.17,0a4.77,4.77,0,0,1,1.94.23,3.18,3.18,0,0,1,2,3c0,.59,0,1.17,0,1.74,0,4.55,0,8.46,0,11.67q0,2.4,0,4.26a7.26,7.26,0,0,1-.1,1.71A3.06,3.06,0,0,1,340,320a3,3,0,0,1-1.66,1A2,2,0,0,1,337.72,321Z" style="fill:#8A08B5"></path><path d="M271.23,304.67H274a3.32,3.32,0,1,1,0,6.63h-2.79Zm2.73,5.81a2.5,2.5,0,1,0,0-5h-1.79v5Z" style="fill:#8A08B5"></path><path d="M283.44,309.09h-4.08a1.71,1.71,0,0,0,1.82,1.47,1.87,1.87,0,0,0,1.45-.61l.51.59a2.55,2.55,0,0,1-2,.82,2.51,2.51,0,0,1-2.7-2.57,2.47,2.47,0,0,1,2.53-2.56,2.42,2.42,0,0,1,2.48,2.59A2.65,2.65,0,0,1,283.44,309.09Zm-4.08-.65h3.23a1.63,1.63,0,0,0-3.23,0Z" style="fill:#8A08B5"></path><path d="M284.25,308.79a2.51,2.51,0,0,1,2.65-2.56A2.24,2.24,0,0,1,289,307.3l-.69.45a1.55,1.55,0,0,0-1.36-.72,1.77,1.77,0,0,0,0,3.53,1.57,1.57,0,0,0,1.36-.72l.69.44a2.25,2.25,0,0,1-2.05,1.08A2.52,2.52,0,0,1,284.25,308.79Z" style="fill:#8A08B5"></path><path d="M290.06,304.27H291v7h-.91Z" style="fill:#8A08B5"></path><path d="M292.54,304.72a.6.6,0,0,1,.62-.59.59.59,0,1,1,0,1.18A.59.59,0,0,1,292.54,304.72Zm.16,1.56h.91v5h-.91Z" style="fill:#8A08B5"></path><path d="M300.11,308.41v2.89h-.91v-2.79c0-1-.49-1.46-1.35-1.46a1.48,1.48,0,0,0-1.59,1.66v2.59h-.91v-5h.87V307a2.13,2.13,0,0,1,1.81-.81A1.94,1.94,0,0,1,300.11,308.41Z" style="fill:#8A08B5"></path><path d="M306.35,309.09h-4.08a1.7,1.7,0,0,0,1.82,1.47,1.87,1.87,0,0,0,1.45-.61l.5.59a2.73,2.73,0,0,1-4.68-1.75,2.46,2.46,0,0,1,2.52-2.56,2.42,2.42,0,0,1,2.48,2.59A2.53,2.53,0,0,1,306.35,309.09Zm-4.08-.65h3.22a1.62,1.62,0,0,0-3.22,0Z" style="fill:#8A08B5"></path></g><g id="freepik--Floor--inject-34"><path d="M450.07,473.75c0,.14-89.58.26-200.06.26s-200.08-.12-200.08-.26,89.56-.26,200.08-.26S450.07,473.61,450.07,473.75Z" style="fill:#263238"></path></g><g id="freepik--speech-bubble--inject-34"><path d="M134,150.23l-6.81-12a32.13,32.13,0,1,0-7.7,8.57h0Z" style="fill:#fff"></path><path d="M134,150.23l-14.55-3.3-.2,0,.12-.16v0l.19.18a32,32,0,0,1-15.43,6.52,29.33,29.33,0,0,1-5.09.26c-.88,0-1.77-.07-2.67-.15l-2.72-.4a32.51,32.51,0,0,1-20.11-12.91,32,32,0,0,1-5.44-12.43,32.69,32.69,0,0,1,.38-14.31,31.77,31.77,0,0,1,6.9-13.24,32.14,32.14,0,0,1,12.4-8.85,32.83,32.83,0,0,1,14.42-2.22,31.72,31.72,0,0,1,13.24,3.92,32.6,32.6,0,0,1,15.27,18.8,34.47,34.47,0,0,1,1.39,10.46,32,32,0,0,1-4.81,15.95v-.13c4.24,7.63,6.28,11.3,6.7,12.07l-6.92-11.95,0-.06,0-.07a32,32,0,0,0,4.66-15.82A34.27,34.27,0,0,0,130.3,112a32.24,32.24,0,0,0-15.11-18.5,31.17,31.17,0,0,0-13-3.84A32.41,32.41,0,0,0,88,91.86a31.87,31.87,0,0,0-12.2,8.71,31.32,31.32,0,0,0-6.79,13,32.46,32.46,0,0,0-.39,14.09,31.76,31.76,0,0,0,5.34,12.26,32.13,32.13,0,0,0,19.8,12.77l2.68.42c.89.07,1.77.1,2.64.15a28.68,28.68,0,0,0,5-.23,32.13,32.13,0,0,0,15.32-6.36l.8-.62-.62.8h0l-.07-.2Z" style="fill:#263238"></path><polygon points="83.69 123.94 88.18 119.45 96.85 127.15 113.87 110.78 118.04 115.27 96.21 135.82 83.69 123.94" style="fill:#8A08B5"></polygon></g></svg>
