<?xml version="1.0" encoding="UTF-8" standalone="no"?>
<svg
   viewBox="0 0 500 500"
   version="1.1"
   id="svg223"
   sodipodi:docname="search.svg"
   inkscape:version="1.2.2 (732a01da63, 2022-12-09)"
   xmlns:inkscape="http://www.inkscape.org/namespaces/inkscape"
   xmlns:sodipodi="http://sodipodi.sourceforge.net/DTD/sodipodi-0.dtd"
   xmlns="http://www.w3.org/2000/svg"
   xmlns:svg="http://www.w3.org/2000/svg">
  <defs
     id="defs227" />
  <sodipodi:namedview
     id="namedview225"
     pagecolor="#ffffff"
     bordercolor="#000000"
     borderopacity="0.25"
     inkscape:showpageshadow="2"
     inkscape:pageopacity="0.0"
     inkscape:pagecheckerboard="0"
     inkscape:deskcolor="#d1d1d1"
     showgrid="false"
     inkscape:zoom="1.05"
     inkscape:cx="146.19048"
     inkscape:cy="401.90476"
     inkscape:window-width="1366"
     inkscape:window-height="705"
     inkscape:window-x="-8"
     inkscape:window-y="-8"
     inkscape:window-maximized="1"
     inkscape:current-layer="svg223" />
  <g
     id="freepik--Floor--inject-68">
    <path
       id="freepik--floor--inject-68"
       d="M98.35,278.6C14.59,327,14.6,405.36,98.35,453.71s219.55,48.36,303.3,0,83.75-126.75,0-175.11S182.1,230.25,98.35,278.6Z"
       style="fill:#f5f5f5" />
  </g>
  <g
     id="freepik--Plants--inject-68">
    <g
       id="freepik--plants--inject-68">
      <path
         d="M115.06,394l8.22-4.75s4.89-20.32,2.94-38.6c-2.74-25.71-19.66-35.38-26.1-33.16s-8.29,9.7,2.35,25C108.75,351.5,116.47,370.31,115.06,394Z"
         style="fill:#8B08B7"
         id="path4" />
      <g
         style="opacity:0.65"
         id="g8">
        <path
           d="M115.06,394l8.22-4.75s4.89-20.32,2.94-38.6c-2.74-25.71-19.66-35.38-26.1-33.16s-8.29,9.7,2.35,25C108.75,351.5,116.47,370.31,115.06,394Z"
           style="fill:#fff"
           id="path6" />
      </g>
      <path
         d="M118.46,384h-.07a.58.58,0,0,1-.46-.67c4.51-23.71-3.78-50.35-14-61.44a.56.56,0,0,1,0-.8.57.57,0,0,1,.8,0c10.45,11.29,18.89,38.37,14.32,62.42A.58.58,0,0,1,118.46,384Z"
         style="fill:#fff"
         id="path10" />
      <path
         d="M95.93,406c-1.23.62-6-2.26-7-2.94a11.41,11.41,0,0,1-3.57-4.54,10.72,10.72,0,0,1-.62-6.45,24.94,24.94,0,0,1,1-3.37c.37-1.09.75-2.17,1.12-3.26a8.28,8.28,0,0,0,.65-3.31c-.17-2.28-2.1-4-3.86-5.42-1.94-1.61-3.94-3.72-3.79-6.44a9.56,9.56,0,0,1,2.69-5.58c1.38-1.58,3-3,4.26-4.64a6.71,6.71,0,0,0,1.59-4.16,7,7,0,0,0-.79-2.69A37.93,37.93,0,0,1,85,347.75c-.56-1.94-.35-4.3,1.21-5.59,1.27-1.06,3.09-1.12,4.74-.93A10.69,10.69,0,0,1,95.24,343c4.2,2.62,6.41,7.86,10.9,9.94a46.87,46.87,0,0,0,5.49,1.64,6.88,6.88,0,0,1,4.42,3.36c1.51,3.45-1.82,7.44-.82,11.07.89,3.21,3.9,4.58,5.48,7.51a6.81,6.81,0,0,1,.6,4.18,19.81,19.81,0,0,1-2.1,6.9,63.7,63.7,0,0,1-4.15,6.38S96.12,405.9,95.93,406Z"
         style="fill:#8B08B7"
         id="path12" />
      <g
         style="opacity:0.30000000000000004"
         id="g16">
        <path
           d="M95.93,406c-1.23.62-6-2.26-7-2.94a11.41,11.41,0,0,1-3.57-4.54,10.72,10.72,0,0,1-.62-6.45,24.94,24.94,0,0,1,1-3.37c.37-1.09.75-2.17,1.12-3.26a8.28,8.28,0,0,0,.65-3.31c-.17-2.28-2.1-4-3.86-5.42-1.94-1.61-3.94-3.72-3.79-6.44a9.56,9.56,0,0,1,2.69-5.58c1.38-1.58,3-3,4.26-4.64a6.71,6.71,0,0,0,1.59-4.16,7,7,0,0,0-.79-2.69A37.93,37.93,0,0,1,85,347.75c-.56-1.94-.35-4.3,1.21-5.59,1.27-1.06,3.09-1.12,4.74-.93A10.69,10.69,0,0,1,95.24,343c4.2,2.62,6.41,7.86,10.9,9.94a46.87,46.87,0,0,0,5.49,1.64,6.88,6.88,0,0,1,4.42,3.36c1.51,3.45-1.82,7.44-.82,11.07.89,3.21,3.9,4.58,5.48,7.51a6.81,6.81,0,0,1,.6,4.18,19.81,19.81,0,0,1-2.1,6.9,63.7,63.7,0,0,1-4.15,6.38S96.12,405.9,95.93,406Z"
           style="fill:#fff"
           id="path14" />
      </g>
      <path
         d="M106.27,399.71h0a.55.55,0,0,1-.5-.59c2-21.32-6.91-45.42-13.88-52.65a.54.54,0,1,1,.77-.75c7.12,7.37,16.18,31.87,14.19,53.5A.55.55,0,0,1,106.27,399.71Z"
         style="fill:#fff"
         id="path18" />
      <path
         d="M104.16,373.41a.41.41,0,0,1-.16,0,72.45,72.45,0,0,0-15.38-3.28.54.54,0,0,1-.49-.59.52.52,0,0,1,.59-.48,72.79,72.79,0,0,1,15.65,3.34.54.54,0,0,1,.32.69A.52.52,0,0,1,104.16,373.41Z"
         style="fill:#fff"
         id="path20" />
    </g>
    <g
       id="g35">
      <path
         d="M371.27,391.93l12.52,7.23c-.16-4.47-.55-11.12.06-15.59,3.79-27.38,14.45-36.4,19.52-49.73,5.34-14-1.17-18.55-9.63-16-7.55,2.25-18.46,13.41-21.9,33.84C369.55,365.25,370,380,371.27,391.93Z"
         style="fill:#8B08B7"
         id="path23" />
      <path
         d="M371.27,391.93l12.52,7.23c-.16-4.47-.55-11.12.06-15.59,3.79-27.38,14.45-36.4,19.52-49.73,5.34-14-1.17-18.55-9.63-16-7.55,2.25-18.46,13.41-21.9,33.84C369.55,365.25,370,380,371.27,391.93Z"
         style="fill:#fff;opacity:0.65"
         id="path25" />
      <path
         d="M377.91,395.76l1.25.73c-4.48-31.92,6.43-59.6,17.2-71a.55.55,0,0,0,0-.78.57.57,0,0,0-.78,0C384.8,336.14,373.89,364,377.91,395.76Z"
         style="fill:#fff"
         id="path27" />
      <path
         d="M380.27,397.13l7.05,4.07h0c3.74-11,7.59-15.45,12.37-22.71,4.35-6.6,9.42-10.69,12.11-15.34,2.38-4.11,4.17-9.27.63-12.39-5.64-5-13,.28-18,6C390,361.65,381.24,374.74,380.27,397.13Z"
         style="fill:#8B08B7"
         id="path29" />
      <path
         d="M380.27,397.13l7.05,4.07h0c3.74-11,7.59-15.45,12.37-22.71,4.35-6.6,9.42-10.69,12.11-15.34,2.38-4.11,4.17-9.27.63-12.39-5.64-5-13,.28-18,6C390,361.65,381.24,374.74,380.27,397.13Z"
         style="fill:#fff;opacity:0.30000000000000004"
         id="path31" />
      <path
         d="M383.17,398.8l1,.59c3-17.45,14.81-37.64,22.18-42.4a.56.56,0,0,0,.16-.78.55.55,0,0,0-.77-.17C398.13,361,386.31,381.08,383.17,398.8Z"
         style="fill:#fff"
         id="path33" />
    </g>
  </g>
  <g
     id="freepik--Shadows--inject-68">
    <ellipse
       id="freepik--Shadow--inject-68"
       cx="156.73"
       cy="414.53"
       rx="62.97"
       ry="36.35"
       style="fill:#e0e0e0" />
    <ellipse
       id="freepik--shadow--inject-68"
       cx="335.39"
       cy="416.09"
       rx="60.27"
       ry="34.8"
       style="fill:#e0e0e0" />
  </g>
  <g
     id="freepik--Clouds--inject-68">
    <path
       id="freepik--Cloud--inject-68"
       d="M173.86,116.42a8.48,8.48,0,0,0-2.8-.52c-.91-.07-1.2-.25-1.38-.45a6.69,6.69,0,0,0-8-2.37,5.12,5.12,0,0,0-6.06-3.43c.1-2.83-3.51-5.87-6.76-6.56s-5.82-.38-7.59,1.67c-1.9-3.71-9.35-4.76-13.38-2.8-2.32,1.13-4.28,2.29-5.24,4.41a8.81,8.81,0,0,0-.88,4.23,7.42,7.42,0,0,0-6.81-.95c-2.26.87-2.43,2.58-2.55,4.31a7.76,7.76,0,0,0-4.11-.07c-1.43.42-2.25,1.54-2.05,2.44-1.13-.06-3.82.85-3.51,2s3.42,1.2,4.56,1.16a22.62,22.62,0,0,0,3.21-.5,4.87,4.87,0,0,0,1.67.31c2,0,2.78-.85,3.09-1.57,1,2,4.34,3.53,6.74,4.15,4.52,1.15,10.91.45,13.69-2.93a5.08,5.08,0,0,0,1.34,1.64,7.78,7.78,0,0,0,4.18,1.69c1.86.18,6.83.41,8.23-2.53,1,2,5.43,2.85,8.8,2.37A14,14,0,0,0,162,121a22.63,22.63,0,0,0,2.17-1.3,1.82,1.82,0,0,1,1.85-.13,11,11,0,0,0,7.35,0C175.24,118.8,175.63,117.22,173.86,116.42Z"
       style="fill:#f0f0f0" />
    <path
       id="freepik--cloud--inject-68"
       d="M104.4,166a8,8,0,0,0-2.65-.49c-.86-.07-1.13-.24-1.3-.42a6.33,6.33,0,0,0-7.6-2.25,4.87,4.87,0,0,0-5.74-3.24c.1-2.68-3.32-5.55-6.38-6.2S75.22,153,73.54,155c-1.79-3.51-8.84-4.5-12.65-2.64-2.19,1.07-4,2.16-5,4.17a8.37,8.37,0,0,0-.82,4,7,7,0,0,0-6.44-.89c-2.14.82-2.3,2.44-2.41,4.08a7.4,7.4,0,0,0-3.89-.07c-1.35.4-2.13,1.45-1.94,2.31-1.07-.06-3.61.8-3.32,1.93s3.23,1.13,4.32,1.09a19.18,19.18,0,0,0,3-.48,4.38,4.38,0,0,0,1.57.3c1.85,0,2.63-.8,2.93-1.49.9,1.9,4.11,3.35,6.38,3.93,4.27,1.09,10.31.42,12.94-2.77A4.55,4.55,0,0,0,69.55,170a7.36,7.36,0,0,0,4,1.6c1.75.17,6.46.39,7.78-2.4.94,1.86,5.13,2.7,8.32,2.25a13,13,0,0,0,3.57-1.08,21.37,21.37,0,0,0,2-1.23A1.73,1.73,0,0,1,97,169a10.42,10.42,0,0,0,7,0C105.7,168.23,106.07,166.74,104.4,166Z"
       style="fill:#f5f5f5" />
    <path
       id="path43"
       d="M429.63,61.57a7.79,7.79,0,0,0-2.65-.49c-.86-.07-1.13-.24-1.3-.43a6.32,6.32,0,0,0-7.6-2.24,4.87,4.87,0,0,0-5.74-3.25c.1-2.67-3.32-5.54-6.38-6.19s-5.51-.37-7.19,1.57C397,47,389.93,46,386.12,47.9c-2.19,1.06-4.05,2.16-5,4.17a8.34,8.34,0,0,0-.82,4,7,7,0,0,0-6.44-.9c-2.14.83-2.31,2.44-2.41,4.08a7.51,7.51,0,0,0-3.89-.07c-1.35.4-2.13,1.46-1.94,2.31-1.07,0-3.61.81-3.32,1.93.33,1.27,3.23,1.14,4.31,1.1a20.33,20.33,0,0,0,3-.48,4.61,4.61,0,0,0,1.57.3c1.85,0,2.63-.8,2.93-1.49.9,1.9,4.11,3.34,6.38,3.92,4.27,1.1,10.31.43,12.94-2.76a4.65,4.65,0,0,0,1.27,1.55,7.36,7.36,0,0,0,4,1.6c1.75.16,6.46.39,7.78-2.4.94,1.85,5.13,2.7,8.32,2.25a13.32,13.32,0,0,0,3.57-1.08,23.64,23.64,0,0,0,2.05-1.23,1.69,1.69,0,0,1,1.74-.12,10.39,10.39,0,0,0,7,0C430.93,63.82,431.3,62.32,429.63,61.57Z"
       style="fill:#f5f5f5" />
  </g>
  <g
     id="freepik--symbols-2--inject-68">
    <g
       id="freepik--question-mark--inject-68">
      <path
         d="M444.41,283.11a6.22,6.22,0,0,1-2.1-.38,6.29,6.29,0,0,1-2-1.23,5.76,5.76,0,0,1-1.35-1.82,5.86,5.86,0,0,1-.52-2.18,6.21,6.21,0,0,1,.38-2.34h0a6.16,6.16,0,0,1,1.22-2,5.68,5.68,0,0,1,1.81-1.34,6,6,0,0,1,2.2-.53,6,6,0,0,1,4.4,1.61,6.31,6.31,0,0,1,1.33,1.82,5.9,5.9,0,0,1,.19,4.55,5.63,5.63,0,0,1-1.25,2,5.9,5.9,0,0,1-1.84,1.31,6.11,6.11,0,0,1-2.18.51Zm-4.55-7.55a5,5,0,0,0-.31,1.89,4.49,4.49,0,0,0,1.5,3.2,4.91,4.91,0,0,0,5.32.9,4.64,4.64,0,0,0,1.48-1.06,4.51,4.51,0,0,0,1-1.63,4.66,4.66,0,0,0,.29-1.88,4.53,4.53,0,0,0-.44-1.77,4.86,4.86,0,0,0-1.08-1.48,4.77,4.77,0,0,0-1.63-1,4.94,4.94,0,0,0-3.69.13,4.66,4.66,0,0,0-1.45,1.08,5,5,0,0,0-1,1.63Zm11.05-5.27-6.56-2.41,1.55-6.13a5.27,5.27,0,0,1,1.63-2.87,9.43,9.43,0,0,1,2.69-1.63,25.63,25.63,0,0,1,3.17-1,23.27,23.27,0,0,0,3.15-1.05,10.51,10.51,0,0,0,2.69-1.63,6.1,6.1,0,0,0,1.78-2.67,4.63,4.63,0,0,0,.31-2.06,4.55,4.55,0,0,0-.58-1.86,5.37,5.37,0,0,0-1.38-1.58,7.83,7.83,0,0,0-2.12-1.16,10.85,10.85,0,0,0-3.18-.72,11.75,11.75,0,0,0-2.45.1c-.72.12-1.34.24-1.85.36a2.8,2.8,0,0,1-1.61,0,2.52,2.52,0,0,1-1.74-2.1l-1-4.65.46-.18a26.35,26.35,0,0,1,3.25-1,20.72,20.72,0,0,1,3.58-.51,19.94,19.94,0,0,1,3.89.21,20.82,20.82,0,0,1,4.21,1.1,18,18,0,0,1,5.14,2.82,13.31,13.31,0,0,1,3.38,3.94,11.49,11.49,0,0,1,1.38,4.78,12.78,12.78,0,0,1-.82,5.26,13.24,13.24,0,0,1-2.45,4.29,13.45,13.45,0,0,1-3.14,2.64,15.17,15.17,0,0,1-3.4,1.54l-3.17,1a19.32,19.32,0,0,0-2.57,1,3.07,3.07,0,0,0-1.45,1.29Zm-5.19-3.14,4.67,1.72,2.3-4.15a4.26,4.26,0,0,1,2-1.78,21.1,21.1,0,0,1,2.72-1l3.16-1a14.48,14.48,0,0,0,3.15-1.42,12.62,12.62,0,0,0,2.87-2.43,12,12,0,0,0,2.23-3.92,11.7,11.7,0,0,0,.75-4.79,10.29,10.29,0,0,0-1.24-4.29,12.14,12.14,0,0,0-3.09-3.6,17.1,17.1,0,0,0-4.82-2.64,19.38,19.38,0,0,0-7.64-1.24,18.6,18.6,0,0,0-3.38.48,27.06,27.06,0,0,0-2.63.79l.8,3.73a1.38,1.38,0,0,0,1,1.22,1.84,1.84,0,0,0,1,0c.53-.13,1.17-.25,1.92-.38a13.39,13.39,0,0,1,2.69-.11,11.85,11.85,0,0,1,3.53.79,9,9,0,0,1,2.44,1.34,6.55,6.55,0,0,1,1.67,1.92,5.93,5.93,0,0,1,.72,2.32,5.77,5.77,0,0,1-.38,2.55,7.27,7.27,0,0,1-2.12,3.17,11.9,11.9,0,0,1-3,1.8,23.65,23.65,0,0,1-3.3,1.1,24.48,24.48,0,0,0-3,1,8.09,8.09,0,0,0-2.36,1.43A4.16,4.16,0,0,0,447,262Z"
         style="fill:#e0e0e0"
         id="path46" />
    </g>
    <g
       id="g51">
      <path
         d="M71.51,268.61h-.7a24.19,24.19,0,0,1-4.73-.62,26.5,26.5,0,0,1-5-1.74,22.38,22.38,0,0,1-6-3.94,16.15,16.15,0,0,1-3.74-5.13,13.92,13.92,0,0,1-1.23-6,15.5,15.5,0,0,1,1.51-6.33,16.13,16.13,0,0,1,3.39-5A16.69,16.69,0,0,1,59.05,237a18.63,18.63,0,0,1,4.3-1.54l4-.88a26.4,26.4,0,0,0,3.27-.94,3.89,3.89,0,0,0,2-1.51l3.85-5.78,7.62,3.5-2.46,7.26a6.38,6.38,0,0,1-2.24,3.31,11.67,11.67,0,0,1-3.42,1.71,29.71,29.71,0,0,1-4,1,27.37,27.37,0,0,0-4,1,13,13,0,0,0-3.49,1.75A7.7,7.7,0,0,0,62,249a6,6,0,0,0-.59,2.56,5.81,5.81,0,0,0,.55,2.39,6.91,6.91,0,0,0,1.57,2.12A9.54,9.54,0,0,0,66,257.7a13.61,13.61,0,0,0,3.88,1.21,14.77,14.77,0,0,0,3,.11c.88-.08,1.66-.16,2.31-.26a3.25,3.25,0,0,1,1.91.17A3,3,0,0,1,79,261.55l.76,5.71-.47.14a30.55,30.55,0,0,1-4.06.93A24.12,24.12,0,0,1,71.51,268.61Zm5.32-40.83-3.3,5A5,5,0,0,1,71,234.69a27.12,27.12,0,0,1-3.42,1l-4,.89a17.93,17.93,0,0,0-4,1.44,16.06,16.06,0,0,0-3.8,2.73,15.08,15.08,0,0,0-3.14,4.64,14.56,14.56,0,0,0-1.4,5.87,12.91,12.91,0,0,0,1.13,5.46,15.08,15.08,0,0,0,3.48,4.76,21.26,21.26,0,0,0,5.69,3.73,25.16,25.16,0,0,0,4.82,1.67,23.47,23.47,0,0,0,4.5.59,23.23,23.23,0,0,0,4.22-.26,29.56,29.56,0,0,0,3.45-.75l-.64-4.78A1.83,1.83,0,0,0,76.69,260a2.25,2.25,0,0,0-1.25-.07c-.68.1-1.49.19-2.39.26a15.63,15.63,0,0,1-3.29-.11,14.54,14.54,0,0,1-4.22-1.3,10.77,10.77,0,0,1-2.83-1.86,8,8,0,0,1-1.84-2.48,6.87,6.87,0,0,1-.65-2.86,7.17,7.17,0,0,1,.69-3.05,8.91,8.91,0,0,1,2.88-3.63,14.54,14.54,0,0,1,3.8-1.9,29.63,29.63,0,0,1,4.15-1,31.31,31.31,0,0,0,3.84-.92,10.55,10.55,0,0,0,3.07-1.55,5.15,5.15,0,0,0,1.83-2.73l2.13-6.3Zm8.32-2.31h-.21a7.33,7.33,0,0,1-5.15-2.37,7.4,7.4,0,0,1-1.43-2.32,6.81,6.81,0,0,1-.45-2.71,7,7,0,0,1,.65-2.79,7,7,0,0,1,4-3.73,7,7,0,0,1,2.69-.41,7.59,7.59,0,0,1,5.14,2.36,7,7,0,0,1,1.45,2.31,7,7,0,0,1,.42,2.68,7.37,7.37,0,0,1-.68,2.79h0A7.53,7.53,0,0,1,90,223.59,7,7,0,0,1,87.64,225,7,7,0,0,1,85.15,225.47ZM85,212.29a6.07,6.07,0,0,0-2,.34,6,6,0,0,0-2,1.18,6.1,6.1,0,0,0-1.42,1.95,6,6,0,0,0-.54,2.34,5.89,5.89,0,0,0,.37,2.27,6.67,6.67,0,0,0,1.22,2,5.86,5.86,0,0,0,1.95,1.41,6.06,6.06,0,0,0,4.64.21,5.8,5.8,0,0,0,1.93-1.21,6.07,6.07,0,0,0,1.4-1.95h0a6.06,6.06,0,0,0,.58-2.35,5.65,5.65,0,0,0-1.56-4.17,6.55,6.55,0,0,0-2-1.42,6.23,6.23,0,0,0-2.35-.57Z"
         style="fill:#e0e0e0"
         id="path49" />
    </g>
    <g
       id="g55">
      <path
         d="M453.35,151.36a7.76,7.76,0,0,1-1.37-.12,7,7,0,0,1-2.6-1,7.16,7.16,0,0,1-2-1.95,7.39,7.39,0,0,1-1.12-2.72h0a7.31,7.31,0,0,1,0-2.91,7.09,7.09,0,0,1,1-2.6,7.45,7.45,0,0,1,2-2,7.28,7.28,0,0,1,2.74-1.16,7.15,7.15,0,0,1,2.95,0,7.76,7.76,0,0,1,2.59,1,7,7,0,0,1,2,2,7.29,7.29,0,0,1,.08,8.22,7.42,7.42,0,0,1-2,2,7.53,7.53,0,0,1-2.71,1.13A7.94,7.94,0,0,1,453.35,151.36Zm-5.94-6.06a6.47,6.47,0,0,0,.95,2.3,5.84,5.84,0,0,0,3.83,2.51,6.49,6.49,0,0,0,2.52,0,6.18,6.18,0,0,0,4-2.61,6,6,0,0,0,.92-2.17,6.33,6.33,0,0,0,0-2.49,6.08,6.08,0,0,0-1-2.26,6,6,0,0,0-1.7-1.66,6.57,6.57,0,0,0-2.2-.89,5.93,5.93,0,0,0-2.48,0,6.11,6.11,0,0,0-2.31,1,6.2,6.2,0,0,0-1.67,1.68,5.9,5.9,0,0,0-.86,2.18,6.23,6.23,0,0,0,0,2.47Zm0-11.45-2.37-7.5a6.52,6.52,0,0,1-.15-4.08,12.14,12.14,0,0,1,1.78-3.49,32.45,32.45,0,0,1,2.72-3.21,29.06,29.06,0,0,0,2.69-3.24,13.5,13.5,0,0,0,1.84-3.58,8.1,8.1,0,0,0,.14-4.15,6.17,6.17,0,0,0-1.07-2.47,5.94,5.94,0,0,0-1.9-1.66,7.13,7.13,0,0,0-2.6-.79,9.59,9.59,0,0,0-3.09.16,13.74,13.74,0,0,0-4,1.36,15.48,15.48,0,0,0-2.59,1.76c-.69.6-1.28,1.14-1.76,1.62a3.42,3.42,0,0,1-1.67,1,3,3,0,0,1-3.11-1l-4.09-4.26.3-.39a31.84,31.84,0,0,1,2.8-3.23,25.08,25.08,0,0,1,3.5-2.92,24.41,24.41,0,0,1,4.29-2.35,26.71,26.71,0,0,1,5.23-1.61,22.63,22.63,0,0,1,7.35-.39,16.5,16.5,0,0,1,6.2,2,14.25,14.25,0,0,1,4.62,4.16,16,16,0,0,1,2.59,6.16,16.59,16.59,0,0,1,.23,6.18,17.34,17.34,0,0,1-1.6,4.89,19.41,19.41,0,0,1-2.62,3.88l-2.76,3.15a26,26,0,0,0-2.14,2.77,4,4,0,0,0-.72,2.45l.33,7.1Zm.07-35.38a10.93,10.93,0,0,1,1.15.06,8.11,8.11,0,0,1,3,.94,6.94,6.94,0,0,1,2.27,2,7.37,7.37,0,0,1,1.28,2.93,9.2,9.2,0,0,1-.18,4.75,14.7,14.7,0,0,1-2,3.88,30.31,30.31,0,0,1-2.8,3.37,31.41,31.41,0,0,0-2.62,3.09,10.81,10.81,0,0,0-1.61,3.15,5.38,5.38,0,0,0,.15,3.39l2.06,6.51,6.42-1.32-.28-6.12a5.19,5.19,0,0,1,.91-3.14,27.08,27.08,0,0,1,2.24-2.89l2.75-3.14a18.63,18.63,0,0,0,2.47-3.66,16.07,16.07,0,0,0,1.49-4.56,15.58,15.58,0,0,0-.22-5.75,15,15,0,0,0-2.4-5.72,13.3,13.3,0,0,0-4.25-3.83,15.34,15.34,0,0,0-5.78-1.83,21.45,21.45,0,0,0-7,.36,26.43,26.43,0,0,0-5,1.54,23.3,23.3,0,0,0-7.43,5,33.32,33.32,0,0,0-2.41,2.72l3.44,3.58a1.88,1.88,0,0,0,2,.68,2.33,2.33,0,0,0,1.09-.7c.49-.49,1.11-1.05,1.81-1.67a16.87,16.87,0,0,1,2.79-1.9,15.05,15.05,0,0,1,4.28-1.48A11.72,11.72,0,0,1,447.44,98.47Z"
         style="fill:#e0e0e0"
         id="path53" />
    </g>
    <g
       id="g59">
      <path
         d="M72.52,116a26.59,26.59,0,0,1-3.82-.29,27.43,27.43,0,0,1-5.36-1.4,23.35,23.35,0,0,1-6.53-3.59,16.82,16.82,0,0,1-4.29-5,14.57,14.57,0,0,1-1.76-6A16.24,16.24,0,0,1,51.81,93a16.76,16.76,0,0,1,3.11-5.44,17.44,17.44,0,0,1,4-3.36,19.81,19.81,0,0,1,4.32-2L67.28,81a24.69,24.69,0,0,0,3.32-1.24A4,4,0,0,0,72.53,78L76,71.72l8.15,3-2,7.71a6.5,6.5,0,0,1-2,3.59,11.78,11.78,0,0,1-3.39,2.06,32.62,32.62,0,0,1-4.05,1.31,29.62,29.62,0,0,0-4,1.36,13.68,13.68,0,0,0-3.49,2.1,8.21,8.21,0,0,0-2.34,3.5,6.26,6.26,0,0,0-.4,2.71,6.11,6.11,0,0,0,.76,2.44A7.17,7.17,0,0,0,65,103.56a10,10,0,0,0,2.76,1.52,14.31,14.31,0,0,0,4.13.94,15.64,15.64,0,0,0,3.17-.14c.92-.15,1.72-.3,2.38-.46a3.46,3.46,0,0,1,2,0A3.07,3.07,0,0,1,81.56,108l1.26,5.84-.46.17a30.85,30.85,0,0,1-4.14,1.29,24.92,24.92,0,0,1-4.57.65C73.28,116,72.9,116,72.52,116Zm4-42.84-3,5.42a5.19,5.19,0,0,1-2.46,2.22,26.83,26.83,0,0,1-3.46,1.29l-4.06,1.25a18.4,18.4,0,0,0-4.07,1.83,16.06,16.06,0,0,0-3.72,3.14,15.88,15.88,0,0,0-2.88,5.07,15.12,15.12,0,0,0-1,6.2,13.45,13.45,0,0,0,1.62,5.58,15.6,15.6,0,0,0,4,4.66,22,22,0,0,0,6.21,3.41,25.8,25.8,0,0,0,5.13,1.34,24.75,24.75,0,0,0,4.73.25,24.38,24.38,0,0,0,4.35-.62,31.73,31.73,0,0,0,3.53-1.07l-1-4.92a2,2,0,0,0-1.38-1.67,2.34,2.34,0,0,0-1.31,0c-.69.16-1.52.31-2.46.47a16.61,16.61,0,0,1-3.41.15,15.37,15.37,0,0,1-4.48-1,11.34,11.34,0,0,1-3.07-1.69,8.33,8.33,0,0,1-2.1-2.41,7.12,7.12,0,0,1-.9-2.91,7.29,7.29,0,0,1,.46-3.2,9.26,9.26,0,0,1,2.68-4,14.65,14.65,0,0,1,3.78-2.28,29.72,29.72,0,0,1,4.21-1.41A32,32,0,0,0,76.36,87a11,11,0,0,0,3.07-1.86,5.49,5.49,0,0,0,1.68-3l1.7-6.72Zm7.86-3a7.6,7.6,0,0,1-2.6-.47,7.25,7.25,0,0,1-2.54-1.57,7.66,7.66,0,0,1-1.67-2.28,7.39,7.39,0,0,1-.24-5.7,7.23,7.23,0,0,1,1.56-2.54,7.43,7.43,0,0,1,2.31-1.65A7.69,7.69,0,0,1,84,55.25a7.46,7.46,0,0,1,2.93.48,7.83,7.83,0,0,1,2.57,1.54,7.13,7.13,0,0,1,1.69,2.28,7.36,7.36,0,0,1,.17,5.67h0a7.65,7.65,0,0,1-1.53,2.52,7.06,7.06,0,0,1-2.27,1.68,7.42,7.42,0,0,1-2.76.67Zm-.13-13.7H84a6.51,6.51,0,0,0-2.33.54,6.24,6.24,0,0,0-1.94,1.39A6.35,6.35,0,0,0,78.07,63a6.2,6.2,0,0,0,.58,2.33,6.68,6.68,0,0,0,1.42,2,6.27,6.27,0,0,0,2.15,1.32,6.4,6.4,0,0,0,4.85-.17A6,6,0,0,0,89,67a6.41,6.41,0,0,0,1.3-2.14h0a6.42,6.42,0,0,0,.41-2.49,5.9,5.9,0,0,0-2-4.21,6.48,6.48,0,0,0-2.18-1.31A6.6,6.6,0,0,0,84.29,56.4Z"
         style="fill:#e0e0e0"
         id="path57" />
    </g>
  </g>
  <g
     id="freepik--symbol-1--inject-68">
    <g
       id="g78">
      <path
         d="M372.7,370.76a73.61,73.61,0,0,0-6-15.28,70.5,70.5,0,0,0-8.86-13,43.21,43.21,0,0,0-11-9.3,22.65,22.65,0,0,0-11.08-3.44,14.12,14.12,0,0,0-8.86,2.76c-2.47,1.86-24.9,13.94-27.36,15.8a18.27,18.27,0,0,0-5.82,8.46,38,38,0,0,0-2.12,13.3,61.8,61.8,0,0,0,2.12,15.87A72.15,72.15,0,0,0,299.55,401a63.24,63.24,0,0,0,8.86,12.87,45.22,45.22,0,0,0,11.08,9.24,23.18,23.18,0,0,0,11,3.5,14.22,14.22,0,0,0,8.86-2.63c2.52-1.83,24.84-14,27.36-15.8a18.29,18.29,0,0,0,6-8.24,35.68,35.68,0,0,0,2.21-13.36A60.22,60.22,0,0,0,372.7,370.76Z"
         style="fill:#8B08B7"
         id="path62" />
      <path
         d="M372.7,370.76a73.61,73.61,0,0,0-6-15.28,70.5,70.5,0,0,0-8.86-13,43.21,43.21,0,0,0-11-9.3,22.65,22.65,0,0,0-11.08-3.44,14.12,14.12,0,0,0-8.86,2.76c-2.47,1.86-24.9,13.94-27.36,15.8a18.27,18.27,0,0,0-5.82,8.46,38,38,0,0,0-2.12,13.3,61.8,61.8,0,0,0,2.12,15.87A72.15,72.15,0,0,0,299.55,401a63.24,63.24,0,0,0,8.86,12.87,45.22,45.22,0,0,0,11.08,9.24,23.18,23.18,0,0,0,11,3.5,14.22,14.22,0,0,0,8.86-2.63c2.52-1.83,24.84-14,27.36-15.8a18.29,18.29,0,0,0,6-8.24,35.68,35.68,0,0,0,2.21-13.36A60.22,60.22,0,0,0,372.7,370.76Z"
         style="fill:#fff;opacity:0.4"
         id="path64" />
      <path
         d="M421.26,176.37a152,152,0,0,0-14.59-34.88,148.94,148.94,0,0,0-22.61-29.92,134.77,134.77,0,0,0-29.27-22.81,104.35,104.35,0,0,0-22-9.85A68.74,68.74,0,0,0,314,75.78,52.61,52.61,0,0,0,297.83,78a63.23,63.23,0,0,0-13.76,6.09l-27.36,15.8,12,32.29q3,9.09,9.61,12.92a7.61,7.61,0,0,0,6.27.55,76.06,76.06,0,0,1,8.59-1.93,38.31,38.31,0,0,1,12.37.25q7.29,1.14,17.82,7.21a62.65,62.65,0,0,1,13.38,10.43,69.88,69.88,0,0,1,10.62,13.89,72.08,72.08,0,0,1,6.92,16.06,60.59,60.59,0,0,1,2.49,17.31q0,13.78-4.33,21.26a39,39,0,0,1-3.76,5.31,58.14,58.14,0,0,0-6.91,3.7c-2.69,1.7-23.37,13.27-27.36,15.81a27.5,27.5,0,0,0-9.61,10.45q-3.58,6.66-2.49,18.87l3.14,41.94,31.2,18L364,328.46l4.25-33.5a18,18,0,0,1,2.28-7l.91-.4a35.26,35.26,0,0,0,4.39-2.29c3.17-1.93,25.38-14.64,26.54-15.31a42.1,42.1,0,0,0,9.82-7.95q6.09-6.57,10.16-17.89t4.05-30A139.59,139.59,0,0,0,421.26,176.37Z"
         style="fill:#8B08B7"
         id="path66" />
      <path
         d="M421.26,176.37a152,152,0,0,0-14.59-34.88,148.94,148.94,0,0,0-22.61-29.92,134.77,134.77,0,0,0-29.27-22.81,104.35,104.35,0,0,0-22-9.85A68.74,68.74,0,0,0,314,75.78,52.61,52.61,0,0,0,297.83,78a63.23,63.23,0,0,0-13.76,6.09l-27.36,15.8,12,32.29q3,9.09,9.61,12.92a7.61,7.61,0,0,0,6.27.55,76.06,76.06,0,0,1,8.59-1.93,38.31,38.31,0,0,1,12.37.25q7.29,1.14,17.82,7.21a62.65,62.65,0,0,1,13.38,10.43,69.88,69.88,0,0,1,10.62,13.89,72.08,72.08,0,0,1,6.92,16.06,60.59,60.59,0,0,1,2.49,17.31q0,13.78-4.33,21.26a39,39,0,0,1-3.76,5.31,58.14,58.14,0,0,0-6.91,3.7c-2.69,1.7-23.37,13.27-27.36,15.81a27.5,27.5,0,0,0-9.61,10.45q-3.58,6.66-2.49,18.87l3.14,41.94,31.2,18L364,328.46l4.25-33.5a18,18,0,0,1,2.28-7l.91-.4a35.26,35.26,0,0,0,4.39-2.29c3.17-1.93,25.38-14.64,26.54-15.31a42.1,42.1,0,0,0,9.82-7.95q6.09-6.57,10.16-17.89t4.05-30A139.59,139.59,0,0,0,421.26,176.37Z"
         style="fill:#fff;opacity:0.4"
         id="path68" />
      <path
         d="M339.34,371.29a70.58,70.58,0,0,0-8.86-13,43.21,43.21,0,0,0-11-9.3,22.65,22.65,0,0,0-11.08-3.44,14.12,14.12,0,0,0-8.86,2.76,18.27,18.27,0,0,0-5.82,8.46,38,38,0,0,0-2.12,13.3,61.8,61.8,0,0,0,2.12,15.87A72.15,72.15,0,0,0,299.55,401a63.24,63.24,0,0,0,8.86,12.87,45.22,45.22,0,0,0,11.08,9.24,23.18,23.18,0,0,0,11,3.5,14.22,14.22,0,0,0,8.86-2.63,18.29,18.29,0,0,0,6-8.24,35.61,35.61,0,0,0,2.21-13.36,60.22,60.22,0,0,0-2.21-15.81A73.31,73.31,0,0,0,339.34,371.29Z"
         style="fill:#fafafa"
         id="path70" />
      <path
         d="M308.3,348.33h.09a20,20,0,0,1,9.71,3.07,40.44,40.44,0,0,1,10.27,8.7,68.08,68.08,0,0,1,8.52,12.49,71.26,71.26,0,0,1,5.77,14.7,58.12,58.12,0,0,1,2.12,15.08,33.17,33.17,0,0,1-2,12.33,15.77,15.77,0,0,1-5,7,11.35,11.35,0,0,1-6.88,2.11h-.3a20.73,20.73,0,0,1-9.66-3.14A42.68,42.68,0,0,1,310.49,412,61.16,61.16,0,0,1,302,399.71a69.33,69.33,0,0,1-5.59-14.48,59,59,0,0,1-2-15.16,35.38,35.38,0,0,1,1.94-12.33,15.77,15.77,0,0,1,4.89-7.21,11.32,11.32,0,0,1,7.08-2.2m0-2.78a14.08,14.08,0,0,0-8.75,2.76,18.27,18.27,0,0,0-5.82,8.46,38,38,0,0,0-2.12,13.3,61.8,61.8,0,0,0,2.12,15.87A72.15,72.15,0,0,0,299.55,401a63.24,63.24,0,0,0,8.86,12.87,45.22,45.22,0,0,0,11.08,9.24,23.18,23.18,0,0,0,11,3.5h.36a14.1,14.1,0,0,0,8.5-2.64,18.29,18.29,0,0,0,6-8.24,35.61,35.61,0,0,0,2.21-13.36,60.22,60.22,0,0,0-2.21-15.81,73.31,73.31,0,0,0-6-15.27,70.58,70.58,0,0,0-8.86-13,43.21,43.21,0,0,0-11-9.3,22.65,22.65,0,0,0-11.08-3.44Z"
         style="fill:#8B08B7"
         id="path72" />
      <path
         d="M393.9,192.17a152,152,0,0,0-14.59-34.88,148.57,148.57,0,0,0-22.61-29.92,135.39,135.39,0,0,0-29.27-22.81,104.35,104.35,0,0,0-22-9.85,68.7,68.7,0,0,0-18.84-3.12,52.61,52.61,0,0,0-16.15,2.24,63.71,63.71,0,0,0-13.76,6.09l12,32.29q3,9.09,9.61,12.92a7.61,7.61,0,0,0,6.27.55,76.06,76.06,0,0,1,8.59-1.93,38.31,38.31,0,0,1,12.37.25q7.29,1.14,17.82,7.21a62.65,62.65,0,0,1,13.38,10.43,69.88,69.88,0,0,1,10.62,13.89,72.08,72.08,0,0,1,6.92,16.06,60.59,60.59,0,0,1,2.49,17.31q0,13.78-4.33,21.26a34.61,34.61,0,0,1-10.8,11.73,59.93,59.93,0,0,1-13.85,6.78A61.82,61.82,0,0,0,314.42,255a27.5,27.5,0,0,0-9.61,10.45q-3.58,6.66-2.49,18.87l3.14,41.94,31.2,18,4.25-33.5q.93-7.33,5.63-10.9a54,54,0,0,1,11.17-6.35q6.46-2.79,13.75-6a40.33,40.33,0,0,0,13.4-9.75q6.08-6.57,10.15-17.89t4.05-30A139.66,139.66,0,0,0,393.9,192.17Z"
         style="fill:#fafafa"
         id="path74" />
      <path
         d="M286.08,94.36h.52a66.13,66.13,0,0,1,18.06,3A101.71,101.71,0,0,1,326,107a132.62,132.62,0,0,1,28.67,22.34,147.16,147.16,0,0,1,22.19,29.36,150.26,150.26,0,0,1,14.33,34.25,137.86,137.86,0,0,1,5.06,37c0,12.1-1.31,21.89-3.9,29.09s-5.79,12.86-9.57,16.94A37.56,37.56,0,0,1,370.35,285q-7.28,3.18-13.74,6a57.48,57.48,0,0,0-11.75,6.68c-3.74,2.83-6,7.13-6.71,12.77l-3.72,29.35-26.31-15.19-3-40.52c-.69-7.54,0-13.36,2.17-17.3a25,25,0,0,1,8.64-9.43,60.13,60.13,0,0,1,12.79-6,63.06,63.06,0,0,0,14.49-7.09,37.37,37.37,0,0,0,11.67-12.66c3.17-5.46,4.71-12.87,4.71-22.65A63.79,63.79,0,0,0,357,190.8a75.08,75.08,0,0,0-7.18-16.67,73.23,73.23,0,0,0-11-14.44,66.22,66.22,0,0,0-14-10.89c-7.28-4.2-13.6-6.74-18.78-7.55a53,53,0,0,0-7.94-.67,31.74,31.74,0,0,0-5.34.43,79.58,79.58,0,0,0-8.91,2,6.55,6.55,0,0,1-1.87.3,4.34,4.34,0,0,1-2.22-.59c-3.85-2.23-6.58-5.95-8.35-11.38v-.06l0,0-11.18-30.08a63,63,0,0,1,11.15-4.68,50,50,0,0,1,14.79-2.12m0-2.78a52.36,52.36,0,0,0-15.61,2.25,63.71,63.71,0,0,0-13.76,6.09l12,32.29q3,9.09,9.61,12.92a7,7,0,0,0,3.6,1,9.26,9.26,0,0,0,2.67-.42,76.06,76.06,0,0,1,8.59-1.93,28.15,28.15,0,0,1,4.86-.39,48.69,48.69,0,0,1,7.51.64q7.29,1.14,17.82,7.21a62.65,62.65,0,0,1,13.38,10.43,69.88,69.88,0,0,1,10.62,13.89,72.08,72.08,0,0,1,6.92,16.06,60.59,60.59,0,0,1,2.49,17.31q0,13.78-4.33,21.26a34.61,34.61,0,0,1-10.8,11.73,59.93,59.93,0,0,1-13.85,6.78A61.82,61.82,0,0,0,314.42,255a27.5,27.5,0,0,0-9.61,10.45q-3.58,6.66-2.49,18.87l3.14,41.94,31.2,18,4.25-33.5q.93-7.33,5.63-10.9a54,54,0,0,1,11.17-6.35q6.46-2.79,13.75-6a40.33,40.33,0,0,0,13.4-9.75q6.08-6.57,10.15-17.89t4.05-30a139.66,139.66,0,0,0-5.16-37.7,152,152,0,0,0-14.59-34.88,148.57,148.57,0,0,0-22.61-29.92,135.39,135.39,0,0,0-29.27-22.81,104.35,104.35,0,0,0-22-9.85,68.7,68.7,0,0,0-18.84-3.12Z"
         style="fill:#8B08B7"
         id="path76" />
    </g>
  </g>
  <g
     id="freepik--Character--inject-68">
    <g
       id="freepik--character--inject-68">
      <g
         id="freepik--magnifying-glass--inject-68">
        <path
           d="M161.75,282.08s.05-.1.08-.14l54.62-86.38h0c.73-1.26,2.28-2,4.48-2a15.26,15.26,0,0,1,11.88,7.13c1.09,1.94,1.18,3.68.45,4.94h0l-48,90.36a1.48,1.48,0,0,1-.08.13c-.05.08-.08.17-.13.25a13.47,13.47,0,0,1-18.62,4.83,13.93,13.93,0,0,1-4.85-18.9C161.65,282.23,161.71,282.16,161.75,282.08Z"
           style="fill:#455a64"
           id="path94" />
        <path
           d="M232.82,200.69c2.17,3.88.36,7-4,6.93a15.28,15.28,0,0,1-11.89-7.12c-2.17-3.88-.37-7,4-6.94A15.29,15.29,0,0,1,232.82,200.69Z"
           style="fill:#263238"
           id="path96" />
        <path
           d="M179.66,288.51l44.93-81.76a12.62,12.62,0,0,0,4.2.87c2.18,0,3.72-.71,4.46-2l-48,90.34a1.48,1.48,0,0,1-.08.13c-.05.08-.08.17-.13.25a13.47,13.47,0,0,1-18.62,4.83C170.65,302.44,175.27,296.57,179.66,288.51Z"
           style="fill:#37474f"
           id="path98" />
        <path
           d="M238.34,169a9.23,9.23,0,0,1,7.18,4.31,3,3,0,0,1,.28,3h0l-15.86,27.34h0a2.89,2.89,0,0,1-2.71,1.2,9.24,9.24,0,0,1-7.18-4.3,3,3,0,0,1-.27-3l15.85-27.34h0A2.9,2.9,0,0,1,238.34,169Z"
           style="fill:#e0e0e0"
           id="path100" />
        <path
           d="M236.44,192.43l5-8.63a111.21,111.21,0,0,1-8.76-8.53l-5.13,8.86A118.84,118.84,0,0,0,236.44,192.43Z"
           style="opacity:0.25"
           id="path102" />
        <path
           d="M193.06,91.45c.1,39.52,28,87.52,62.25,107.19,10,5.72,19.37,8.42,27.7,8.4a31.88,31.88,0,0,0,16.13-4.17l19.95-11.59c11.21-6.5,18.12-20.4,18.07-40.16-.1-39.53-28-87.52-62.25-107.2-17.14-9.83-32.63-10.73-43.83-4.23l-20,11.61C199.91,57.81,193,71.7,193.06,91.45Zm29.81-11.61c0-9.37,1.69-17.11,4.9-22.87,6.67.09,14.36,2.53,22.28,7.08,15.1,8.67,29.42,23.79,40.33,42.56s16.93,38.7,17,56.12c0,9.38-1.69,17.12-4.91,22.87-6.67-.1-14.35-2.55-22.27-7.08-15.1-8.68-29.42-23.79-40.33-42.57S222.91,97.25,222.87,79.84Z"
           style="fill:#8B08B7"
           id="path104" />
        <path
           d="M307.66,73.46,279.12,90a140.06,140.06,0,0,1,11.26,16.58c.67,1.16,1.32,2.32,2,3.49l28.47-16.54A149.77,149.77,0,0,0,307.66,73.46Zm-44.06.27a111.71,111.71,0,0,1,8.63,8.3l28.66-16.64q-4-4.47-8.38-8.44Z"
           style="fill:#fff;opacity:0.1"
           id="path106" />
        <path
           d="M299.22,202.82l19.87-11.54c11.21-6.5,18.12-20.4,18.07-40.16,0-.76,0-1.52-.06-2.29l-19.94,11.59c0,.77,0,1.52,0,2.28C317.24,182.41,310.37,196.3,299.22,202.82Z"
           style="opacity:0.25"
           id="path108" />
        <path
           d="M202.91,91.42c0,17.42,6.07,37.36,17,56.13s25.23,33.89,40.33,42.55c8.11,4.66,16,7.11,22.77,7.09,8.65,0,15.31-4.13,19.46-11.59-6.67-.1-14.35-2.55-22.27-7.08-15.1-8.68-29.42-23.79-40.33-42.57s-16.93-38.7-17-56.11c0-9.37,1.69-17.11,4.9-22.87h-.5C212,57,202.85,69.89,202.91,91.42Z"
           style="fill:#8B08B7"
           id="path110" />
        <path
           d="M202.91,91.42c0,17.42,6.07,37.36,17,56.13s25.23,33.89,40.33,42.55c8.11,4.66,16,7.11,22.77,7.09,8.65,0,15.31-4.13,19.46-11.59-6.67-.1-14.35-2.55-22.27-7.08-15.1-8.68-29.42-23.79-40.33-42.57s-16.93-38.7-17-56.11c0-9.37,1.69-17.11,4.9-22.87h-.5C212,57,202.85,69.89,202.91,91.42Z"
           style="opacity:0.25"
           id="path112" />
        <path
           d="M212.2,86.06c0,17.41,6.07,37.35,17,56.12s25.22,33.89,40.33,42.55c8.11,4.66,16,7.11,22.77,7.09a23.49,23.49,0,0,0,6.1-.77h0a24.88,24.88,0,0,0,4.06-5.45c3.22-5.75,4.93-13.49,4.91-22.87,0-17.42-6.07-37.34-17-56.12s-25.23-33.89-40.33-42.56c-7.92-4.55-15.61-7-22.28-7.08h-.5a23.71,23.71,0,0,0-6.13.79C215.35,63.57,212.17,73.29,212.2,86.06Z"
           style="fill:#fff;opacity:0.30000000000000004"
           id="path114" />
        <path
           d="M193.06,91.45c.1,39.52,28,87.52,62.25,107.19s62,3.59,61.88-35.93-28-87.52-62.24-107.2S193,51.93,193.06,91.45Zm26.82,56.1c-10.9-18.77-16.93-38.71-17-56.13C202.85,69.89,212,57,227.27,57h.5c6.67.09,14.36,2.53,22.28,7.08,15.1,8.67,29.42,23.79,40.33,42.56s16.93,38.7,17,56.12c0,9.38-1.69,17.12-4.91,22.87-4.15,7.46-10.81,11.57-19.46,11.59-6.79,0-14.66-2.43-22.77-7.09C245.11,181.44,230.78,166.32,219.88,147.55Z"
           style="fill:#8B08B7"
           id="path116" />
        <g
           style="opacity:0.30000000000000004"
           id="g120">
          <path
             d="M193.06,91.45c.1,39.52,28,87.52,62.25,107.19s62,3.59,61.88-35.93-28-87.52-62.24-107.2S193,51.93,193.06,91.45Zm26.82,56.1c-10.9-18.77-16.93-38.71-17-56.13C202.85,69.89,212,57,227.27,57h.5c6.67.09,14.36,2.53,22.28,7.08,15.1,8.67,29.42,23.79,40.33,42.56s16.93,38.7,17,56.12c0,9.38-1.69,17.12-4.91,22.87-4.15,7.46-10.81,11.57-19.46,11.59-6.79,0-14.66-2.43-22.77-7.09C245.11,181.44,230.78,166.32,219.88,147.55Z"
             style="fill:#fff"
             id="path118" />
        </g>
        <g
           style="opacity:0.30000000000000004"
           id="g124">
          <path
             d="M302,107.34a143.58,143.58,0,0,1,12.68,35.18,101,101,0,0,1,2.15,18.57,68.68,68.68,0,0,1-2,18.52,41,41,0,0,1-8.17,16.54,29.73,29.73,0,0,1-15.55,9.65,38.77,38.77,0,0,1-18.48-.24,66.53,66.53,0,0,1-17.35-6.92,66.31,66.31,0,0,0,17.27,7.27,39.09,39.09,0,0,0,18.68.37,30.34,30.34,0,0,0,15.89-9.73,41.59,41.59,0,0,0,8.43-16.76,69.79,69.79,0,0,0,1.88-18.71,100.93,100.93,0,0,0-2.28-18.66,131.19,131.19,0,0,0-5.33-18A152.74,152.74,0,0,0,302,107.34Z"
             style="fill:#fff"
             id="path122" />
        </g>
        <g
           style="opacity:0.30000000000000004"
           id="g128">
          <path
             d="M227.27,57a23.39,23.39,0,0,0-9.08,1.69,21,21,0,0,0-7.55,5.41,28,28,0,0,0-4.86,8,41.36,41.36,0,0,0-2.55,9,71.4,71.4,0,0,0-.48,18.64,101.81,101.81,0,0,0,3.5,18.32,120.83,120.83,0,0,0,6.45,17.51,142.58,142.58,0,0,0,8.79,16.45,128.1,128.1,0,0,0,23.84,28.63,90.05,90.05,0,0,0,15.28,10.83,52.39,52.39,0,0,0,17.68,6.34,28.77,28.77,0,0,0,9.53-.13,21.45,21.45,0,0,0,8.76-3.89,20.65,20.65,0,0,0,3.51-3.29,24.57,24.57,0,0,0,2.76-3.9,34.2,34.2,0,0,0,3.5-8.8,61.89,61.89,0,0,0,1.52-18.63,96,96,0,0,0-2.93-18.4,120.52,120.52,0,0,0-6.08-17.58,136,136,0,0,0-8.48-16.51A134.36,134.36,0,0,1,304,140.93a96.1,96.1,0,0,1,2.63,18.23,60.69,60.69,0,0,1-1.74,18.19,33,33,0,0,1-3.46,8.34,22.13,22.13,0,0,1-5.87,6.67,19.71,19.71,0,0,1-8.07,3.53,26.82,26.82,0,0,1-8.94.07,50.84,50.84,0,0,1-17-6.2,88.75,88.75,0,0,1-14.9-10.67A126.3,126.3,0,0,1,223,151a138.82,138.82,0,0,1-15.31-33.44,100.81,100.81,0,0,1-3.72-18,71.4,71.4,0,0,1,.19-18.36,40.33,40.33,0,0,1,2.3-8.87A27.15,27.15,0,0,1,211,64.4a20.84,20.84,0,0,1,7.27-5.48A23.36,23.36,0,0,1,227.27,57Z"
             style="fill:#fff"
             id="path126" />
        </g>
      </g>
    </g>
  </g>
</svg>
